<svg width="45" height="45" viewBox="0 0 45 45" fill="none" xmlns="http://www.w3.org/2000/svg">
<path d="M31.3457 10.9236L22.1554 20.4535L12.6255 11.2633C12.1381 10.7933 11.3621 10.8074 10.8921 11.2947C10.4222 11.7821 10.4362 12.5581 10.9236 13.0281L20.4535 22.2183L11.2633 31.7482C10.7933 32.2356 10.8074 33.0116 11.2947 33.4816C11.7821 33.9515 12.5581 33.9375 13.0281 33.4501L22.2183 23.9202L31.7482 33.1104C32.2356 33.5804 33.0116 33.5663 33.4816 33.079C33.9515 32.5916 33.9375 31.8156 33.4501 31.3456L23.9202 22.1554L33.1104 12.6255C33.5804 12.1381 33.5663 11.3621 33.079 10.8921C32.5916 10.4222 31.8156 10.4362 31.3457 10.9236Z" fill="#AB8882"/>
</svg>
