<svg width="30" height="30" viewBox="0 0 30 30" fill="none" xmlns="http://www.w3.org/2000/svg">
<circle cx="15" cy="15" r="14.5" transform="rotate(-90 15 15)" stroke="#CCA29D"/>
<path d="M15.1059 21.0076C15.2074 21.0021 15.2873 20.9634 15.3374 20.9121L18.5337 17.6661C18.6735 17.5168 18.6675 17.2927 18.546 17.1549C18.4245 17.017 18.1974 17.0098 18.0695 17.1396L15.441 19.805L15.4262 10.5239C15.4259 10.3243 15.2747 10.162 15.0886 10.1616C14.9025 10.1611 14.7519 10.3226 14.7523 10.5222L14.7671 19.8034L12.13 17.1252C12.0016 16.9948 11.779 17.0056 11.6536 17.1382C11.5238 17.2754 11.5391 17.5189 11.6676 17.6495L14.8742 20.911C14.9561 20.997 15.0256 21.0017 15.1059 21.0076Z" fill="#CCA29D"/>
</svg>
