<svg width="63" height="66" viewBox="0 0 63 66" fill="none" xmlns="http://www.w3.org/2000/svg">
<circle cx="37" cy="40" r="26" fill="#F4E0E0"/>
<circle cx="37" cy="40" r="26" fill="url(#paint0_radial_333_114)" fill-opacity="0.32"/>
<path d="M10.5861 54.1869C10.7051 54.3818 10.9128 54.4889 11.1257 54.4889C11.2381 54.4889 11.3519 54.4594 11.455 54.3959C11.7526 54.2138 11.846 53.8245 11.6635 53.527C11.6018 53.426 5.73019 43.5757 10.1201 29.4647C11.7265 29.2187 18.2419 28.4446 23.1653 31.1356C27.6809 33.6034 27.1929 37.0099 27.1708 37.1505C27.1695 37.1589 27.1726 37.1664 27.1712 37.1743C27.1699 37.1827 27.1651 37.1889 27.1642 37.1972C27.1479 37.3696 26.9195 39.4262 25.7711 41.4589C25.7662 41.4638 25.7596 41.4651 25.7552 41.4704C25.6864 41.5445 25.6454 41.6309 25.6181 41.7213C24.3656 43.7871 22.1239 45.7431 18.1325 45.5702C17.7737 45.5588 17.4884 45.8255 17.4734 46.1747C17.4585 46.5234 17.7283 46.8187 18.077 46.8333C18.2648 46.8417 18.4482 46.8461 18.6289 46.8461C21.3185 46.8461 23.2768 45.956 24.7016 44.7225C25.228 45.7748 26.3628 48.6328 26.0167 53.2366C25.9906 53.5849 26.2512 53.8882 26.5995 53.9142C26.6158 53.9155 26.6316 53.9159 26.6475 53.9159C26.9755 53.9159 27.2524 53.6633 27.277 53.3314C27.6897 47.8229 26.1304 44.6409 25.6362 43.7848C25.9333 43.4409 26.1979 43.0834 26.4363 42.7206C26.7714 42.8418 27.2413 42.9467 27.8929 42.9467C28.5974 42.9467 29.0982 42.8255 29.4354 42.6915C29.6788 43.0644 29.9503 43.4321 30.2549 43.7857C29.7608 44.6422 28.2015 47.8243 28.6141 53.3313C28.6388 53.6633 28.9161 53.9159 29.2436 53.9159C29.2595 53.9159 29.2758 53.9155 29.2917 53.9142C29.64 53.8881 29.9005 53.5848 29.8745 53.2366C29.5293 48.6332 30.6632 45.7752 31.1895 44.7229C32.6152 45.9564 34.5726 46.8456 37.2622 46.8456C37.4426 46.8456 37.6268 46.8412 37.8142 46.8328C38.1629 46.8178 38.4327 46.5224 38.4177 46.1742C38.4032 45.8255 38.1281 45.5579 37.7586 45.5698C29.7083 45.9075 28.7622 37.5521 28.7266 37.1959C28.7261 37.1884 28.7217 37.1827 28.7204 37.1752C28.72 37.1681 28.7222 37.1611 28.7208 37.1544C28.6979 37.0103 28.2108 33.6038 32.7259 31.136C37.6422 28.4494 44.1629 29.2197 45.7711 29.4651C50.1496 43.5486 44.2889 53.4258 44.2263 53.5274C44.0451 53.825 44.1386 54.2138 44.4361 54.3963C44.5393 54.4589 44.6535 54.4894 44.7654 54.4894C44.9779 54.4894 45.1851 54.3818 45.3046 54.1874C45.5815 53.7359 52.0152 42.9497 46.4169 27.4064C45.2989 24.3014 44.3295 21.8548 43.5501 19.8886C40.9756 13.3919 40.0114 10.9611 40.0114 1.55949C40.0114 1.21078 39.7289 0.927307 39.3793 0.927307C39.0297 0.927307 38.7471 1.21033 38.7471 1.55949C38.7471 11.2026 39.8095 13.8812 42.374 20.3547C43.1904 22.4144 44.1158 24.7491 45.2276 27.8345C45.2562 27.9135 45.2796 27.9915 45.3074 28.0704C42.4524 27.5162 34.507 26.0949 28.0966 26.0949C28.0424 26.0949 27.9935 26.1135 27.9432 26.1258C27.8925 26.113 27.844 26.0949 27.7898 26.0949C21.3799 26.0949 13.4344 27.5163 10.5802 28.0704C10.608 27.9915 10.6314 27.9143 10.66 27.8345C11.7718 24.7486 12.6967 22.4139 13.5136 20.3547C16.0788 13.8818 17.1405 11.2027 17.1405 1.55949C17.1405 1.21078 16.8579 0.927307 16.5083 0.927307C16.1587 0.927307 15.8761 1.21033 15.8761 1.55949C15.8761 10.9611 14.9129 13.3914 12.3375 19.8886C11.5581 21.8548 10.5882 24.3011 9.4707 27.4064C3.87637 42.9479 10.3096 53.7348 10.5865 54.1862L10.5861 54.1869ZM28.7933 41.5718C28.591 41.6291 28.3009 41.6811 27.894 41.6811C27.5471 41.6811 27.2843 41.6432 27.0877 41.5964C27.4708 40.8399 27.7481 40.1024 27.9465 39.4566C28.1427 40.0953 28.4164 40.824 28.7933 41.5717V41.5718ZM27.7935 27.3574C27.8477 27.3574 27.8967 27.3389 27.9469 27.3265C27.9976 27.3393 28.0461 27.3574 28.1003 27.3574C31.3027 27.3574 34.9039 27.7202 38.041 28.1478C36.0779 28.4322 34.0077 28.9947 32.123 30.0254C29.6979 31.3515 28.5173 32.9465 27.9473 34.3131C27.3773 32.947 26.1971 31.3511 23.7716 30.0254C21.8865 28.9947 19.8172 28.4322 17.8536 28.1478C20.9889 27.7202 24.5898 27.3574 27.7934 27.3574H27.7935Z" fill="#9E7C7C"/>
<path d="M28.1749 16.8244V1.55937C28.1749 1.21066 27.8923 0.927185 27.5427 0.927185C27.1931 0.927185 26.9105 1.21021 26.9105 1.55937V16.8244C26.9105 17.1731 27.1931 17.4566 27.5427 17.4566C27.8923 17.4566 28.1749 17.1731 28.1749 16.824V16.8244Z" fill="#9E7C7C"/>
<path d="M51.3207 21.5384L51.5368 21.434C51.7091 21.3498 51.8352 21.1919 51.8775 21.005C51.9194 20.8172 51.8745 20.6206 51.755 20.4711L48.9874 17.0109C48.7996 16.7764 48.4734 16.7063 48.208 16.8421C47.9408 16.9774 47.8055 17.2821 47.884 17.5708L49.0337 21.8148C49.0822 21.996 49.2101 22.1468 49.3811 22.2244C49.4644 22.2623 49.5535 22.2812 49.6434 22.2812C49.7378 22.2812 49.8326 22.2605 49.9194 22.2182L50.1804 22.0917C50.8236 23.729 51.536 25.5801 52.3476 27.8342C53.9232 32.21 54.6533 36.6287 54.5175 40.9662C54.5069 41.3149 54.7811 41.6072 55.1298 41.6178H55.1501C55.4896 41.6178 55.7699 41.348 55.781 41.0055C55.9225 36.5075 55.1669 31.932 53.5366 27.4051C52.7113 25.1148 51.9676 23.1835 51.3208 21.5383L51.3207 21.5384Z" fill="#9E7C7C"/>
<path d="M6.07406 22.0915L6.33461 22.218C6.4219 22.2603 6.5158 22.2811 6.61058 22.2811C6.70051 22.2811 6.78956 22.2621 6.87244 22.2242C7.04393 22.1457 7.17221 21.9958 7.22071 21.8146L8.37083 17.5706C8.4493 17.281 8.31396 16.9773 8.04725 16.8419C7.78009 16.7066 7.45431 16.7767 7.26738 17.0108L4.49934 20.471C4.37987 20.6209 4.33446 20.8175 4.37678 21.0048C4.41911 21.1918 4.54475 21.35 4.71756 21.4338L4.93358 21.5387C4.28685 23.1844 3.54408 25.1145 2.71921 27.4055C1.08853 31.9316 0.333294 36.5076 0.474365 41.0059C0.484946 41.3484 0.765762 41.6182 1.10521 41.6182H1.12549C1.4742 41.6077 1.74797 41.3154 1.73783 40.9667C1.60117 36.6279 2.33209 32.2096 3.90808 27.8346C4.7188 25.5797 5.43075 23.7299 6.07392 22.0916L6.07406 22.0915Z" fill="#9E7C7C"/>
<defs>
<radialGradient id="paint0_radial_333_114" cx="0" cy="0" r="1" gradientUnits="userSpaceOnUse" gradientTransform="translate(36.9078 29.1081) rotate(72.3419) scale(22.4922 50.4775)">
<stop stop-color="white" stop-opacity="0.5"/>
<stop offset="1" stop-color="white" stop-opacity="0"/>
</radialGradient>
</defs>
</svg>
