<svg width="60" height="65" viewBox="0 0 60 65" fill="none" xmlns="http://www.w3.org/2000/svg">
<circle cx="34" cy="39" r="26" fill="#F4E0E0"/>
<circle cx="34" cy="39" r="26" fill="url(#paint0_radial_333_113)" fill-opacity="0.32"/>
<path d="M48.4062 39.0323C46.9066 33.2908 45.1217 30.717 43.1944 28.0111C41.7666 25.899 40.1958 23.7874 38.6964 19.8938C35.3408 11.3807 42.052 1.08518 42.1232 1.01918C42.3374 0.689114 42.1944 0.293213 41.9091 0.095275C41.552 -0.102675 41.1237 0.0294463 40.9096 0.293225C40.6242 0.755416 33.77 11.1822 37.3398 20.2898C38.2681 22.5998 39.1247 24.3155 40.053 25.7674C38.2681 27.0872 29.6295 33.0928 24.5601 33.0928C19.4908 33.0928 10.8522 27.1535 9.06734 25.8995C9.42442 25.3715 9.7815 24.7118 10.0668 24.0516C11.4235 24.4475 12.9224 24.7118 14.5649 24.9097L13.4224 25.7015C13.1371 25.8994 13.0654 26.3616 13.2795 26.6254C13.4224 26.8233 13.6366 26.8892 13.8507 26.8892C13.9937 26.8892 14.1361 26.8234 14.279 26.7571L16.9205 24.9751L17.0635 24.8429C17.0635 24.8429 17.0635 24.7771 17.1347 24.7771C17.1347 24.7771 17.1347 24.7113 17.2059 24.7113V24.6455V24.5796V24.4475V24.3817C17.2059 24.3159 17.1347 24.2496 17.063 24.1837C17.063 24.1179 16.9918 24.1179 16.92 24.0516L14.1356 22.138C13.8503 21.94 13.3502 22.0059 13.1361 22.2701C12.922 22.5339 12.9932 22.9961 13.279 23.194L13.9932 23.722C12.7795 23.5899 11.6371 23.3261 10.6376 23.0619C10.9947 22.3359 11.3518 21.4779 11.7083 20.6202C11.8513 20.3564 11.9225 20.0263 11.9937 19.7621C13.5644 20.158 15.3493 20.4881 17.2054 20.5539L16.2059 21.2141C15.9206 21.412 15.8489 21.8742 16.063 22.138C16.2059 22.3359 16.4201 22.4017 16.6342 22.4017C16.7772 22.4017 16.9196 22.3359 17.0625 22.2696L19.704 20.4876L19.847 20.3555C19.847 20.3555 19.847 20.2897 19.9182 20.2897C19.9182 20.2897 19.9182 20.2239 19.9894 20.2239V20.158V20.0922V19.9601V19.8943C19.9894 19.8284 19.9182 19.7621 19.9182 19.6963L19.7752 19.5642L16.9908 17.6506C16.7055 17.4526 16.2054 17.5184 15.9913 17.7827C15.7772 18.0465 15.8484 18.5086 16.1342 18.7066L17.0625 19.3667C15.3489 19.2346 13.7781 18.9708 12.3503 18.5749C14.2781 10.0618 8.42344 1.0862 8.13811 0.690233C7.92396 0.360163 7.49567 0.294333 7.1386 0.492284C6.78152 0.690234 6.7103 1.08613 6.92445 1.41619C6.99567 1.48202 12.6362 10.1936 10.9942 18.179C8.20982 17.1892 6.42494 15.8031 6.42494 14.2854C6.42494 12.9656 7.7098 11.9753 8.78099 11.3157C9.13807 11.1178 9.20928 10.7219 8.99513 10.3918C8.78099 10.0617 8.35269 9.9959 7.99562 10.1938C5.99655 11.3157 4.92588 12.7677 4.92588 14.2854C4.92588 16.4633 7.13901 18.3111 10.5659 19.4988C10.4946 19.7626 10.3517 20.0268 10.2805 20.3569C9.92341 21.2808 9.56634 22.0727 9.20977 22.8648C6.06824 21.8088 4.14044 20.2253 3.42686 18.707C3.28393 18.3769 2.85564 18.2448 2.49857 18.3769C2.14149 18.5091 1.99856 18.905 2.14149 19.235C3.06979 21.2808 5.42594 22.9306 8.6386 24.0526C7.71031 25.8345 6.78245 27.1543 5.85418 28.4742C3.99803 31.1801 2.21314 33.754 0.642443 39.4954C-9.11893e-07 41.8055 0 47.151 0 47.349C0 47.7449 0.285364 48.0091 0.714157 48.0091C1.07124 48.0091 1.42832 47.7453 1.42832 47.349C1.42832 47.2831 1.49953 42.0035 2.07076 39.8255C3.49854 34.282 5.21229 31.8399 7.06831 29.2003C7.49661 28.6064 7.85369 28.0784 8.28197 27.4845C10.424 29.0023 19.0626 34.8759 24.4887 34.8759C29.9863 34.8759 38.5536 29.0023 40.6955 27.4845C41.1238 28.0784 41.4809 28.6722 41.9091 29.2003C43.7653 31.8399 45.4789 34.282 46.9067 39.8255C47.4779 42.0034 47.5492 47.349 47.5492 47.349C47.5492 47.679 47.9062 48.0091 48.2633 48.0091C48.6916 48.0091 48.9775 47.679 48.9775 47.349C49.0482 46.6884 48.977 41.3428 48.4057 39.0329L48.4062 39.0323Z" fill="#9E7C7C"/>
<path d="M25.2741 21.8735C25.2741 22.2377 24.9543 22.5332 24.5599 22.5332C24.1655 22.5332 23.8457 22.2377 23.8457 21.8735C23.8457 21.5089 24.1655 21.2134 24.5599 21.2134C24.9543 21.2134 25.2741 21.5089 25.2741 21.8735Z" fill="#9E7C7C"/>
<path d="M27.7015 43.058C27.4156 43.1901 25.6308 44.2461 24.56 45.5659C23.4892 44.2461 21.7044 43.1901 21.4184 43.058C21.0614 42.86 20.6331 42.9922 20.4189 43.2559C20.2048 43.586 20.3477 43.9819 20.6331 44.1798C21.3472 44.5757 23.4175 45.9618 23.8457 47.0837C23.917 47.3475 24.2028 47.5459 24.4882 47.5459C24.7736 47.5459 25.0594 47.348 25.1306 47.0837C25.5589 45.9619 27.6297 44.5758 28.3433 44.1798C28.7004 43.9819 28.7716 43.586 28.5574 43.2559C28.4867 42.9922 28.0584 42.86 27.7014 43.058H27.7015Z" fill="#9E7C7C"/>
<defs>
<radialGradient id="paint0_radial_333_113" cx="0" cy="0" r="1" gradientUnits="userSpaceOnUse" gradientTransform="translate(33.9078 28.1081) rotate(72.3419) scale(22.4922 50.4775)">
<stop stop-color="white" stop-opacity="0.5"/>
<stop offset="1" stop-color="white" stop-opacity="0"/>
</radialGradient>
</defs>
</svg>
