<svg width="63" height="59" viewBox="0 0 63 59" fill="none" xmlns="http://www.w3.org/2000/svg">
<circle cx="37" cy="33" r="26" fill="#F4E0E0"/>
<circle cx="37" cy="33" r="26" fill="url(#paint0_radial_333_115)" fill-opacity="0.32"/>
<path d="M46.1568 37.6696C45.791 37.5747 45.4174 37.7947 45.3225 38.1605C45.228 38.5267 45.4476 38.9003 45.8138 38.9948C49.061 39.8372 49.9201 40.683 49.9201 41.0153C49.9201 42.3653 41.9063 44.8845 26.5872 44.8845C11.2686 44.8845 3.25429 42.3654 3.25429 41.0153C3.25429 40.6849 4.11221 39.8368 7.36054 38.9948C7.72676 38.9003 7.94633 38.5263 7.85141 38.1605C7.75649 37.7943 7.38294 37.5747 7.01713 37.6696C3.56506 38.5654 1.88721 39.6604 1.88721 41.0157C2.59765 48.0334 50.5605 48.042 51.2905 41.0157C51.2872 39.66 49.6093 38.565 46.1568 37.6696H46.1568Z" fill="#9E7C7C"/>
<path d="M11.4391 38.0117C16.569 41.2597 22.7186 41.911 28.6577 41.6809C44.482 41.0735 53.5131 29.7391 52.1762 11.7102H52.1758C52.1542 11.313 52.0022 10.9338 51.7436 10.6315C51.4849 10.3292 51.1337 10.1202 50.7447 10.0375C49.7055 9.82244 48.6541 9.67334 47.5965 9.59064C47.2197 9.5605 46.8898 9.84157 46.8596 10.2184C46.8295 10.5952 47.1105 10.9252 47.4874 10.9553C48.4866 11.0331 49.4802 11.1741 50.4619 11.3765C50.6574 11.4189 50.8 11.5875 50.8094 11.7872C51.4938 25.0586 47.6825 33.7831 38.3858 38.1287C50.5257 27.3841 46.4118 14.6623 41.8631 6.6198C41.6273 6.22995 41.2794 5.92036 40.8647 5.73134C40.4504 5.54273 39.988 5.48325 39.5391 5.56147C37.7275 5.88777 35.9453 6.36194 34.2107 6.97871C32.3727 4.58462 30.2361 2.4354 27.8529 0.583077C27.4594 0.280815 26.9771 0.116638 26.4814 0.116638C25.9852 0.116638 25.5029 0.280805 25.1094 0.583077C22.7259 2.4354 20.5888 4.58462 18.7504 6.97871C17.0149 6.36114 15.232 5.88694 13.4196 5.56063C12.9703 5.48201 12.5079 5.54149 12.0936 5.73132C11.6789 5.92115 11.3318 6.23197 11.0976 6.62304C6.55385 14.6592 2.43248 27.3926 14.5834 38.134C5.28897 33.7927 1.46951 25.0639 2.15258 11.7841C2.16317 11.5854 2.30575 11.4183 2.50047 11.3764C3.45696 11.1788 4.42443 11.0403 5.39805 10.9613C5.77486 10.9299 6.05472 10.5991 6.02295 10.2223C5.99158 9.84548 5.66079 9.56562 5.28399 9.59699C4.25376 9.68091 3.23008 9.82796 2.2182 10.0374C1.82916 10.1196 1.47801 10.3282 1.21934 10.6301C0.960657 10.9315 0.808305 11.3104 0.786312 11.7071C0.0559047 24.3236 3.64155 33.1733 11.4381 38.0111L11.4391 38.0117ZM39.7724 6.91159C40.1346 6.84927 40.4984 7.01384 40.6902 7.32711C41.309 8.37038 41.8696 9.44744 42.3694 10.5527C45.0223 16.4236 47.9951 27.6096 38.0966 36.5615V36.5611C36.9295 37.742 35.4951 38.6244 33.9149 39.1341C35.4144 37.9698 36.6052 36.4552 37.3824 34.7235C42.4924 23.2594 39.2726 14.1782 35.0556 8.13377V8.13336C36.5946 7.60785 38.1715 7.19927 39.7724 6.91165L39.7724 6.91159ZM25.9452 1.668C26.2613 1.4244 26.7021 1.4244 27.0182 1.668C31.1387 4.84298 43.9719 16.5704 36.1314 34.1655C35.1044 36.4346 33.2949 38.2575 31.0336 39.3016C32.1596 37.9211 32.9674 36.3095 33.4004 34.5818V34.5749C34.1361 31.8744 34.6168 29.1105 34.8356 26.3205C34.8478 26.2679 34.8523 26.2138 34.849 26.1596C35.1293 22.4436 34.8796 18.7068 34.1076 15.0604C34.0286 14.691 33.6648 14.4551 33.2953 14.5341C32.9254 14.6131 32.69 14.9769 32.769 15.3468C34.0567 21.6146 33.8163 28.0999 32.0691 34.2559C31.4015 36.7197 30.179 38.6115 28.7279 39.5753C28.7177 39.5818 28.708 39.5871 28.6982 39.594C28.235 39.9061 27.7132 40.1212 27.1645 40.2255V30.1273C27.1645 29.7492 26.8577 29.4429 26.4801 29.4429C26.102 29.4429 25.7957 29.7492 25.7957 30.1273V40.225C21.2418 39.4213 20.0404 31.4544 19.5753 27.2217C19.5284 26.8534 19.1968 26.589 18.8277 26.6261C18.4583 26.6636 18.1857 26.9882 18.2134 27.3585C18.4664 29.795 18.9166 32.207 19.5594 34.5709L19.5622 34.5823C19.9948 36.3092 20.8027 37.9199 21.9278 39.2992C19.6677 38.2555 17.859 36.433 16.8321 34.1652C8.99107 16.5701 21.8248 4.84319 25.9453 1.66769L25.9452 1.668ZM10.5933 10.5526C11.0923 9.44824 11.6524 8.37243 12.2704 7.32999C12.4603 7.01469 12.824 6.84767 13.1866 6.91C14.7892 7.19719 16.3673 7.60578 17.9079 8.13212C13.6917 14.1766 10.4711 23.2577 15.5811 34.7219C16.3584 36.4535 17.5491 37.9682 19.0486 39.132C17.4786 38.624 16.0521 37.749 14.8874 36.5798C4.96846 27.6292 7.93977 16.4308 10.5933 10.5532L10.5933 10.5526Z" fill="#9E7C7C"/>
<defs>
<radialGradient id="paint0_radial_333_115" cx="0" cy="0" r="1" gradientUnits="userSpaceOnUse" gradientTransform="translate(36.9078 22.1081) rotate(72.3419) scale(22.4922 50.4775)">
<stop stop-color="white" stop-opacity="0.5"/>
<stop offset="1" stop-color="white" stop-opacity="0"/>
</radialGradient>
</defs>
</svg>
