<svg width="30" height="30" viewBox="0 0 30 30" fill="none" xmlns="http://www.w3.org/2000/svg">
<circle cx="15" cy="15" r="14.5" transform="rotate(-180 15 15)" stroke="#CCA29D"/>
<path d="M15.75 20.25L15.75 15.7501L20.2498 15.7501L20.25 15.75C20.5179 15.75 20.7655 15.607 20.8994 15.375C21.0335 15.143 21.0335 14.8571 20.8994 14.625C20.7655 14.393 20.5179 14.25 20.25 14.25L15.75 14.25L15.75 9.74996C15.75 9.48215 15.607 9.23451 15.375 9.10057C15.143 8.96648 14.8571 8.96648 14.625 9.10057C14.393 9.23447 14.25 9.48214 14.25 9.74996L14.25 14.25L9.74996 14.25C9.48215 14.25 9.23451 14.393 9.10057 14.625C8.96648 14.857 8.96648 15.1429 9.10057 15.375C9.23447 15.607 9.48214 15.75 9.74996 15.75L14.2499 15.75L14.25 20.25C14.25 20.5179 14.393 20.7655 14.625 20.8994C14.857 21.0335 15.1429 21.0335 15.375 20.8994C15.607 20.7655 15.75 20.5179 15.75 20.25L15.75 20.25Z" fill="#CCA29D"/>
</svg>
