<svg width="108" height="108" viewBox="0 0 108 108" fill="none" xmlns="http://www.w3.org/2000/svg">
<circle cx="46.5" cy="61.5" r="32.5" fill="#F3E8E8"/>
<path d="M66.931 29.2539C66.7145 29.0684 66.6885 28.7419 66.874 28.5243C67.0595 28.3079 67.3861 28.2819 67.6036 28.4674C69.6035 30.1831 70.8061 32.5374 71.2933 35.0994C71.8129 37.8328 71.5151 40.8059 70.4975 43.4851C70.3456 43.8843 70.2539 44.1528 70.229 44.4013C70.2046 44.6449 70.2393 44.9144 70.3364 45.3321C70.8224 47.4021 71.7402 48.935 72.8599 50.3677C75.8759 44.1865 76.9592 39.0788 76.7535 34.9438C76.5539 30.927 75.1321 27.8297 73.0893 25.5638C71.0442 23.2958 68.3755 21.8529 65.6821 21.1483C62.9423 20.4317 60.1883 20.4783 58.0521 21.1976C56.5679 21.6967 56.5007 22.0362 56.3114 22.9709C56.248 23.2834 56.1753 23.6474 56.0548 24.0857C54.2962 30.5114 50.4275 36.2544 46.5582 41.9981C37.8551 54.9175 29.1513 67.8356 45.4657 88.1753C45.6447 88.3983 45.6094 88.7237 45.3865 88.9022C45.1635 89.0812 44.8381 89.046 44.6596 88.823C27.8693 67.8889 36.7843 54.6549 45.7006 41.4195C49.5243 35.7439 53.3474 30.0672 55.0595 23.8154C55.1707 23.4097 55.2412 23.0652 55.3003 22.7696C55.5764 21.4048 55.6762 20.9085 57.7251 20.219C60.0425 19.439 63.0091 19.3831 65.9421 20.1502C68.8181 20.902 71.6709 22.4458 73.8597 24.8733C76.05 27.3035 77.5744 30.6135 77.787 34.8972C78.0045 39.2911 76.8382 44.7101 73.5797 51.2515C73.8987 51.6274 74.2263 52.0017 74.5621 52.3858C74.9836 52.8653 75.4148 53.3579 75.813 53.8319C75.9594 54.0072 76.0734 54.1341 76.1824 54.2556C76.9668 55.1289 77.5797 55.8135 77.0069 57.1653C76.1954 59.0807 74.3548 59.0833 72.5849 59.0861C72.2751 59.0861 71.9681 59.0872 71.6605 59.1002C71.6009 59.1029 71.5618 59.1121 71.5385 59.1262C71.532 59.13 71.5244 59.143 71.5179 59.1626C71.4956 59.2222 71.4891 59.3036 71.4945 59.3996V59.405C71.5168 59.9014 71.8043 60.5458 71.9882 60.8452C72.2979 61.3508 72.5919 61.8992 72.74 62.4086C72.9255 63.0465 72.8865 63.6269 72.4303 64.0419C71.9052 64.5187 71.2472 64.8442 70.555 65.0335L70.568 65.0346C71.2651 65.1203 71.7603 65.3845 72.0972 65.749C72.3511 66.024 72.5079 66.3462 72.5887 66.6858C72.6652 67.0075 72.6728 67.3443 72.6326 67.6698C72.5431 68.401 72.1932 69.1073 71.8276 69.4452C71.4685 69.7772 71.0731 69.935 70.6885 70.088C70.2817 70.2502 69.8916 70.4053 69.749 70.8062C69.5065 71.4864 69.7229 72.4379 69.9448 73.41C70.1016 74.101 70.2611 74.8008 70.2833 75.4875C70.3169 76.5632 69.883 77.5005 69.2038 78.2535C68.4341 79.1089 67.3416 79.7246 66.2839 80.0224C65.8575 80.1428 65.4127 80.2274 64.9544 80.28C64.5904 80.3229 64.2128 80.3446 63.8228 80.3489L64.9956 84.5106C65.0032 84.5377 65.0086 84.5649 65.0113 84.5925C65.1073 85.4067 64.6446 86.1027 63.9199 86.6158C63.6346 86.8181 63.308 86.9917 62.9619 87.1306C65.4257 92.8165 70.7797 91.3248 76.4889 89.7332C80.4705 88.6223 84.6154 87.4675 88.2508 88.484C88.5258 88.5604 88.6875 88.8442 88.611 89.1203C88.5345 89.3953 88.2508 89.5569 87.9747 89.4804C84.6137 88.5409 80.6105 89.6567 76.7634 90.7297C70.554 92.4612 64.7319 94.0826 61.9603 87.4262C61.5068 87.5141 61.0468 87.5439 60.6226 87.5054C59.7661 87.4262 59.0452 87.066 58.7382 86.344C58.729 86.3234 58.7225 86.3028 58.7159 86.2816L53.8752 69.1039C53.8725 69.0919 53.8698 69.0816 53.8676 69.0702C53.4271 68.6373 53.0897 68.0878 52.9113 67.4516C52.6362 66.4784 52.7827 65.4852 53.2416 64.6661C53.7005 63.8481 54.4703 63.2052 55.445 62.9308C56.4182 62.6558 57.4114 62.8022 58.2305 63.2611C59.0485 63.7201 59.6914 64.4898 59.9658 65.4645C60.1215 66.0178 60.1421 66.5765 60.0461 67.1065C60.0889 67.1596 60.1215 67.222 60.1405 67.2904L63.5297 79.318C63.9728 79.3234 64.4084 79.3039 64.8348 79.2546C65.2416 79.2079 65.6316 79.1325 66.0027 79.0289C66.888 78.7799 67.7966 78.2695 68.4328 77.5632C68.9449 76.9952 69.2726 76.3009 69.2481 75.5231C69.2302 74.9372 69.0811 74.2841 68.9346 73.6398C68.6791 72.5202 68.4307 71.4233 68.7713 70.466C69.0708 69.6246 69.6761 69.3838 70.3059 69.1321C70.6027 69.0144 70.9086 68.8923 71.125 68.6916C71.3339 68.4985 71.5411 68.0461 71.6018 67.5487C71.6279 67.336 71.6241 67.1223 71.5774 66.9254C71.5362 66.748 71.4597 66.5848 71.3377 66.4535C71.1614 66.2631 70.8739 66.1204 70.4394 66.0673C70.1231 66.0282 69.7369 65.9544 69.2623 65.7939C68.8126 65.642 68.2826 65.4104 67.6604 65.054C67.4413 64.9504 67.3198 64.7041 67.3805 64.4605C67.4505 64.1833 67.7304 64.0147 68.0076 64.0835C68.6168 64.2365 69.3545 64.2457 70.063 64.0901C70.69 63.9528 71.2851 63.687 71.7348 63.2802C71.8384 63.1858 71.8226 62.9694 71.7451 62.6998C71.6295 62.3005 71.3746 61.8313 71.1023 61.3881C70.8652 61.0019 70.4942 60.1541 70.4595 59.4636L70.4584 59.4495C70.4492 59.2254 70.4725 59.009 70.5425 58.8159C70.6282 58.5816 70.773 58.3868 70.9976 58.2496C71.1646 58.1471 71.3697 58.0852 71.6171 58.0733C71.923 58.0603 72.2506 58.0592 72.5826 58.0592C74.0174 58.0565 75.5091 58.0554 76.0537 56.7709C76.371 56.0207 75.9501 55.5515 75.412 54.951C75.2731 54.797 75.1294 54.6359 75.0182 54.5024C74.5788 53.9773 74.1768 53.5201 73.7841 53.0714C73.3691 52.5995 72.965 52.1384 72.5777 51.673C72.5712 51.6654 72.5636 51.6573 72.5571 51.6486C71.1315 49.935 69.9338 48.1607 69.3273 45.5764C69.2031 45.0475 69.1614 44.6819 69.1988 44.3087C69.2362 43.9393 69.3463 43.6073 69.528 43.1294C70.4795 40.6227 70.7594 37.8465 70.2745 35.2986C69.8297 32.959 68.7387 30.8153 66.9292 29.2628L66.931 29.2539ZM52.743 52.1016L52.1197 52.2768L51.9445 51.6536L52.5677 51.4784L52.743 52.1016ZM55.191 60.8372L54.5678 61.0124L54.3926 60.3891L55.0158 60.2139L55.191 60.8372ZM54.8412 59.589L54.2179 59.7642L54.0427 59.1409L54.666 58.9657L54.8412 59.589ZM54.4913 58.3408L53.868 58.516L53.6928 57.8928L54.3161 57.7175L54.4913 58.3408ZM54.1414 57.0926L53.5181 57.2679L53.3429 56.6446L53.9662 56.4694L54.1414 57.0926ZM53.7915 55.8445L53.1683 56.0197L52.9931 55.3964L53.6163 55.2212L53.7915 55.8445ZM53.4417 54.5963L52.8184 54.7715L52.6432 54.1482L53.2665 53.973L53.4417 54.5963ZM53.0918 53.3481L52.4685 53.5233L52.2933 52.9001L52.9166 52.7249L53.0918 53.3481ZM51.4459 57.2028L50.8238 57.3867L50.6399 56.7645L51.2621 56.5806L51.4459 57.2028ZM52.9143 62.1743L52.2921 62.3582L52.1082 61.736L52.7304 61.5522L52.9143 62.1743ZM52.5476 60.9316L51.9254 61.1155L51.7416 60.4933L52.3637 60.3094L52.5476 60.9316ZM52.1809 59.6889L51.5587 59.8727L51.3749 59.2505L51.9971 59.0667L52.1809 59.6889ZM51.8142 58.4461L51.1921 58.63L51.0082 58.0078L51.6304 57.8239L51.8142 58.4461ZM56.3855 55.7285L55.7633 55.9124L55.5794 55.2902L56.2016 55.1063L56.3855 55.7285ZM57.8538 60.7001L57.2316 60.8839L57.0477 60.2617L57.6699 60.0779L57.8538 60.7001ZM57.4871 59.4573L56.8649 59.6412L56.6811 59.019L57.3032 58.8351L57.4871 59.4573ZM57.1204 58.2146L56.4983 58.3984L56.3144 57.7763L56.9366 57.5924L57.1204 58.2146ZM56.7538 56.9718L56.1316 57.1557L55.9477 56.5335L56.5699 56.3496L56.7538 56.9718ZM55.1779 69.8875L59.7062 85.9544C59.8537 86.2603 60.2427 86.4209 60.7211 86.4648C61.1372 86.5039 61.6129 86.4518 62.0767 86.326C62.5405 86.2017 62.9815 86.007 63.3276 85.7623C63.7409 85.4694 64.0143 85.1103 63.9888 84.7344L59.4318 68.5662C58.9636 69.2258 58.2758 69.7379 57.4356 69.9739C56.6631 70.1914 55.8787 70.1448 55.179 69.8871L55.1779 69.8875ZM57.7258 64.1539C57.1389 63.8246 56.4256 63.7199 55.7274 63.9168C55.0287 64.1137 54.4765 64.5753 54.1472 65.1623C53.818 65.7492 53.7133 66.4625 53.9102 67.1607C54.1071 67.8594 54.5687 68.4116 55.1557 68.7409C55.7426 69.0701 56.4559 69.1748 57.1541 68.9779C57.8527 68.781 58.405 68.3194 58.7342 67.7324C59.0635 67.1455 59.1682 66.4322 58.9713 65.734C58.7744 65.0354 58.3128 64.4831 57.7258 64.1539ZM40.6258 36.7277C40.7565 36.4739 41.069 36.374 41.3218 36.5048C41.5756 36.6355 41.6754 36.9479 41.5447 37.2018C39.8365 40.4913 37.9831 43.3325 36.2374 46.0101C31.1449 53.8191 26.9653 60.2287 30.1679 72.4031C30.2406 72.6792 30.0757 72.9618 29.7996 73.0356C29.5235 73.1083 29.2409 72.9434 29.1671 72.6673C25.8479 60.05 30.1403 53.4662 35.37 45.448C37.1015 42.7922 38.9382 39.9774 40.6258 36.7293L40.6258 36.7277Z" fill="#744444" stroke="#744444" stroke-width="0.7"/>
</svg>
