<svg width="110" height="110" viewBox="0 0 110 110" fill="none" xmlns="http://www.w3.org/2000/svg">
<path d="M65.285 33.9947C65.285 34.953 64.5079 35.7307 63.549 35.7307C62.5902 35.7307 61.8131 34.953 61.8131 33.9947C61.8131 33.0359 62.5902 32.2588 63.549 32.2588C64.5079 32.2588 65.285 33.0359 65.285 33.9947Z" fill="#744444"/>
<path d="M60.4638 31.7619C60.9574 31.196 61.608 30.789 62.3331 30.5932C63.0058 30.4133 63.7093 30.3802 64.3956 30.4956C65.0407 30.5969 65.665 30.8025 66.2445 31.1039C66.3261 31.1499 66.3317 31.1573 66.3986 31.199C66.5557 31.2488 66.7221 31.2641 66.886 31.2438L67.0879 31.2371V31.2365C67.2764 31.2303 67.4587 31.2997 67.5962 31.4286C67.7331 31.5575 67.8135 31.7361 67.819 31.924C67.8215 32.024 67.8037 32.1235 67.7656 32.2162C67.5894 32.6164 67.2518 32.9221 66.8363 33.0571C66.3599 33.2081 65.8443 33.1774 65.3888 32.9712C64.9763 32.8061 64.543 32.6968 64.101 32.6465C63.7002 32.5955 63.2938 32.6158 62.9003 32.7072C62.5578 32.7864 62.2392 32.9472 61.9716 33.1762L61.8924 33.2394C61.4774 33.5783 60.8716 33.5427 60.499 33.1572C60.1264 32.7717 60.111 32.1658 60.464 31.7619L60.4638 31.7619Z" fill="#744444"/>
<path d="M59.7614 26.9423C61.3255 26.5377 62.9497 26.4211 64.5555 26.5985C66.162 26.7925 67.7088 27.3259 69.093 28.1638C69.4724 28.3842 69.6037 28.8691 69.3864 29.2509C69.1698 29.6327 68.6861 29.7684 68.3024 29.5554C67.0895 28.901 65.7507 28.5143 64.3757 28.4204C63.0007 28.3418 61.6232 28.5137 60.3097 28.9274H60.3035C60.0414 29.0066 59.7584 28.9777 59.5178 28.8482C59.2766 28.7187 59.0967 28.4989 59.0181 28.2368C58.8536 27.6911 59.163 27.116 59.7087 26.9515L59.7614 26.9423Z" fill="#744444"/>
<path d="M48.1863 33.9947C48.1863 34.953 47.4092 35.7307 46.4503 35.7307C45.4915 35.7307 44.7144 34.953 44.7144 33.9947C44.7144 33.0359 45.4915 32.2588 46.4503 32.2588C47.4091 32.2588 48.1863 33.0359 48.1863 33.9947Z" fill="#744444"/>
<path d="M48.0323 33.1761C47.7647 32.9472 47.4461 32.7863 47.1035 32.7071C46.7101 32.6157 46.3037 32.5954 45.9029 32.6464C45.4609 32.6967 45.0275 32.806 44.6144 32.9711C44.159 33.1773 43.6439 33.208 43.1676 33.057C42.752 32.922 42.4138 32.6157 42.2376 32.2161C42.1474 31.9945 42.1744 31.7422 42.3107 31.5451C42.4463 31.3481 42.6729 31.2333 42.9122 31.2401L43.1185 31.2468C43.2824 31.2671 43.4487 31.2517 43.6059 31.202C43.6746 31.1609 43.6783 31.1529 43.76 31.1069V31.1075C44.3394 30.8055 44.9637 30.5998 45.6089 30.4985C46.2939 30.3838 46.9962 30.4169 47.6678 30.5961C48.3927 30.792 49.0434 31.1989 49.537 31.7649C49.8752 32.1694 49.8537 32.7642 49.4873 33.143C49.1208 33.5223 48.5278 33.5641 48.1123 33.24L48.0323 33.1761Z" fill="#744444"/>
<path d="M56.1786 38.8633C55.8815 38.8633 55.5997 38.991 55.4039 39.2144C55.2689 39.2518 55.1307 39.2752 54.9914 39.2832C54.8496 39.2758 54.7096 39.2525 54.5734 39.2144C54.2898 38.8915 53.8362 38.7786 53.4347 38.9296C53.0326 39.0812 52.7668 39.4655 52.7668 39.8945C52.7668 41.3291 54.9668 41.3463 54.9907 41.3463C55.0147 41.3463 57.2072 41.3291 57.2072 39.8945C57.2072 39.3261 56.7469 38.8645 56.1784 38.8633H56.1786Z" fill="#744444"/>
<path d="M59.0668 44.8784C59.0104 44.7102 58.8894 44.5709 58.7298 44.4917C58.5709 44.4125 58.3867 44.4002 58.2185 44.4573L58.1608 44.4763C57.9902 44.5359 57.806 44.542 57.6317 44.4941C57.4254 44.4536 57.1504 44.3524 56.7698 44.2719V44.2725C56.3193 44.1725 55.8503 44.1927 55.4102 44.3309C55.2653 44.3794 55.1248 44.4395 54.9897 44.5107C54.8547 44.4401 54.7141 44.3793 54.5692 44.3309C54.1291 44.194 53.6614 44.1749 53.212 44.275C52.8321 44.3554 52.5571 44.4567 52.349 44.4972C52.1753 44.5445 51.9911 44.5383 51.8205 44.4794L51.7628 44.4598V44.4592C51.4448 44.353 51.0974 44.4978 50.9488 44.798C50.8009 45.0982 50.8966 45.4622 51.1741 45.65C51.5522 45.8906 51.9917 46.0165 52.4398 46.0128C52.8523 46.0128 53.1807 45.9575 53.4171 45.9624V45.9631C53.5834 45.9514 53.7485 45.9944 53.8879 46.0858C53.9002 46.0938 53.9149 46.1098 53.9272 46.1202C54.0776 46.5806 54.5066 46.8918 54.9909 46.8918C55.4753 46.8918 55.9043 46.5806 56.0547 46.1202C56.0676 46.1098 56.083 46.0938 56.0952 46.0852C56.2346 45.9938 56.4003 45.9508 56.5661 45.9618C56.8018 45.9569 57.1308 46.014 57.5439 46.0122C57.992 46.0158 58.4309 45.8894 58.809 45.6494C59.0582 45.4794 59.1638 45.1645 59.0668 44.8784L59.0668 44.8784Z" fill="#744444"/>
<path d="M55.66 49.9624H54.3402C53.7706 49.9624 53.309 49.5002 53.309 48.9312C53.309 48.3615 53.7706 47.8999 54.3402 47.8999H55.66C56.2296 47.8999 56.6912 48.3615 56.6912 48.9312C56.6912 49.5002 56.2296 49.9624 55.66 49.9624Z" fill="#744444"/>
<path d="M86.5354 83.9648C86.0321 80.744 84.738 77.6987 82.7701 75.0997V75.0936C83.3711 71.0104 82.6148 66.5508 82.0004 62.9248C81.7874 61.6701 81.5879 60.4848 81.4639 59.459C80.9311 53.9896 80.7193 48.494 80.8291 42.9998C80.8353 34.7498 80.8408 26.9571 78.6782 20.2377C75.159 9.31312 64.3347 0.549259 54.9999 1.07097C45.6628 0.549825 34.8416 9.31359 31.3232 20.2408C28.7794 28.147 28.7671 38.2305 28.7561 47.9813C28.7438 58.9677 28.7309 70.3254 25.127 78.5707V78.5805C24.3002 80.2795 23.7398 82.0959 23.466 83.9658C23.3697 84.6502 23.5753 85.3426 24.0289 85.8638C24.4875 86.391 25.151 86.6937 25.8496 86.6943H84.1496C84.8493 86.6943 85.5148 86.391 85.9732 85.8631C86.4269 85.342 86.6313 84.6496 86.5343 83.9658L86.5354 83.9648ZM49.0537 84.6314H25.85C25.7475 84.632 25.6499 84.5878 25.583 84.5099C25.5197 84.4405 25.4915 84.346 25.5056 84.2533C25.9421 81.1595 27.6245 76.4845 33.156 71.7788C34.7452 70.5309 36.4198 69.3959 38.1674 68.3819C37.7414 70.3523 37.521 72.362 37.51 74.3778C37.5112 74.9069 37.7611 75.4035 38.1852 75.7197C39.4915 76.7294 42.716 76.3317 44.4881 76.0112V76.0106C44.159 77.0756 44.1646 78.2155 44.504 79.2762C44.8748 80.7095 46.7475 82.5485 49.0531 84.6288L49.0537 84.6314ZM55.1977 84.6314H52.1205C51.8651 84.3834 51.5018 84.055 50.9702 83.5793C49.6087 82.3614 46.7763 79.8269 46.5013 78.7619L46.502 78.7625C46.1521 77.8461 46.2497 76.8185 46.7653 75.9843C47.0237 75.5724 47.0716 75.0623 46.8948 74.6093C46.6149 73.9432 45.8881 73.5841 45.1895 73.7664C43.5566 74.1832 41.8724 74.357 40.1892 74.2833C39.8332 74.2422 39.5705 73.9322 39.5883 73.5743C39.6865 70.8305 40.2874 66.5207 42.0743 64.511C42.841 63.8333 43.7335 63.3127 44.7022 62.9806C44.7814 62.9475 44.8722 62.9837 44.9084 63.0617C45.3209 63.8983 51.9934 77.3439 55.1994 84.6327L55.1977 84.6314ZM50.239 26.9411C49.6098 26.7852 48.9702 26.6723 48.3257 26.6029C49.7823 24.5183 51.0812 22.3288 52.2113 20.0508C53.6625 17.2787 55.0302 14.6601 56.3363 14.4606C56.925 14.3704 57.6358 14.8044 58.5473 15.6625C58.7376 15.851 58.993 15.9584 59.2606 15.9615C59.4749 15.9547 59.6842 15.8921 59.8665 15.7791C60.5417 15.3507 61.4017 15.3415 62.0861 15.7558C65.4402 17.3088 69.8457 24.4343 70.4964 31.2933C71.4116 40.9367 68.3032 47.9897 64.8154 50.7005C61.9119 52.96 57.0964 55.4866 55.0001 55.4866C52.9038 55.4866 48.0883 52.96 45.1835 50.7011C42.5772 48.6743 39.4626 43.1054 38.8824 33.9701C38.8658 33.6405 39.0825 33.3446 39.4011 33.2599C42.3089 32.4165 44.9036 30.7333 46.8593 28.4222C47.8193 28.4787 48.7689 28.6494 49.6885 28.9287H49.6983L49.7449 28.9416V28.9422C50.298 29.0784 50.8572 28.7408 50.9935 28.1878C51.1304 27.6341 50.7922 27.0749 50.2391 26.9386L50.239 26.9411ZM50.247 56.1603C51.7239 56.9331 53.3396 57.4051 55 57.5494C56.4971 57.4327 57.9586 57.0301 59.3036 56.3622C59.0612 59.9212 59.8659 63.7811 60.6602 67.5377C59.0225 70.9752 57.073 75.0622 55.0111 79.1885C52.46 73.6424 47.359 63.3689 47.0128 62.6665V62.6659C48.7089 60.8636 49.8328 58.5992 50.244 56.1586L50.247 56.1603ZM61.2434 81.3786L61.244 81.3779C60.6959 82.3724 60.5731 83.546 60.9046 84.6319H57.4506C57.0067 83.6141 56.5599 82.6055 56.1093 81.6069C57.9754 77.9153 59.7648 74.2096 61.3466 70.8984C62.0893 74.8116 62.4619 78.4438 61.2441 81.3779L61.2434 81.3786ZM64.0959 84.6331L64.0965 84.6325C63.6392 84.6479 63.2015 84.4465 62.9161 84.0893C62.6761 83.702 62.7485 83.0458 63.134 82.2036C64.9479 77.8342 63.8024 72.4189 62.6938 67.1823C61.8277 63.0849 60.9488 58.8635 61.5079 55.2762C63.1064 54.4144 64.636 53.4304 66.0822 52.3317C69.726 49.4976 73.6066 42.2377 72.5495 31.1001C71.886 24.1085 67.3123 15.9063 62.9522 13.8851V13.8857C61.8651 13.3093 60.5815 13.2344 59.4342 13.6794C58.2526 12.6691 57.1318 12.2535 56.0257 12.4248C53.6882 12.782 52.231 15.5695 50.3833 19.0978C47.7807 24.0717 44.5395 30.2353 37.9052 31.4999H37.9015L37.9021 31.4992C36.5977 31.0247 35.1619 31.0646 33.8863 31.611C31.4113 32.8657 30.9638 36.0306 31.7956 38.3736C32.6997 40.9174 35.1293 43.1616 37.8652 43.1616C38.0401 43.1573 38.2139 43.1438 38.387 43.1211C39.8068 47.7272 41.9252 50.7854 43.9159 52.3336C45.3093 53.3912 46.7801 54.3433 48.3159 55.1818C48.055 57.3548 47.1447 59.3989 45.7034 61.0457C45.127 60.8137 44.4837 60.8094 43.9043 61.0341C42.5882 61.3698 41.409 62.1052 40.5293 63.1401C39.948 63.8184 39.4747 64.5826 39.1248 65.4045C36.5731 66.8231 34.13 68.4289 31.8158 70.209C30.8539 71.026 29.943 71.9014 29.0886 72.8302C30.7827 65.3124 30.8074 56.5423 30.8153 47.9843C30.8263 38.3925 30.8374 28.4734 33.2835 20.874C36.5559 10.7248 46.4945 2.57316 55.0007 3.1373C63.5103 2.57503 73.4461 10.722 76.7131 20.8756C78.7756 27.2859 78.7707 34.9202 78.7646 43.0029C78.6529 48.5796 78.8702 54.1581 79.414 59.7087C79.5411 60.786 79.7461 61.9959 79.964 63.277C80.9308 68.9753 82.1345 76.0645 78.3263 80.4433C75.7303 83.4235 70.9437 84.8272 64.0968 84.6314L64.0959 84.6331ZM35.9154 37.3316C36.3727 37.3475 36.8165 37.4881 37.2002 37.7373C37.3733 38.9239 37.5863 40.0429 37.8398 41.0937C35.9448 41.0765 34.3016 39.2651 33.74 37.6839C33.2796 36.3875 33.3103 34.217 34.8203 33.4503V33.4497C35.4464 33.2152 36.1272 33.1649 36.7815 33.3048C36.8146 34.0255 36.8637 34.724 36.9257 35.4053C36.6151 35.3298 36.2977 35.2838 35.9786 35.2678C35.7042 35.2562 35.4372 35.3556 35.237 35.5435C35.0369 35.7313 34.9215 35.9922 34.916 36.2666C34.9074 36.5403 35.0075 36.8067 35.1947 37.0062C35.3825 37.2063 35.6416 37.323 35.9153 37.3316L35.9154 37.3316ZM84.4144 84.5137C84.3481 84.5923 84.2505 84.6371 84.148 84.6359H76.1798C77.5861 83.9391 78.8432 82.9761 79.8813 81.7986C80.8745 80.6403 81.6301 79.2985 82.1052 77.8485C83.3261 79.8018 84.1383 81.9828 84.4918 84.2589C84.5047 84.3503 84.4765 84.4424 84.4145 84.5112L84.4144 84.5137Z" fill="#744444"/>
<path d="M41.5328 84.0904H33.025C32.3872 84.0904 31.7752 83.8369 31.3241 83.3851C30.8723 82.9339 30.6187 82.3219 30.6187 81.6842V80.6094C30.6187 79.971 30.8723 79.359 31.3241 78.9078C31.7752 78.4566 32.3872 78.2031 33.025 78.2031H41.5328C42.1712 78.2031 42.7832 78.4566 43.2344 78.9078C43.6855 79.359 43.9391 79.971 43.9391 80.6094V81.6842C43.9391 82.322 43.6855 82.934 43.2344 83.3851C42.7832 83.8369 42.1712 84.0904 41.5328 84.0904ZM33.025 80.2655C32.8353 80.2655 32.6812 80.4196 32.6812 80.6093V81.6841C32.6812 81.775 32.7174 81.8627 32.7819 81.9272C32.8463 81.9917 32.9341 82.0279 33.025 82.0279H41.5328C41.6243 82.0279 41.7115 81.9917 41.7759 81.9272C41.8404 81.8628 41.8766 81.775 41.8766 81.6841V80.6093C41.8766 80.5178 41.8404 80.4307 41.7759 80.3662C41.7115 80.3018 41.6243 80.2655 41.5328 80.2655L33.025 80.2655Z" fill="#744444"/>
</svg>
