<svg width="84" height="85" viewBox="0 0 84 85" fill="none" xmlns="http://www.w3.org/2000/svg">
<g clip-path="url(#clip0_68_77)">
<path d="M20.4454 4.47852C37.3381 3.90678 52.7503 15.6648 61.5184 29.3417C65.84 36.082 68.4603 44.493 65.1386 52.1886C63.7015 55.5191 61.2262 58.4605 57.8424 59.9359C55.7849 60.8351 53.1226 61.3067 51.2739 59.7053C48.4619 57.2726 51.0934 54.0037 54.1888 54.0549C59.9454 54.1545 60.9454 62.6262 60.8752 66.8178C60.7976 71.7326 59.4424 76.4996 57.7651 81.0827C57.2872 82.3901 59.4003 82.9381 59.8712 81.6348C61.8472 76.1359 63.347 70.3016 62.8998 64.4073C62.5753 60.1298 61.2657 54.9918 57.143 52.8061C54.1296 51.2093 49.5771 52.2556 48.2308 55.5982C46.8152 59.1156 50.0364 62.3865 53.4022 62.8184C62.7797 64.0133 68.5957 52.855 68.7647 45.0581C68.9936 34.2071 61.2959 24.2489 53.7426 17.1704C44.738 8.72318 33.0297 2.76585 20.4305 3.50397C19.8098 3.54011 19.8111 4.49939 20.4454 4.47852Z" fill="#E2C5C5"/>
<path d="M54.0778 72.012C56.3443 71.84 56.6597 79.0447 56.8075 80.2295C56.935 81.2452 57.0537 82.4517 58.2943 82.7183C59.6188 83.0012 60.8686 81.4167 61.6989 80.6929C63.7489 78.903 65.8617 77.1647 67.8285 75.2887C68.7917 74.3717 67.3825 73.0667 66.393 73.8599C64.6669 75.2435 63.036 76.7574 61.3781 78.2173C61.0109 78.5421 59.3207 80.4614 58.805 80.2093C58.6898 80.1557 58.6588 78.3232 58.6432 78.2256C58.3045 75.8856 57.3218 71.6753 54.8707 70.6235C54.5482 70.4863 54.2503 70.5018 53.9833 70.7359C53.8747 70.8361 53.7621 70.9294 53.6536 71.0295C53.2864 71.3543 53.5728 72.055 54.0763 72.0174L54.0778 72.012Z" fill="#E2C5C5"/>
<path d="M20.1024 2.28942C19.1704 2.03346 18.3612 3.1253 18.9002 3.939C18.9965 4.08704 19.1744 4.21553 19.3607 4.20003C20.223 4.11615 20.9472 3.66275 21.2835 2.85043C21.3753 2.63475 21.4032 2.32632 21.1899 2.15348C19.8857 1.09826 18.3274 2.37969 17.6674 3.57496C17.3402 4.17331 17.1604 4.90389 17.5913 5.50215C18.0956 6.2015 19.0031 6.14701 19.7055 5.79901C20.9884 5.16461 22.4299 3.43158 21.3166 2.02881C20.2223 0.666073 18.2502 1.84488 17.693 3.09633C17.1047 4.4215 17.7049 5.98801 19.1958 6.30862C20.5328 6.58888 21.9923 5.66164 21.744 4.18737C21.4857 2.61692 19.5623 1.86134 18.4035 3.03114C17.9244 3.51368 17.6661 4.25288 17.8315 4.92191C18.0288 5.71623 18.7777 6.22241 19.5645 5.8439C20.0354 5.61651 20.4627 5.21977 20.8848 4.90943C21.2432 4.64083 21.6059 4.35581 21.7524 3.90889C21.9814 3.21462 21.6148 2.52797 20.9968 2.17301C20.3376 1.79558 19.5283 1.81151 18.9118 2.25802C18.1118 2.84359 17.8563 3.84082 17.6967 4.76378C17.6338 5.11568 17.8029 5.5693 18.2089 5.63477C19.8452 5.89408 21.539 4.83529 21.7617 3.13364C21.808 2.77741 21.6707 2.31458 21.2414 2.24881C19.6656 2.00536 18.4655 3.57948 19.1386 5.02476C19.5339 5.87097 20.7847 5.13461 20.3935 4.29532C20.2816 4.04964 20.5976 3.60622 20.8742 3.64949L20.3539 2.76466C20.2459 3.62514 19.5034 4.39532 18.5703 4.25599C18.741 4.54632 18.9117 4.83665 19.0824 5.12698C19.1675 4.62303 19.3398 3.1362 20.1345 3.3328C20.4479 3.41496 20.3965 3.45411 20.2514 3.62658C19.982 3.95943 19.4164 4.27895 19.0652 4.52019C18.9487 4.58323 18.9803 4.59735 19.1653 4.56399C19.151 4.48422 19.1586 4.41021 19.1883 4.34196C19.2932 4.1882 19.3143 4.01829 19.4974 3.90257C19.8206 3.70077 20.1785 3.88229 20.3337 4.20949C20.6455 4.8584 19.8998 5.12489 19.3927 4.97443C18.6987 4.77497 18.6819 3.98703 19.0099 3.45319C19.1949 3.15085 19.5095 2.84739 19.8727 2.7847C20.3587 2.70159 20.4455 3.11027 20.2928 3.49124C20.14 3.8722 19.7078 4.22085 19.3843 4.44597C19.1053 4.63597 18.4802 4.98083 18.7013 4.38388C18.8985 3.8333 19.8418 2.56611 20.4957 3.05326C20.4056 2.83667 20.314 2.62556 20.2238 2.40897C20.058 2.8625 19.6697 3.08819 19.2085 3.16612L19.8043 3.40414C19.7101 3.31513 19.7273 3.24947 19.8588 3.19623C20.4558 3.31762 20.6908 2.44364 20.0983 2.28251L20.1024 2.28942Z" fill="#E2C5C5"/>
</g>
<defs>
<clipPath id="clip0_68_77">
<rect width="67" height="69" fill="white" transform="translate(18.2379 0.882751) rotate(14.6872)"/>
</clipPath>
</defs>
</svg>
