<svg width="15" height="13" viewBox="0 0 15 13" fill="none" xmlns="http://www.w3.org/2000/svg">
<path d="M0 6.01C0.00799774 6.18257 0.0615461 6.31839 0.132484 6.40367L4.61894 11.8441C4.82532 12.0822 5.13426 12.0726 5.32396 11.8665C5.51364 11.6604 5.52286 11.2745 5.34343 11.0568L1.65933 6.58271H14.4569C14.7321 6.58271 14.9553 6.32625 14.9553 6.01008C14.9553 5.69371 14.7321 5.43746 14.4569 5.43746H1.65933L5.34343 0.963401C5.52285 0.745491 5.50721 0.367201 5.32396 0.153673C5.13428 -0.0672326 4.79854 -0.0418659 4.61894 0.176044L0.132484 5.6165C0.0140822 5.75551 0.0078246 5.87358 0 6.01Z" fill="#CCA29D"/>
</svg>
