<svg width="15" height="13" viewBox="0 0 15 13" fill="none" xmlns="http://www.w3.org/2000/svg">
<path d="M15 6.01006C14.992 6.18263 14.9385 6.31845 14.8675 6.40374L10.3811 11.8442C10.1747 12.0823 9.86574 12.0727 9.67604 11.8666C9.48636 11.6604 9.47714 11.2746 9.65657 11.0568L13.3407 6.58277H0.543135C0.267912 6.58277 0.0446835 6.32632 0.0446835 6.01015C0.0446835 5.69377 0.26792 5.43752 0.543135 5.43752H13.3407L9.65657 0.963462C9.47715 0.745552 9.49279 0.367262 9.67604 0.153734C9.86572 -0.0671715 10.2015 -0.0418049 10.3811 0.176105L14.8675 5.61656C14.9859 5.75558 14.9922 5.87364 15 6.01006Z" fill="white"/>
</svg>
