<svg width="15" height="13" viewBox="0 0 15 13" fill="none" xmlns="http://www.w3.org/2000/svg">
<path d="M14.9996 6.01C14.9916 6.18257 14.9381 6.31839 14.8671 6.40367L10.3807 11.8441C10.1743 12.0822 9.86537 12.0726 9.67567 11.8665C9.48599 11.6604 9.47677 11.2745 9.6562 11.0568L13.3403 6.58271H0.542768C0.267546 6.58271 0.0443172 6.32625 0.0443172 6.01008C0.0443172 5.69371 0.267554 5.43746 0.542768 5.43746H13.3403L9.6562 0.963401C9.47678 0.745491 9.49242 0.367201 9.67567 0.153673C9.86536 -0.0672326 10.2011 -0.0418659 10.3807 0.176044L14.8671 5.6165C14.9856 5.75551 14.9918 5.87358 14.9996 6.01Z" fill="#CCA29D"/>
</svg>
