<svg width="15" height="13" viewBox="0 0 15 13" fill="none" xmlns="http://www.w3.org/2000/svg">
<path d="M0 6.01006C0.00799774 6.18263 0.0615461 6.31845 0.132484 6.40374L4.61894 11.8442C4.82532 12.0823 5.13426 12.0727 5.32396 11.8666C5.51364 11.6604 5.52286 11.2746 5.34343 11.0568L1.65933 6.58277H14.4569C14.7321 6.58277 14.9553 6.32632 14.9553 6.01015C14.9553 5.69377 14.7321 5.43752 14.4569 5.43752H1.65933L5.34343 0.963462C5.52285 0.745552 5.50721 0.367262 5.32396 0.153734C5.13428 -0.0671715 4.79854 -0.0418049 4.61894 0.176105L0.132484 5.61656C0.0140822 5.75558 0.0078246 5.87364 0 6.01006Z" fill="white"/>
</svg>
