<svg width="51" height="50" viewBox="0 0 51 50" fill="none" xmlns="http://www.w3.org/2000/svg">
<g filter="url(#filter0_i_119_8)">
<ellipse rx="24.5" ry="24.5" transform="matrix(-0.0136897 0.999906 0.999932 0.0116974 25.7878 24.7843)" fill="#8E8CE2"/>
<ellipse rx="24.5" ry="24.5" transform="matrix(-0.0136897 0.999906 0.999932 0.0116974 25.7878 24.7843)" fill="url(#paint0_radial_119_8)" fill-opacity="0.32"/>
</g>
<path d="M24.9476 26.7894V15.3613C24.9476 15.069 25.195 14.832 25.5001 14.832C25.8054 14.832 26.0528 15.069 26.0528 15.3613V26.7894L29.5305 23.4578C29.7462 23.2512 30.0961 23.2512 30.3121 23.4578C30.5278 23.6645 30.5278 23.9999 30.3121 24.2066L25.8909 28.4418C25.6751 28.6487 25.3253 28.6487 25.1093 28.4418L20.6883 24.2066C20.4726 23.9999 20.4726 23.6645 20.6883 23.4578C20.9041 23.2511 21.2541 23.2512 21.4699 23.4578L24.9476 26.7894ZM34.895 20.1261H28.8157C28.5106 20.1261 28.2632 19.8891 28.2632 19.5968C28.2632 19.3043 28.5106 19.0673 28.8157 19.0673H35.4473C35.7526 19.0673 36 19.3043 36 19.5968V32.3027C36 32.595 35.7526 32.832 35.4473 32.832H15.5525C15.2474 32.832 15 32.595 15 32.3027V19.5968C15 19.3043 15.2474 19.0673 15.5525 19.0673H22.1841C22.4894 19.0673 22.7368 19.3043 22.7368 19.5968C22.7368 19.8891 22.4894 20.1261 22.1841 20.1261H16.1053V31.7734H34.895V20.1261Z" fill="white"/>
<defs>
<filter id="filter0_i_119_8" x="1.28711" y="-1.71512" width="49.0013" height="50.9988" filterUnits="userSpaceOnUse" color-interpolation-filters="sRGB">
<feFlood flood-opacity="0" result="BackgroundImageFix"/>
<feBlend mode="normal" in="SourceGraphic" in2="BackgroundImageFix" result="shape"/>
<feColorMatrix in="SourceAlpha" type="matrix" values="0 0 0 0 0 0 0 0 0 0 0 0 0 0 0 0 0 0 127 0" result="hardAlpha"/>
<feOffset dy="-2"/>
<feGaussianBlur stdDeviation="1.5"/>
<feComposite in2="hardAlpha" operator="arithmetic" k2="-1" k3="1"/>
<feColorMatrix type="matrix" values="0 0 0 0 1 0 0 0 0 1 0 0 0 0 1 0 0 0 0.3 0"/>
<feBlend mode="normal" in2="shape" result="effect1_innerShadow_119_8"/>
</filter>
<radialGradient id="paint0_radial_119_8" cx="0" cy="0" r="1" gradientUnits="userSpaceOnUse" gradientTransform="translate(24.4131 14.2365) rotate(72.3419) scale(21.1946 47.5653)">
<stop stop-color="white" stop-opacity="0.5"/>
<stop offset="1" stop-color="white" stop-opacity="0"/>
</radialGradient>
</defs>
</svg>
