<svg width="188" height="66" viewBox="0 0 188 66" fill="none" xmlns="http://www.w3.org/2000/svg">
<g filter="url(#filter0_d_313_5762)">
<rect x="3.42181" y="0.616699" width="181.415" height="48.3833" rx="8" fill="#6A68D3"/>
<rect x="3.42181" y="0.616699" width="181.415" height="48.3833" rx="8" fill="url(#paint0_radial_313_5762)" fill-opacity="0.32"/>
</g>
<g filter="url(#filter1_di_313_5762)">
<path d="M56.4129 19.7221H58.1489L60.5569 24.7061L62.7409 19.7221H64.2249L60.0109 29.0601H58.5269L59.7309 26.4141L56.4129 19.7221ZM65.7133 19.7221H67.1273C67.762 19.7221 68.2753 19.7734 68.6673 19.8761C69.0593 19.9787 69.4047 20.1701 69.7033 20.4501C70.198 20.9167 70.4453 21.5327 70.4453 22.2981C70.4453 22.7367 70.352 23.1054 70.1653 23.4041C69.9973 23.6934 69.764 23.9081 69.4653 24.0481C69.9507 24.1694 70.352 24.3934 70.6693 24.7201C71.08 25.1494 71.2853 25.7327 71.2853 26.4701C71.2853 27.1514 71.08 27.7114 70.6693 28.1501C70.0907 28.7567 69.218 29.0601 68.0513 29.0601H65.7133V19.7221ZM67.1413 21.0661V23.7401H67.5753C68.098 23.7401 68.4853 23.6187 68.7373 23.3761C68.98 23.1427 69.1013 22.7881 69.1013 22.3121C69.1013 21.9294 68.9893 21.6307 68.7653 21.4161C68.5227 21.1827 68.1447 21.0661 67.6313 21.0661H67.1413ZM67.1413 24.9161V27.7161H68.0093C68.6533 27.7161 69.1247 27.5947 69.4233 27.3521C69.7313 27.1094 69.8853 26.7641 69.8853 26.3161C69.8853 25.9147 69.7593 25.5881 69.5073 25.3361C69.218 25.0561 68.728 24.9161 68.0373 24.9161H67.1413ZM78.5145 19.7221V21.0661H74.7905V23.4321H78.4025V24.7761H74.7905V27.7161H78.5145V29.0601H73.3625V19.7221H78.5145ZM81.5385 19.7221H87.5025V29.0601H86.0745V21.0661H82.9665V25.7141C82.9665 26.1621 82.9525 26.5261 82.9245 26.8061C82.8965 27.0767 82.8078 27.3847 82.6585 27.7301C82.5185 28.0754 82.3131 28.3601 82.0425 28.5841C81.5851 28.9574 81.0205 29.1441 80.3485 29.1441C80.1525 29.1441 79.9425 29.1161 79.7185 29.0601V27.7441C79.9051 27.8001 80.0778 27.8281 80.2365 27.8281C80.5818 27.8281 80.8618 27.7207 81.0765 27.5061C81.2258 27.3661 81.3331 27.1561 81.3985 26.8761C81.4731 26.5867 81.5151 26.3487 81.5245 26.1621C81.5338 25.9754 81.5385 25.6861 81.5385 25.2941V19.7221ZM96.3279 29.0601V22.7741L90.0279 29.4801V19.7221H91.4559V26.0361L97.7559 19.3301V29.0601H96.3279ZM105.091 29.0601V25.2241C104.241 25.2894 103.607 25.3221 103.187 25.3221C102.151 25.3221 101.39 25.1307 100.905 24.7481C100.298 24.2721 99.9947 23.5161 99.9947 22.4801V19.7221H101.423V22.2701C101.423 22.9701 101.591 23.4507 101.927 23.7121C102.179 23.9081 102.673 24.0061 103.411 24.0061C103.943 24.0061 104.503 23.9734 105.091 23.9081V19.7221H106.519V29.0601H105.091ZM115.345 29.0601V22.7741L109.045 29.4801V19.7221H110.473V26.0361L116.773 19.3301V29.0601H115.345ZM124.024 21.0661H121.882V29.0601H120.454V21.0661H118.312V19.7221H124.024V21.0661ZM125.56 29.0601V19.7221H126.988V23.4881H128.052C129.051 23.4881 129.83 23.7354 130.39 24.2301C130.978 24.7434 131.272 25.4294 131.272 26.2881C131.272 26.7361 131.169 27.1654 130.964 27.5761C130.768 27.9774 130.483 28.3041 130.11 28.5561C129.606 28.8921 128.925 29.0601 128.066 29.0601H125.56ZM126.988 24.8321V27.7161H127.996C129.247 27.7161 129.872 27.2447 129.872 26.3021C129.872 25.8914 129.732 25.5461 129.452 25.2661C129.181 24.9767 128.705 24.8321 128.024 24.8321H126.988Z" fill="white"/>
</g>
<defs>
<filter id="filter0_d_313_5762" x="0.421814" y="0.616699" width="187.415" height="65.3833" filterUnits="userSpaceOnUse" color-interpolation-filters="sRGB">
<feFlood flood-opacity="0" result="BackgroundImageFix"/>
<feColorMatrix in="SourceAlpha" type="matrix" values="0 0 0 0 0 0 0 0 0 0 0 0 0 0 0 0 0 0 127 0" result="hardAlpha"/>
<feMorphology radius="11" operator="erode" in="SourceAlpha" result="effect1_dropShadow_313_5762"/>
<feOffset dy="14"/>
<feGaussianBlur stdDeviation="7"/>
<feComposite in2="hardAlpha" operator="out"/>
<feColorMatrix type="matrix" values="0 0 0 0 0.556863 0 0 0 0 0.54902 0 0 0 0 0.886275 0 0 0 1 0"/>
<feBlend mode="normal" in2="BackgroundImageFix" result="effect1_dropShadow_313_5762"/>
<feBlend mode="normal" in="SourceGraphic" in2="effect1_dropShadow_313_5762" result="shape"/>
</filter>
<filter id="filter1_di_313_5762" x="52.4129" y="15.3301" width="82.8591" height="18.1499" filterUnits="userSpaceOnUse" color-interpolation-filters="sRGB">
<feFlood flood-opacity="0" result="BackgroundImageFix"/>
<feColorMatrix in="SourceAlpha" type="matrix" values="0 0 0 0 0 0 0 0 0 0 0 0 0 0 0 0 0 0 127 0" result="hardAlpha"/>
<feOffset/>
<feGaussianBlur stdDeviation="2"/>
<feComposite in2="hardAlpha" operator="out"/>
<feColorMatrix type="matrix" values="0 0 0 0 0.25 0 0 0 0 0.25 0 0 0 0 0.25 0 0 0 0.25 0"/>
<feBlend mode="normal" in2="BackgroundImageFix" result="effect1_dropShadow_313_5762"/>
<feBlend mode="normal" in="SourceGraphic" in2="effect1_dropShadow_313_5762" result="shape"/>
<feColorMatrix in="SourceAlpha" type="matrix" values="0 0 0 0 0 0 0 0 0 0 0 0 0 0 0 0 0 0 127 0" result="hardAlpha"/>
<feOffset/>
<feGaussianBlur stdDeviation="0.5"/>
<feComposite in2="hardAlpha" operator="arithmetic" k2="-1" k3="1"/>
<feColorMatrix type="matrix" values="0 0 0 0 0.3 0 0 0 0 0.3 0 0 0 0 0.3 0 0 0 0.05 0"/>
<feBlend mode="normal" in2="shape" result="effect2_innerShadow_313_5762"/>
</filter>
<radialGradient id="paint0_radial_313_5762" cx="0" cy="0" r="1" gradientUnits="userSpaceOnUse" gradientTransform="translate(93.8078 14.674) rotate(39.9561) scale(31.0523 118.686)">
<stop stop-color="white" stop-opacity="0.5"/>
<stop offset="1" stop-color="white" stop-opacity="0"/>
</radialGradient>
</defs>
</svg>
