<svg width="75" height="75" viewBox="0 0 75 75" fill="none" xmlns="http://www.w3.org/2000/svg">
<circle cx="32.5" cy="42.5" r="32.5" fill="#F3E8E8"/>
<path d="M52.931 10.2539C52.7145 10.0684 52.6885 9.74186 52.874 9.52434C53.0595 9.3079 53.3861 9.28186 53.6036 9.46738C55.6035 11.1831 56.8061 13.5374 57.2933 16.0994C57.8129 18.8328 57.5151 21.8059 56.4975 24.4851C56.3456 24.8843 56.2539 25.1528 56.229 25.4013C56.2046 25.6449 56.2393 25.9144 56.3364 26.3321C56.8224 28.4021 57.7402 29.935 58.8599 31.3677C61.8759 25.1865 62.9592 20.0788 62.7535 15.9438C62.5539 11.927 61.1321 8.82967 59.0893 6.56379C57.0442 4.29582 54.3755 2.85286 51.6821 2.14825C48.9423 1.43167 46.1883 1.47833 44.0521 2.19762C42.5679 2.69667 42.5007 3.03624 42.3114 3.97094C42.248 4.28339 42.1753 4.64737 42.0548 5.08566C40.2962 11.5114 36.4275 17.2544 32.5582 22.9981C23.8551 35.9175 15.1513 48.8356 31.4657 69.1753C31.6447 69.3983 31.6094 69.7237 31.3865 69.9022C31.1635 70.0812 30.8381 70.046 30.6596 69.823C13.8693 48.8889 22.7843 35.6549 31.7006 22.4195C35.5243 16.7439 39.3474 11.0672 41.0595 4.81544C41.1707 4.40969 41.2412 4.06524 41.3003 3.76961C41.5764 2.40482 41.6762 1.90852 43.7251 1.21905C46.0425 0.439009 49.0091 0.383143 51.9421 1.15016C54.8181 1.902 57.6709 3.44576 59.8597 5.87329C62.05 8.30345 63.5744 11.6135 63.787 15.8972C64.0045 20.2911 62.8382 25.7101 59.5797 32.2515C59.8987 32.6274 60.2263 33.0017 60.5621 33.3858C60.9836 33.8653 61.4148 34.3579 61.813 34.8319C61.9594 35.0072 62.0734 35.1341 62.1824 35.2556C62.9668 36.1289 63.5797 36.8135 63.0069 38.1653C62.1954 40.0807 60.3548 40.0833 58.5849 40.0861C58.2751 40.0861 57.9681 40.0872 57.6605 40.1002C57.6009 40.1029 57.5618 40.1121 57.5385 40.1262C57.532 40.13 57.5244 40.143 57.5179 40.1626C57.4956 40.2222 57.4891 40.3036 57.4945 40.3996V40.405C57.5168 40.9014 57.8043 41.5458 57.9882 41.8452C58.2979 42.3508 58.5919 42.8992 58.74 43.4086C58.9255 44.0465 58.8865 44.6269 58.4303 45.0419C57.9052 45.5187 57.2472 45.8442 56.555 46.0335L56.568 46.0346C57.2651 46.1203 57.7603 46.3845 58.0972 46.749C58.3511 47.024 58.5079 47.3462 58.5887 47.6858C58.6652 48.0075 58.6728 48.3443 58.6326 48.6698C58.5431 49.401 58.1932 50.1073 57.8276 50.4452C57.4685 50.7772 57.0731 50.935 56.6885 51.088C56.2817 51.2502 55.8916 51.4053 55.749 51.8062C55.5065 52.4864 55.7229 53.4379 55.9448 54.41C56.1016 55.101 56.2611 55.8008 56.2833 56.4875C56.3169 57.5632 55.883 58.5005 55.2038 59.2535C54.4341 60.1089 53.3416 60.7246 52.2839 61.0224C51.8575 61.1428 51.4127 61.2274 50.9544 61.28C50.5904 61.3229 50.2128 61.3446 49.8228 61.3489L50.9956 65.5106C51.0032 65.5377 51.0086 65.5649 51.0113 65.5925C51.1073 66.4067 50.6446 67.1027 49.9199 67.6158C49.6346 67.8181 49.308 67.9917 48.9619 68.1306C51.4257 73.8165 56.7797 72.3248 62.4889 70.7332C66.4705 69.6223 70.6154 68.4675 74.2508 69.484C74.5258 69.5604 74.6875 69.8442 74.611 70.1203C74.5345 70.3953 74.2508 70.5569 73.9747 70.4804C70.6137 69.5409 66.6105 70.6567 62.7634 71.7297C56.554 73.4612 50.7319 75.0826 47.9603 68.4262C47.5068 68.5141 47.0468 68.5439 46.6226 68.5054C45.7661 68.4262 45.0452 68.066 44.7382 67.344C44.729 67.3234 44.7225 67.3028 44.7159 67.2816L39.8752 50.1039C39.8725 50.0919 39.8698 50.0816 39.8676 50.0702C39.4271 49.6373 39.0897 49.0878 38.9113 48.4516C38.6362 47.4784 38.7827 46.4852 39.2416 45.6661C39.7005 44.8481 40.4703 44.2052 41.445 43.9308C42.4182 43.6558 43.4114 43.8022 44.2305 44.2611C45.0485 44.7201 45.6914 45.4898 45.9658 46.4645C46.1215 47.0178 46.1421 47.5765 46.0461 48.1065C46.0889 48.1596 46.1215 48.222 46.1405 48.2904L49.5297 60.318C49.9728 60.3234 50.4084 60.3039 50.8348 60.2546C51.2416 60.2079 51.6316 60.1325 52.0027 60.0289C52.888 59.7799 53.7966 59.2695 54.4328 58.5632C54.9449 57.9952 55.2726 57.3009 55.2481 56.5231C55.2302 55.9372 55.0811 55.2841 54.9346 54.6398C54.6791 53.5202 54.4307 52.4233 54.7713 51.466C55.0708 50.6246 55.6761 50.3838 56.3059 50.1321C56.6027 50.0144 56.9086 49.8923 57.125 49.6916C57.3339 49.4985 57.5411 49.0461 57.6018 48.5487C57.6279 48.336 57.6241 48.1223 57.5774 47.9254C57.5362 47.748 57.4597 47.5848 57.3377 47.4535C57.1614 47.2631 56.8739 47.1204 56.4394 47.0673C56.1231 47.0282 55.7369 46.9544 55.2623 46.7939C54.8126 46.642 54.2826 46.4104 53.6604 46.054C53.4413 45.9504 53.3198 45.7041 53.3805 45.4605C53.4505 45.1833 53.7304 45.0147 54.0076 45.0835C54.6168 45.2365 55.3545 45.2457 56.063 45.0901C56.69 44.9528 57.2851 44.687 57.7348 44.2802C57.8384 44.1858 57.8226 43.9694 57.7451 43.6998C57.6295 43.3005 57.3746 42.8313 57.1023 42.3881C56.8652 42.0019 56.4942 41.1541 56.4595 40.4636L56.4584 40.4495C56.4492 40.2254 56.4725 40.009 56.5425 39.8159C56.6282 39.5816 56.773 39.3868 56.9976 39.2496C57.1646 39.1471 57.3697 39.0852 57.6171 39.0733C57.923 39.0603 58.2506 39.0592 58.5826 39.0592C60.0174 39.0565 61.5091 39.0554 62.0537 37.7709C62.371 37.0207 61.9501 36.5515 61.412 35.951C61.2731 35.797 61.1294 35.6359 61.0182 35.5024C60.5788 34.9773 60.1768 34.5201 59.7841 34.0714C59.3691 33.5995 58.965 33.1384 58.5777 32.673C58.5712 32.6654 58.5636 32.6573 58.5571 32.6486C57.1315 30.935 55.9338 29.1607 55.3273 26.5764C55.2031 26.0475 55.1614 25.6819 55.1988 25.3087C55.2362 24.9393 55.3463 24.6073 55.528 24.1294C56.4795 21.6227 56.7594 18.8465 56.2745 16.2986C55.8297 13.959 54.7387 11.8153 52.9292 10.2628L52.931 10.2539ZM38.743 33.1016L38.1197 33.2768L37.9445 32.6536L38.5677 32.4784L38.743 33.1016ZM41.191 41.8372L40.5678 42.0124L40.3926 41.3891L41.0158 41.2139L41.191 41.8372ZM40.8412 40.589L40.2179 40.7642L40.0427 40.1409L40.666 39.9657L40.8412 40.589ZM40.4913 39.3408L39.868 39.516L39.6928 38.8928L40.3161 38.7175L40.4913 39.3408ZM40.1414 38.0926L39.5181 38.2679L39.3429 37.6446L39.9662 37.4694L40.1414 38.0926ZM39.7915 36.8445L39.1683 37.0197L38.9931 36.3964L39.6163 36.2212L39.7915 36.8445ZM39.4417 35.5963L38.8184 35.7715L38.6432 35.1482L39.2665 34.973L39.4417 35.5963ZM39.0918 34.3481L38.4685 34.5233L38.2933 33.9001L38.9166 33.7249L39.0918 34.3481ZM37.4459 38.2028L36.8238 38.3867L36.6399 37.7645L37.2621 37.5806L37.4459 38.2028ZM38.9143 43.1743L38.2921 43.3582L38.1082 42.736L38.7304 42.5522L38.9143 43.1743ZM38.5476 41.9316L37.9254 42.1155L37.7416 41.4933L38.3637 41.3094L38.5476 41.9316ZM38.1809 40.6889L37.5587 40.8727L37.3749 40.2505L37.9971 40.0667L38.1809 40.6889ZM37.8142 39.4461L37.1921 39.63L37.0082 39.0078L37.6304 38.8239L37.8142 39.4461ZM42.3855 36.7285L41.7633 36.9124L41.5794 36.2902L42.2016 36.1063L42.3855 36.7285ZM43.8538 41.7001L43.2316 41.8839L43.0477 41.2617L43.6699 41.0779L43.8538 41.7001ZM43.4871 40.4573L42.8649 40.6412L42.6811 40.019L43.3032 39.8351L43.4871 40.4573ZM43.1204 39.2146L42.4983 39.3984L42.3144 38.7763L42.9366 38.5924L43.1204 39.2146ZM42.7538 37.9718L42.1316 38.1557L41.9477 37.5335L42.5699 37.3496L42.7538 37.9718ZM41.1779 50.8875L45.7062 66.9544C45.8537 67.2603 46.2427 67.4209 46.7211 67.4648C47.1372 67.5039 47.6129 67.4518 48.0767 67.326C48.5405 67.2017 48.9815 67.007 49.3276 66.7623C49.7409 66.4694 50.0143 66.1103 49.9888 65.7344L45.4318 49.5662C44.9636 50.2258 44.2758 50.7379 43.4356 50.9739C42.6631 51.1914 41.8787 51.1448 41.179 50.8871L41.1779 50.8875ZM43.7258 45.1539C43.1389 44.8246 42.4256 44.7199 41.7274 44.9168C41.0287 45.1137 40.4765 45.5753 40.1472 46.1623C39.818 46.7492 39.7133 47.4625 39.9102 48.1607C40.1071 48.8594 40.5687 49.4116 41.1557 49.7409C41.7426 50.0701 42.4559 50.1748 43.1541 49.9779C43.8527 49.781 44.405 49.3194 44.7342 48.7324C45.0635 48.1455 45.1682 47.4322 44.9713 46.734C44.7744 46.0354 44.3128 45.4831 43.7258 45.1539ZM26.6258 17.7277C26.7565 17.4739 27.069 17.374 27.3218 17.5048C27.5756 17.6355 27.6754 17.9479 27.5447 18.2018C25.8365 21.4913 23.9831 24.3325 22.2374 27.0101C17.1449 34.8191 12.9653 41.2287 16.1679 53.4031C16.2406 53.6792 16.0757 53.9618 15.7996 54.0356C15.5235 54.1083 15.2409 53.9434 15.1671 53.6673C11.8479 41.05 16.1403 34.4662 21.37 26.448C23.1015 23.7922 24.9382 20.9774 26.6258 17.7293L26.6258 17.7277Z" fill="#744444" stroke="#744444" stroke-width="0.7"/>
</svg>
