<svg width="17" height="21" viewBox="0 0 17 21" fill="none" xmlns="http://www.w3.org/2000/svg">
<path d="M8.17704 20.6504C8.41183 20.6395 8.59662 20.5667 8.71266 20.4701L16.1147 14.366C16.4386 14.0853 16.4256 13.6649 16.1452 13.4068C15.8647 13.1487 15.3397 13.1362 15.0435 13.3803L8.95625 18.3928L8.95625 0.980942C8.95625 0.606485 8.60732 0.302771 8.17715 0.302771C7.7467 0.302771 7.39806 0.606497 7.39806 0.980942L7.39806 18.3928L1.31083 13.3803C1.01435 13.1362 0.499665 13.1575 0.209148 13.4068C-0.091408 13.6649 -0.0568952 14.1217 0.239584 14.366L7.64165 20.4701C7.8308 20.6312 7.99143 20.6397 8.17704 20.6504Z" fill="#6A6A6A"/>
</svg>
