<svg width="35" height="35" viewBox="0 0 35 35" fill="none" xmlns="http://www.w3.org/2000/svg">
<circle r="16.8132" transform="matrix(-0.999921 -0.0125977 -0.0125977 0.999921 17.0237 17.0236)" fill="#8E8CE2"/>
<circle r="16.8132" transform="matrix(-0.999921 -0.0125977 -0.0125977 0.999921 17.0237 17.0236)" fill="#CCA29D"/>
<path d="M23.7553 17.2269C23.7476 17.3407 23.7032 17.4296 23.645 17.4851L19.9618 21.0215C19.7924 21.1762 19.5414 21.1663 19.3886 21.0282C19.2358 20.89 19.2309 20.6354 19.3782 20.4939L22.4027 17.5855L12.0007 17.4379C11.777 17.4347 11.5973 17.263 11.5994 17.0544C11.6015 16.8458 11.7847 16.6793 12.0084 16.6825L22.4104 16.8302L19.4459 13.8368C19.3016 13.691 19.3168 13.4417 19.4672 13.303C19.6229 13.1595 19.8956 13.1801 20.0401 13.3259L23.6502 16.9659C23.7455 17.0589 23.7498 17.1369 23.7553 17.2269Z" fill="white"/>
</svg>
