<svg width="72" height="69" viewBox="0 0 72 69" fill="none" xmlns="http://www.w3.org/2000/svg">
<circle cx="32.5" cy="36.5" r="32.5" fill="#F3E8E8"/>
<path d="M66.0956 0.567871H27.1177C24.2958 0.567871 22 2.86405 22 5.68553V59.1233C22 61.9442 24.2956 64.2404 27.1177 64.2404H66.0956C68.9175 64.2404 71.2132 61.9442 71.2132 59.1227V5.68496C71.2127 2.86405 68.917 0.567871 66.095 0.567871H66.0956ZM69.6216 59.1221C69.6216 61.0664 68.0398 62.6481 66.0956 62.6481H27.1177C25.1739 62.6481 23.5922 61.0664 23.5922 59.1227V5.68496C23.5917 3.74068 25.1734 2.15897 27.1177 2.15897H66.0956C68.0393 2.15897 69.621 3.74068 69.621 5.68439L69.6216 59.1221Z" fill="#744444"/>
<path d="M51.2903 11.8012H61.8149C62.2546 11.8012 62.611 11.4454 62.611 11.0051C62.611 10.5654 62.2546 10.209 61.8149 10.209L51.2903 10.2095C50.8506 10.2095 50.4942 10.5654 50.4942 11.0057C50.4942 11.4454 50.8506 11.8012 51.2903 11.8012V11.8012Z" fill="#744444"/>
<path d="M51.2903 18.312H61.8149C62.2546 18.312 62.611 17.9561 62.611 17.5159C62.611 17.0761 62.2546 16.7197 61.8149 16.7197L51.2903 16.7203C50.8506 16.7203 50.4942 17.0761 50.4942 17.5164C50.4942 17.9561 50.8506 18.312 51.2903 18.312V18.312Z" fill="#744444"/>
<path d="M51.2903 24.8242H61.8149C62.2546 24.8242 62.611 24.4683 62.611 24.0281C62.611 23.5884 62.2546 23.2319 61.8149 23.2319L51.2903 23.2325C50.8506 23.2325 50.4942 23.5884 50.4942 24.0286C50.4942 24.4683 50.8506 24.8242 51.2903 24.8242V24.8242Z" fill="#744444"/>
<path d="M30.2487 32.404C30.2487 31.9643 29.8922 31.6079 29.4525 31.6079H27.4756C27.0359 31.6079 26.6794 31.9638 26.6794 32.404C26.6794 32.8437 27.0359 33.2002 27.4756 33.2002H29.4525C29.8922 33.2002 30.2487 32.8437 30.2487 32.404Z" fill="#744444"/>
<path d="M33.4963 31.6079C33.0566 31.6079 32.7001 31.9638 32.7001 32.404C32.7001 32.8437 33.0566 33.2002 33.4963 33.2002H35.4732C35.9129 33.2002 36.2694 32.8443 36.2694 32.404C36.2694 31.9643 35.9129 31.6079 35.4732 31.6079H33.4963Z" fill="#744444"/>
<path d="M39.5167 31.6079C39.077 31.6079 38.7206 31.9638 38.7206 32.404C38.7206 32.8437 39.077 33.2002 39.5167 33.2002H41.4931C41.9328 33.2002 42.2892 32.8443 42.2892 32.404C42.2892 31.9643 41.9328 31.6079 41.4931 31.6079H39.5167Z" fill="#744444"/>
<path d="M44.7427 32.404C44.7427 32.8437 45.0991 33.2002 45.5388 33.2002H47.5152C47.9549 33.2002 48.3113 32.8443 48.3113 32.404C48.3113 31.9643 47.9549 31.6079 47.5152 31.6079H45.5388C45.0991 31.6079 44.7427 31.9643 44.7427 32.404Z" fill="#744444"/>
<path d="M51.559 31.6079C51.1193 31.6079 50.7628 31.9638 50.7628 32.404C50.7628 32.8437 51.1193 33.2002 51.559 33.2002H53.5359C53.9757 33.2002 54.3321 32.8443 54.3321 32.404C54.3321 31.9643 53.9757 31.6079 53.5359 31.6079H51.559Z" fill="#744444"/>
<path d="M57.5794 31.6079C57.1397 31.6079 56.7833 31.9638 56.7833 32.404C56.7833 32.8437 57.1397 33.2002 57.5794 33.2002H59.5564C59.9961 33.2002 60.3525 32.8443 60.3525 32.404C60.3525 31.9643 59.9961 31.6079 59.5564 31.6079H57.5794Z" fill="#744444"/>
<path d="M65.5768 31.6079H63.5998C63.1601 31.6079 62.8037 31.9638 62.8037 32.404C62.8037 32.8437 63.1601 33.2002 63.5998 33.2002H65.5768C66.0165 33.2002 66.3729 32.8443 66.3729 32.404C66.3724 31.9643 66.016 31.6079 65.5768 31.6079Z" fill="#744444"/>
<path d="M31.5293 26.4159H44.5876C45.0273 26.4159 45.3837 26.06 45.3837 25.6198V9.12328C45.3837 8.68357 45.0273 8.32715 44.5876 8.32715L31.5293 8.3277C31.0895 8.3277 30.7331 8.68357 30.7331 9.12383V25.6203C30.7337 26.0595 31.0901 26.4154 31.5293 26.4154V26.4159ZM32.3254 9.91941H43.7921V24.8241H32.3254V9.91941Z" fill="#744444"/>
<path d="M62.4131 55.4024C60.5982 55.4024 58.9049 54.5819 57.7679 53.15C57.6163 52.9602 57.387 52.8491 57.1444 52.8491C56.9018 52.8491 56.6725 52.9596 56.5215 53.15C55.3839 54.5818 53.6906 55.4024 51.8757 55.4024C50.0603 55.4024 48.3675 54.5819 47.2305 53.15C46.9279 52.7708 46.2861 52.7708 45.9835 53.15C44.8465 54.5818 43.1538 55.4024 41.3383 55.4024C39.5234 55.4024 37.8301 54.5819 36.6925 53.15C36.3911 52.7692 35.7487 52.7714 35.4462 53.15C34.3091 54.5818 32.6159 55.4024 30.8009 55.4024C30.3612 55.4024 30.0048 55.7583 30.0048 56.1986C30.0048 56.6383 30.3612 56.9947 30.8009 56.9947C32.7924 56.9947 34.6672 56.2174 36.0695 54.8345C37.4724 56.2175 39.3472 56.9947 41.3381 56.9947C43.3296 56.9947 45.2043 56.2174 46.6067 54.8345C48.0091 56.2175 49.884 56.9947 51.8753 56.9947C53.8662 56.9947 55.741 56.2174 57.1439 54.8345C58.5463 56.2175 60.4212 56.9947 62.4125 56.9947C62.8522 56.9947 63.2086 56.6388 63.2086 56.1986C63.208 55.7583 62.8516 55.4024 62.4125 55.4024H62.4131Z" fill="#744444"/>
<path d="M62.4131 48.2437C60.5977 48.2437 58.9043 47.4232 57.7678 45.9913C57.6168 45.8015 57.3875 45.6904 57.1444 45.6904C56.9012 45.6904 56.6725 45.8015 56.5209 45.9913C55.3839 47.4231 53.6912 48.2437 51.8757 48.2437C50.0603 48.2437 48.3669 47.4232 47.2305 45.9913C46.9279 45.6121 46.2861 45.6121 45.9835 45.9913C44.8471 47.4231 43.1538 48.2437 41.3383 48.2437C39.5229 48.2437 37.8295 47.4232 36.6931 45.9913C36.3905 45.6121 35.7487 45.6121 35.4461 45.9913C34.3097 47.4231 32.6164 48.2437 30.8009 48.2437C30.3612 48.2437 30.0048 48.5996 30.0048 49.0399C30.0048 49.4796 30.3612 49.836 30.8009 49.836C32.7924 49.836 34.6677 49.0587 36.0695 47.6758C37.4719 49.0588 39.3462 49.836 41.3381 49.836C43.3301 49.8354 45.2043 49.0582 46.6067 47.6758C48.0091 49.0588 49.8834 49.836 51.8753 49.836C53.8667 49.836 55.7415 49.0587 57.1439 47.6758C58.5457 49.0588 60.4206 49.836 62.4125 49.836C62.8522 49.836 63.2086 49.4801 63.2086 49.0399C63.208 48.5996 62.8516 48.2437 62.4125 48.2437H62.4131Z" fill="#744444"/>
<path d="M62.4131 41.0864C60.5977 41.0864 58.9043 40.2659 57.7679 38.8346C57.6169 38.6447 57.3876 38.5337 57.1444 38.5337C56.9018 38.5337 56.6725 38.6442 56.5215 38.8346C55.3845 40.2652 53.6912 41.0864 51.8757 41.0864C50.0603 41.0864 48.3669 40.2659 47.2305 38.8346C46.9279 38.4554 46.2861 38.4554 45.9835 38.8346C44.8465 40.2652 43.1538 41.0864 41.3383 41.0864C39.5229 41.0864 37.8295 40.2659 36.6925 38.8346C36.3911 38.4537 35.7487 38.456 35.4462 38.8346C34.3091 40.2652 32.6164 41.0864 30.8009 41.0864C30.3612 41.0864 30.0048 41.4423 30.0048 41.8826C30.0048 42.3223 30.3612 42.6787 30.8009 42.6787C32.7924 42.6787 34.6672 41.9014 36.0695 40.5197C37.4719 41.9015 39.3468 42.6787 41.3381 42.6787C43.3296 42.6787 45.2043 41.9014 46.6067 40.5197C48.0091 41.9015 49.8834 42.6787 51.8753 42.6787C53.8668 42.6787 55.7415 41.9014 57.1439 40.5197C58.5463 41.9015 60.4206 42.6787 62.4125 42.6787C62.8522 42.6787 63.2086 42.3228 63.2086 41.8826C63.208 41.4429 62.8516 41.0864 62.4125 41.0864H62.4131Z" fill="#744444"/>
</svg>
