<svg width="74" height="66" viewBox="0 0 74 66" fill="none" xmlns="http://www.w3.org/2000/svg">
<circle cx="32.5" cy="33.5" r="32.5" fill="#F3E8E8"/>
<path d="M51.0006 54.3388C55.445 50.7374 60.5806 46.0778 64.6593 40.8066C68.8721 35.3652 71.9596 29.2701 71.9596 23.0422C71.9596 17.244 69.6127 11.9937 65.8209 8.1951C62.0283 4.39493 56.7883 2.04489 51.0004 2.04489C45.2124 2.04489 39.9725 4.39493 36.1798 8.1951C32.3882 11.9938 30.0411 17.2436 30.0411 23.0422C30.0411 29.2708 33.1287 35.3653 37.3414 40.8066C41.4202 46.0774 46.5558 50.7371 51.0001 54.3388H51.0006ZM39.7833 60C39.2198 60 38.7626 59.542 38.7626 58.9774C38.7626 58.4129 39.2198 57.9549 39.7833 57.9549H62.2189C62.7824 57.9549 63.2396 58.4129 63.2396 58.9774C63.2396 59.542 62.7824 60 62.2189 60H39.7833ZM51.0006 16.7262C52.7409 16.7262 54.318 17.4339 55.4578 18.5758L55.5143 18.6371C56.6214 19.7753 57.3045 21.33 57.3045 23.0423C57.3045 24.7859 56.5981 26.3659 55.4583 27.5079C54.3185 28.6499 52.7415 29.3575 51.0011 29.3575C49.2608 29.3575 47.6837 28.6498 46.5438 27.5079C45.404 26.366 44.6977 24.786 44.6977 23.0423C44.6977 21.3011 45.4041 19.7225 46.5438 18.5802C47.6837 17.4344 49.2606 16.7262 51.0011 16.7262L51.0006 16.7262ZM54.0142 20.0221C53.2442 19.2507 52.1775 18.7713 51.0006 18.7713C49.8237 18.7713 48.757 19.2503 47.987 20.0221C47.2151 20.7922 46.7386 21.8613 46.7386 23.0423C46.7386 24.2214 47.2166 25.2901 47.987 26.0616C48.757 26.833 49.8237 27.3124 51.0006 27.3124C52.1775 27.3124 53.2442 26.8334 54.0142 26.0616C54.7842 25.2901 55.2627 24.2214 55.2627 23.0423C55.2627 21.8861 54.8055 20.836 54.0625 20.0673L54.0142 20.0221ZM66.2705 42.0542C61.8735 47.7349 56.3183 52.6989 51.6395 56.4435C51.2763 56.736 50.7465 56.7502 50.3672 56.4473C45.6873 52.7032 40.1298 47.7378 35.7314 42.0543C31.2704 36.2923 28 29.7872 28 23.0431C28 16.6803 30.5753 10.9187 34.7369 6.74951C38.8983 2.57931 44.6496 0 51 0C57.3509 0 63.1022 2.57931 67.2631 6.74951C71.4245 10.9187 74 16.6799 74 23.0431C74 29.7869 70.7301 36.2927 66.2686 42.0543L66.2705 42.0542Z" fill="#744444"/>
</svg>
