<svg width="89" height="89" viewBox="0 0 89 89" fill="none" xmlns="http://www.w3.org/2000/svg">
<path d="M58.4529 39.4015C58.6508 39.5477 58.8924 39.5831 59.1182 39.6559C60.5191 40.1066 61.9245 40.5447 63.2874 41.103C63.6641 41.2574 64.0421 41.4119 64.4036 41.5974C65.2762 42.0462 66.1958 42.4013 67.0355 42.9128C68.1421 43.5875 69.0731 44.4421 69.6782 45.6068C70.1088 46.4354 70.3498 47.314 70.2661 48.2572C70.1646 49.3966 69.6484 50.3107 68.7636 51.038C67.6678 51.9394 66.3937 52.4237 65.0206 52.6826C64.5672 52.768 64.1283 52.8757 63.7085 53.0776C63.1345 53.3536 62.5295 53.5561 61.9264 53.7606C61.7894 53.8068 61.6423 53.8315 61.5281 53.9321C61.1127 54.1683 60.6409 54.2284 60.1874 54.3297C59.3744 54.5107 58.5525 54.4759 57.7217 54.3987C56.27 54.2638 54.8799 53.9195 53.5125 53.3251C54.5938 54.7006 56.0087 55.1292 57.65 54.9551C58.6964 54.8443 59.689 54.498 60.6935 54.21C60.8641 54.1613 61.0366 54.1144 61.2104 54.0815C61.3112 54.0625 61.4495 54.0138 61.4787 54.1936C60.8166 54.6341 60.0726 54.9044 59.344 55.2058C59.2304 55.2526 59.1017 55.2716 59.0123 55.3684C58.9387 55.4457 58.8461 55.4982 58.7478 55.5286C57.8473 55.8039 56.9302 55.9451 55.9916 55.7976C54.9084 55.6273 54.0427 55.0709 53.3477 54.2392C53.0458 53.8783 52.7331 53.5264 52.4566 53.1453C52.4135 53.0858 52.3666 53.0288 52.3101 52.9826C52.2074 52.8978 52.0919 52.7573 51.9632 52.8269C51.856 52.8845 51.9518 53.0377 51.9727 53.1434C52.2213 54.3765 52.0355 55.5109 51.2301 56.5129C51.0049 56.7933 50.7329 57.0187 50.4183 57.2516C51.081 57.2206 51.7146 57.1624 52.3463 57.1067C53.2728 57.025 54.1987 56.9269 55.1126 56.7389C56.1736 56.5211 57.1858 56.1559 58.1948 55.7755C58.4168 55.6919 58.6381 55.5742 58.8899 55.6691C58.9685 55.6989 59.0313 55.7299 58.9368 55.8141C57.5898 56.7535 56.1419 57.4789 54.5437 57.8878C53.947 58.0404 53.3508 58.1942 52.7414 58.2891C51.9619 58.4107 51.1806 58.405 50.3967 58.3575C49.5514 58.3056 48.7047 58.2803 47.8574 58.3088C47.4186 58.3233 46.9791 58.2961 46.5434 58.248C46.3867 58.2309 46.2314 58.217 46.076 58.2239C44.5647 58.2961 43.08 58.1195 41.6062 57.7897C39.9389 57.4162 38.3375 56.8598 36.7711 56.185C34.9116 55.3843 33.1765 54.3639 31.4863 53.2618C30.7868 52.8054 30.0347 52.4914 29.2337 52.2654C28.7669 52.1338 28.3204 52.1167 27.848 52.2135C27.3793 52.3097 26.9049 52.3901 26.4198 52.3768C25.9993 52.3654 25.6955 52.1376 25.4025 51.8831C25.2763 51.7736 25.2579 51.6014 25.2547 51.4482C25.244 50.8741 24.9655 50.4379 24.573 50.0518C24.1252 49.6112 23.7022 49.1498 23.4042 48.5896C23.1435 48.099 22.9387 47.5875 22.8017 47.0488C22.6666 46.5209 22.6602 45.993 22.841 45.4758C23.1524 44.5852 23.5469 43.7363 24.1417 42.9925C24.3459 42.7368 24.5907 42.5247 24.859 42.3424C25.412 41.9658 25.9562 41.5796 26.4179 41.0897C26.4756 41.0637 26.4965 41.1011 26.513 41.1448C26.5111 41.2916 26.3874 41.3726 26.3284 41.4885C25.9936 41.8309 25.672 42.1867 25.3365 42.5291C25.2712 42.5728 25.2306 42.638 25.1862 42.7007C24.5628 43.3799 24.0434 44.1199 23.8735 45.0479C23.5843 46.6291 23.8646 48.0566 25.0518 49.2257C25.4539 49.622 25.8705 50.0056 26.0545 50.5664C26.1198 50.7665 26.161 50.9703 26.1991 51.1748C26.2384 51.3849 26.3563 51.4723 26.5688 51.4754C26.8853 51.4805 27.1935 51.4204 27.503 51.3735C28.4942 51.2235 29.4791 51.0425 30.4894 51.0285C31.7831 51.0114 33.0211 51.2925 34.2508 51.6426C34.8241 51.8059 35.4057 51.9483 35.958 52.1705C37.3558 52.7339 38.7739 52.6712 40.2116 52.373C41.2079 52.1667 42.163 51.823 43.1365 51.5419C43.7421 51.3444 44.3478 51.1463 44.9496 50.9374C45.8369 50.6513 46.733 50.4012 47.6608 50.2841C47.8365 50.262 47.9183 50.1657 47.9386 49.9999C47.969 49.7518 48.0128 49.5055 48.0096 49.2523C47.9824 47.159 48.4288 45.1523 49.1036 43.1818C49.6344 41.6315 50.1906 40.0883 50.5902 38.495C51.161 36.2187 51.0906 33.9671 50.3948 31.7288C50.2059 31.1211 50.0042 30.5159 49.8609 29.8943C49.7974 29.6196 49.7359 29.6101 49.5101 29.7918C47.9627 31.0388 46.7089 32.5346 45.6707 34.2235C45.2274 34.9444 44.7733 35.6579 44.3681 36.401C44.1468 36.8068 43.8683 37.172 43.5614 37.5164C43.477 37.6107 43.3895 37.7202 43.2456 37.6676C43.0965 37.6138 43.1149 37.4676 43.1162 37.3454C43.1181 37.1676 43.1574 36.9922 43.1929 36.8188C43.6216 34.7216 44.3846 32.7713 45.7836 31.1173C46.336 30.464 46.9061 29.8222 47.5739 29.2784C47.8143 29.0999 47.9944 28.8397 48.295 28.7422C48.6089 28.5485 48.9134 28.3441 49.1468 28.0523C49.181 28.0016 49.247 28.032 49.2869 27.9966C49.937 27.5155 50.542 26.9856 50.9973 26.3128C51.6163 25.3974 51.8903 24.3739 51.9271 23.2743C51.9702 21.9792 51.4945 20.8664 50.7443 19.8536C50.2192 19.1446 49.5723 18.5527 48.8569 18.0356C48.0293 17.4374 47.1503 16.9158 46.3284 16.3093C45.6124 15.7808 45.0181 15.1465 44.5634 14.3818C44.2888 13.9204 44.1823 13.4165 44.1829 12.8848C44.1842 11.9049 44.455 11.0149 45.0619 10.2356C45.1577 10.1382 45.2636 10.0483 45.3219 9.91977C45.365 9.84001 45.4259 9.77798 45.5058 9.7343C45.6156 9.72544 45.6257 9.77481 45.5775 9.85774C45.5134 9.9337 45.4773 10.0229 45.457 10.1192C45.3968 10.2192 45.3739 10.3331 45.3359 10.4414C45.2071 10.8914 45.0803 11.3396 45.0435 11.8125C44.9408 13.1323 45.4139 14.1976 46.4229 15.0402C47.059 15.5713 47.7458 16.0264 48.4866 16.3954C49.3573 16.829 50.1209 17.3886 50.762 18.1286C51.2757 18.7211 51.8085 19.2927 52.194 19.9821C52.6462 20.7898 52.9633 21.6393 53.1054 22.5609C53.3641 24.234 52.9824 25.75 52.026 27.1262C51.6512 27.6655 51.1901 28.1384 50.7024 28.5827C50.5122 28.7562 50.2984 28.9081 50.1653 29.1366C50.339 29.3069 50.4697 29.512 50.6238 29.6987C51.4387 30.7033 51.9163 31.8604 52.1928 33.1125C52.5403 34.6843 52.4947 36.2617 52.2955 37.8462C52.0127 40.094 51.3011 42.2196 50.4836 44.3168C49.838 45.9714 49.2679 47.654 48.6514 49.3194C48.5753 49.5258 48.477 49.722 48.4003 49.9277C48.3007 50.1936 48.3128 50.2297 48.5893 50.2177C49.2768 50.1879 49.9433 50.3145 50.6105 50.4506C50.8159 50.4924 51.0176 50.5475 51.2155 50.6158C51.4539 50.6861 51.6911 50.762 51.9252 50.8488C52.6374 51.0621 53.3197 51.3545 53.9964 51.6577C54.2501 51.7717 54.4854 51.7913 54.753 51.7154C55.4602 51.5153 56.1863 51.4362 56.9201 51.409C58.6324 51.3463 60.3225 51.5197 61.9981 51.8603C62.1211 51.885 62.2448 51.9109 62.371 51.909C63.6032 51.8882 64.8418 51.8939 66.0518 51.6324C67.527 51.3134 68.6685 50.5595 69.049 48.9997C69.2875 48.0224 69.1029 47.0754 68.6914 46.1664C68.5265 45.8024 68.2861 45.4853 68.0851 45.1435C68.0331 45.0422 67.9341 44.9782 67.8713 44.8852C67.2949 44.0977 66.5332 43.5166 65.7271 42.9881C64.0009 41.8563 62.1211 41.0713 60.1354 40.5244C59.5824 40.3719 59.0554 40.1319 58.4859 40.0326C57.5111 39.6312 56.4869 39.3571 55.5337 38.8995C55.3929 38.8317 55.2382 38.7862 55.1247 38.6748C55.0181 38.5703 55.0448 38.4912 55.1919 38.4602C55.2756 38.4424 55.3581 38.4627 55.4399 38.4804C56.348 38.6817 57.2378 38.9495 58.1238 39.2299C58.2449 39.2685 58.3546 39.3255 58.4542 39.4034L58.4529 39.4015Z" fill="#0F0F0F"/>
<path d="M58.4529 39.4019C57.7718 39.2025 57.0913 38.9974 56.4083 38.8056C56.0462 38.7036 55.679 38.622 55.3124 38.5378C55.2376 38.5207 55.157 38.4783 55.0606 38.5429C55.1361 38.6429 55.2503 38.6701 55.3486 38.7176C56.2364 39.1423 57.1649 39.4633 58.094 39.7823C58.2367 39.8317 58.3749 39.8956 58.5145 39.9526C58.6197 40.0633 58.5988 40.2039 58.6032 40.3381C58.6673 42.1789 58.1618 43.8804 57.3406 45.5066C57.1465 45.8908 56.9061 46.2421 56.6499 46.5846C56.3214 46.9353 56.0874 47.3613 55.757 47.7113C55.5306 47.9892 55.2712 48.2348 55.0061 48.4748C54.6085 48.8102 54.2343 49.1736 53.7941 49.4572C53.1099 49.8978 52.411 50.3105 51.6512 50.6105C51.5161 50.6637 51.3772 50.7067 51.2276 50.6858C50.6574 50.5523 50.0879 50.4175 49.5051 50.344C49.0669 50.289 48.6267 50.3301 48.1904 50.2972C48.1422 50.2478 48.1714 50.2022 48.1936 50.1567C48.5893 49.3591 48.8436 48.5077 49.148 47.6753C49.6605 46.2738 50.1685 44.8698 50.7024 43.4765C51.4146 41.6167 51.9727 39.7196 52.2213 37.7389C52.4141 36.2064 52.4389 34.6765 52.1116 33.1572C51.8446 31.9184 51.3925 30.7607 50.5629 29.777C50.5452 29.7561 50.5483 29.7181 50.5414 29.6877C50.6485 29.5915 50.764 29.6504 50.8667 29.6846C52.1471 30.1106 53.3388 30.7018 54.37 31.5855C54.7848 31.9248 55.1742 32.29 55.5058 32.7129C55.627 32.7508 55.7253 32.811 55.809 32.9167C56.4406 33.7118 56.9632 34.5726 57.4046 35.4854C57.7782 36.2571 58.0528 37.0667 58.2449 37.8978C58.335 38.2871 58.4263 38.6897 58.3908 39.0999C58.3813 39.2069 58.406 39.3069 58.4517 39.4031L58.4529 39.4019Z" fill="#FFF2DF"/>
<path d="M48.2937 28.7407C48.0889 28.9223 47.8841 29.1046 47.6792 29.2863C47.0444 29.3388 46.4064 29.3439 45.7754 29.442C44.4156 29.6547 43.1517 30.1219 41.9562 30.8017C41.0658 31.3081 40.2706 31.9335 39.5603 32.6583C38.9305 33.3008 38.3908 34.0206 37.945 34.808C37.6348 35.3556 37.3678 35.9202 37.1579 36.5127C36.5751 36.8951 35.9517 37.2059 35.3372 37.5319C35.3219 37.5401 35.2978 37.5262 35.2788 37.5167C35.3847 36.928 35.5953 36.3709 35.8217 35.8221C36.5269 34.113 37.5962 32.6577 38.9946 31.4512C40.0543 30.5359 41.2478 29.8389 42.5638 29.3439C43.5595 28.9698 44.5843 28.7571 45.6403 28.6609C46.5301 28.5799 47.4129 28.6254 48.295 28.74L48.2937 28.7407Z" fill="#D80E00"/>
<path d="M58.9375 55.8129C58.9546 55.7502 58.9743 55.6875 58.8715 55.6863C58.6457 55.6844 58.4422 55.7686 58.2373 55.847C57.5353 56.1173 56.8262 56.3674 56.1039 56.582C55.1057 56.8795 54.0821 57.0244 53.0509 57.1232C52.104 57.2137 51.1553 57.2821 50.204 57.3606C50.2129 57.2422 50.3232 57.2257 50.3911 57.1738C51.2307 56.5339 51.8072 55.7306 51.9563 54.664C52.0368 54.0867 51.9556 53.5182 51.8415 52.9529C51.8231 52.8624 51.7762 52.7763 51.8079 52.6504C52.0489 52.7061 52.2657 52.7694 52.4344 52.9846C52.808 53.4612 53.1809 53.9392 53.5925 54.3848C54.285 55.1349 55.1266 55.6084 56.1419 55.7382C56.9081 55.8357 57.6659 55.7489 58.4092 55.5375C58.6102 55.4805 58.8113 55.4242 59.0123 55.3672C58.9946 55.4027 58.9838 55.4451 58.9578 55.4729C58.8886 55.5476 58.8316 55.5964 58.9806 55.6603C59.0605 55.6945 59.0282 55.7806 58.9375 55.8116V55.8129Z" fill="#DDE0E5"/>
<path d="M35.2775 37.5176C35.5598 37.3865 35.8014 37.189 36.069 37.034C36.3994 36.8415 36.7514 36.694 37.097 36.5333C37.2454 36.3427 37.475 36.3193 37.683 36.2649C38.2411 36.1199 38.8138 36.0642 39.389 36.0471C39.923 36.0313 40.4481 35.9325 40.9783 35.885C41.3309 35.8534 41.6886 35.8705 42.0374 35.7819C42.1649 35.7496 42.2949 35.7926 42.3425 35.9363C42.3843 36.0648 42.3044 36.1566 42.2093 36.2288C42.0545 36.3459 41.87 36.3851 41.6835 36.4168C40.6327 36.5959 39.5818 36.7675 38.5176 36.8599C37.9405 36.9099 37.3919 37.0871 36.8814 37.3669C36.4356 37.5752 36.0538 37.8854 35.6378 38.1411C35.4304 38.2683 35.4006 38.4291 35.4748 38.6456C35.7443 39.4337 36.0608 40.2015 36.4521 40.9371C37.0856 42.1999 37.8333 43.3932 38.6362 44.5541C40.0036 46.531 41.4939 48.4167 42.9304 50.3423C42.976 50.4341 43.0433 50.5423 42.9259 50.6113C42.8327 50.6664 42.7579 50.567 42.6932 50.5069C42.5581 50.3816 42.4236 50.2556 42.3158 50.1049C41.6436 49.377 40.9802 48.6408 40.3606 47.8666C38.9559 46.1132 37.6171 44.3135 36.532 42.3398C35.8946 41.1491 35.294 39.9439 35.0346 38.6025C35.0239 38.5462 35.0207 38.4994 34.9452 38.5405C34.0231 38.9539 33.0401 39.1121 32.0482 39.1609C31.1305 39.2058 30.2116 39.1925 29.3098 39.4027C29.259 39.4147 29.2058 39.4128 29.1538 39.4077C29.0834 39.3887 28.9997 39.3849 29.0022 39.2799C29.6497 39.0362 30.3239 38.8982 31.0012 38.7709C31.9442 38.5943 32.8961 38.4646 33.8221 38.2006C34.2051 38.0917 34.5742 37.9512 34.9287 37.7714C35.0587 37.7056 35.1926 37.6429 35.2788 37.5169L35.2775 37.5176Z" fill="#191413"/>
<path d="M61.4781 54.1942C61.4197 54.0346 61.2973 54.1296 61.2142 54.1435C60.9047 54.1954 60.6086 54.3018 60.3111 54.4011C59.4575 54.6866 58.5931 54.931 57.697 55.0361C56.7127 55.1513 55.7538 55.0715 54.8615 54.5936C54.2349 54.2581 53.7288 53.7852 53.3242 53.1845C53.6134 53.2915 53.9045 53.3947 54.1924 53.5061C55.2509 53.9169 56.3354 54.2036 57.4763 54.2663C57.8295 54.2859 58.1777 54.3733 58.5348 54.3841C59.4214 54.4119 60.2839 54.2682 61.135 54.0346C61.2656 53.9986 61.3969 53.9669 61.5282 53.9334C61.44 54.0068 61.6062 54.1283 61.4787 54.1942H61.4781Z" fill="#DCE0E5"/>
<path d="M29.0009 39.2804C29.0314 39.3272 29.0865 39.3259 29.1303 39.3462C29.091 39.5007 28.9464 39.5057 28.8348 39.538C28.042 39.7646 27.437 40.2584 26.9017 40.8597C26.7895 40.9863 26.6988 41.1591 26.4889 41.1572C26.4654 41.1344 26.4413 41.1117 26.4178 41.0889C27.1231 40.2647 27.9152 39.5633 29.0016 39.281L29.0009 39.2804Z" fill="#473A39"/>
<path d="M54.3661 31.6297C54.3864 31.6081 54.4074 31.5873 54.4277 31.5657C54.8247 31.8613 55.1602 32.2209 55.4817 32.5937C55.5045 32.6203 55.4988 32.6716 55.5071 32.7108C55.1265 32.3507 54.746 31.9898 54.3661 31.629V31.6297Z" fill="#EB7D70"/>
<path d="M36.7863 37.3327C37.3057 36.9941 37.8885 36.8219 38.4954 36.7706C39.5602 36.6801 40.6105 36.5016 41.6632 36.3326C41.8294 36.306 41.9924 36.2674 42.1427 36.192C42.2365 36.1452 42.3367 36.0794 42.2942 35.9528C42.2568 35.8426 42.149 35.8413 42.0552 35.8597C41.3353 36.0028 40.5984 35.9901 39.8748 36.0996C39.741 36.1199 39.6046 36.1294 39.4689 36.1332C38.6597 36.1547 37.8644 36.2585 37.0983 36.5326C37.123 36.2117 37.293 35.942 37.4211 35.6616C38.2189 33.9145 39.3972 32.4668 40.9586 31.3508C41.9473 30.6437 43.0223 30.0917 44.1968 29.7284C45.2274 29.4094 46.2751 29.2676 47.3456 29.2403C47.4579 29.2378 47.5771 29.2119 47.6798 29.2866C46.0772 30.7045 44.7651 32.3351 43.9774 34.3468C43.7979 34.8045 43.6578 35.2742 43.5563 35.7559C43.4574 36.2249 43.2595 36.6706 43.2265 37.1555C43.2183 37.2802 43.203 37.4049 43.1948 37.5296C43.1923 37.5688 43.1859 37.6157 43.2278 37.641C43.2855 37.6758 43.3274 37.6378 43.3635 37.6005C43.6324 37.3219 43.8918 37.0333 44.0909 36.6997C44.46 36.0806 44.812 35.4514 45.1881 34.8368C45.9092 33.66 46.6607 32.5054 47.6037 31.485C48.2373 30.8001 48.926 30.1785 49.6357 29.5765C49.682 29.5372 49.7251 29.4847 49.8075 29.503C49.8722 29.5803 49.8957 29.6815 49.9179 29.7809C50.0701 30.4646 50.3048 31.1242 50.4995 31.7958C50.9707 33.4169 51.2047 35.0558 50.9922 36.7465C50.8603 37.798 50.6219 38.8234 50.3035 39.8293C49.897 41.113 49.4524 42.3854 49.0319 43.6647C48.6203 44.918 48.3045 46.1935 48.1745 47.5096C48.1231 48.0293 48.094 48.5509 48.0959 49.0737C48.0971 49.4301 48.0502 49.7808 48.0077 50.1334C47.9893 50.2878 47.9189 50.3372 47.7699 50.3543C46.7996 50.4682 45.8616 50.724 44.935 51.0253C44.1778 51.0278 43.5157 50.729 42.8695 50.3784C41.2421 48.2065 39.5457 46.0847 38.0464 43.8191C37.4414 42.9051 36.8681 41.9701 36.4019 40.975C36.2092 40.0262 36.322 39.0874 36.5167 38.1556C36.5757 37.8746 36.5903 37.5714 36.7869 37.3327H36.7863Z" fill="#FFF2DF"/>
<path d="M43.2335 51.5937C42.5746 51.7982 41.9182 52.0115 41.2567 52.2052C39.9306 52.5938 38.581 52.7831 37.1985 52.6198C36.7806 52.5704 36.3956 52.3919 35.9973 52.2672C34.8406 51.9051 33.6857 51.5367 32.4947 51.2981C31.2377 51.0468 29.9801 51.0664 28.7199 51.2671C28.1625 51.3557 27.6057 51.4475 27.0469 51.5285C26.8611 51.5557 26.6721 51.5652 26.4844 51.5658C26.2345 51.5671 26.1781 51.5152 26.1242 51.269C26.0994 51.1569 26.0849 51.043 26.0639 50.9303C25.9764 50.465 25.7671 50.0643 25.4272 49.7333C25.2928 49.6022 25.1602 49.4687 25.0251 49.3377C24.0415 48.3824 23.6356 47.2038 23.6832 45.8536C23.725 44.6749 24.1633 43.664 24.9845 42.8177C25.0492 42.7506 25.1088 42.679 25.171 42.6094C25.32 42.5904 25.3574 42.7208 25.4145 42.8069C26.4888 44.4236 27.8955 45.7055 29.4746 46.8082C30.7779 47.719 32.1547 48.509 33.5646 49.2465C34.5837 49.7795 35.6377 50.2372 36.6677 50.7448C36.7273 50.7746 36.7882 50.817 36.8402 50.8151C36.1565 50.5018 35.4855 50.127 34.8139 49.7535C33.6172 49.0882 32.4186 48.4274 31.2453 47.7216C29.4004 46.6119 27.6989 45.3206 26.2339 43.7349C25.9149 43.3899 25.6295 43.0158 25.3251 42.6582C25.2801 42.6056 25.2154 42.548 25.2991 42.474C25.575 42.1802 25.8502 41.8865 26.1261 41.5934C26.1755 41.5409 26.2066 41.4706 26.2802 41.4428C27.7027 40.6072 29.2787 40.2451 30.8787 39.9546C32.0717 39.7381 33.2735 39.5628 34.4334 39.1918C34.5805 39.145 34.7321 39.0893 34.8938 39.1272C35.0213 39.2564 34.9801 39.421 34.9813 39.5729C34.989 40.5218 34.9566 41.47 35.1494 42.4119C35.3409 43.3481 35.6181 44.2502 36.0062 45.1237C36.5998 46.46 37.4357 47.6254 38.4764 48.642C39.72 49.8574 41.1628 50.7619 42.8174 51.3209C42.9741 51.3734 43.1865 51.3664 43.2347 51.5937H43.2335Z" fill="#DDE0E5"/>
<path d="M56.5731 46.5893C56.6106 46.4178 56.7539 46.314 56.8439 46.1766C57.2968 45.4854 57.6341 44.7422 57.9094 43.9636C58.073 43.5015 58.2138 43.0331 58.3216 42.559C58.4852 41.838 58.5512 41.1018 58.5195 40.3593C58.5138 40.2238 58.5163 40.0877 58.515 39.9516C58.9025 39.9972 59.2545 40.165 59.6211 40.2783C60.599 40.5808 61.5725 40.8954 62.5415 41.2271C63.1497 41.4354 63.6977 41.7601 64.2627 42.0519C65.1931 42.5324 66.0924 43.0629 66.8921 43.7452C67.2739 44.0706 67.6341 44.4175 67.9297 44.8264C67.9227 44.9188 67.858 44.9726 67.7965 45.0296C66.5091 46.2203 65.0371 47.0812 63.3406 47.5597C62.201 47.8807 61.0322 48.0598 59.8798 48.32C58.6133 48.6061 57.3557 48.9226 56.2028 49.5474C55.9941 49.6601 55.769 49.7569 55.6618 49.9797C55.6707 50.0228 55.6903 50.0392 55.71 50.0259C56.8978 49.2195 58.2652 48.9074 59.6369 48.6162C60.8533 48.358 62.0919 48.2054 63.2962 47.8845C64.838 47.473 66.2364 46.8046 67.3716 45.6531C67.532 45.4898 67.7197 45.3543 67.8624 45.1714C67.9252 45.091 68.0039 45.0132 68.1275 45.0404C68.5036 45.6076 68.8613 46.1849 69.0458 46.8482C69.271 47.6579 69.3287 48.4732 69.068 49.2866C68.8048 50.1082 68.2861 50.733 67.5453 51.1685C66.8097 51.6009 65.9922 51.7743 65.1551 51.868C64.4784 51.9433 63.7972 51.9452 63.1187 51.9851C62.5618 52.018 62.0145 51.9686 61.4666 51.8629C59.9413 51.568 58.4034 51.4103 56.8477 51.4964C56.0842 51.5388 55.3238 51.6085 54.5906 51.8471C54.4441 51.8946 54.3167 51.8902 54.1702 51.8256C53.4047 51.4882 52.6329 51.1647 51.8395 50.897C51.8224 50.7419 51.9562 50.7147 52.0494 50.664C52.839 50.238 53.5734 49.7322 54.2628 49.1613C54.3319 49.1144 54.4029 49.0701 54.4486 48.9973C54.6312 48.7998 54.8006 48.5878 55.0352 48.4447C55.28 48.2073 55.5045 47.9503 55.7404 47.7047C56.0658 47.3686 56.2979 46.9635 56.5738 46.5906L56.5731 46.5893Z" fill="#DDE0E5"/>
<path d="M29.8597 51.9652C31.201 51.831 32.4706 52.0418 33.713 52.39C34.455 52.5982 35.1698 52.9072 35.8915 53.1838C36.527 53.4275 37.1688 53.6484 37.8334 53.7991C38.5881 53.97 39.3466 53.9383 40.1101 53.8472C41.565 53.6725 42.9482 53.2458 44.3161 52.7419C45.3093 52.3761 46.3373 52.133 47.3926 52.0209C47.7782 51.9798 48.1663 52.0076 48.5532 52.0064C48.6997 52.0064 48.7498 52.0855 48.7904 52.2051C48.9787 52.7597 48.9121 53.2749 48.5665 53.751C48.3997 53.9801 48.2018 54.1801 47.9868 54.3656C47.0983 55.1315 46.1312 55.7582 44.9795 56.0583C44.9186 56.0741 44.8577 56.0899 44.7968 56.1038C44.788 56.1057 44.7772 56.1 44.729 56.0887C44.878 55.9519 45.0099 55.8259 45.1469 55.7063C45.6486 55.267 46.0462 54.7479 46.3633 54.1637C46.4787 53.9503 46.5631 53.7269 46.6144 53.4914C46.6341 53.4009 46.6398 53.3053 46.6366 53.2123C46.6335 53.1154 46.5961 53.0122 46.5054 52.9781C46.4115 52.942 46.3716 53.0534 46.3138 53.1072C45.8743 53.5136 45.367 53.8294 44.8774 54.1681C44.4823 54.4416 44.0669 54.6865 43.6699 54.9575C42.6317 55.6664 41.473 56.0165 40.2306 56.1114C39.8565 56.1399 39.5083 56.0013 39.1652 55.8798C37.1028 55.1493 35.1165 54.2403 33.1429 53.3022C32.1136 52.8128 31.0786 52.3374 29.9738 52.0349C29.9459 52.0273 29.9225 52.0045 29.8584 51.9665L29.8597 51.9652Z" fill="#DDE0E5"/>
<path d="M43.2335 51.593C43.146 51.4905 43.0154 51.4753 42.8987 51.4367C41.8694 51.0974 40.9098 50.6195 40.0137 50.0111C38.4815 48.9711 37.2588 47.6399 36.3639 46.0289C35.3733 44.2457 34.852 42.3271 34.885 40.2742C34.8913 39.8988 34.9008 39.5241 34.9091 39.1487C34.8545 38.8987 34.8431 38.6556 35.0309 38.4474C35.1222 38.4391 35.0873 38.5157 35.0943 38.5531C35.2522 39.4 35.5718 40.1913 35.9301 40.968C36.1439 41.4307 36.3753 41.8852 36.5986 42.3429C36.8725 43.0632 37.0286 43.8235 37.3349 44.5337C37.742 45.4788 38.2716 46.3422 38.9083 47.1544C39.8076 48.3014 40.927 49.1705 42.1649 49.9099C42.2442 49.9573 42.3273 50.0054 42.3786 50.0884C42.5397 50.27 42.7008 50.4517 42.867 50.6384C42.9951 50.4973 42.8784 50.4479 42.8689 50.3776C43.2544 50.4599 43.5937 50.6714 43.9743 50.7714C44.2945 50.8556 44.6059 50.972 44.9344 51.0246C44.3675 51.2139 43.8005 51.4031 43.2335 51.5924V51.593Z" fill="#D80E00"/>
<path d="M49.3599 52.1135C49.41 52.0958 49.4195 52.0894 49.429 52.0894C50.1038 52.0787 50.4025 52.5452 50.6099 53.0712C50.8629 53.7144 50.6955 54.3537 50.4463 54.9595C49.975 56.1065 49.0884 56.7756 47.9031 57.0864C47.3932 57.22 46.8783 57.2807 46.3367 57.2731C46.3652 57.1801 46.4426 57.175 46.4984 57.1497C47.1009 56.8762 47.6774 56.5547 48.1911 56.1401C49.2654 55.2735 49.7372 54.1455 49.592 52.7687C49.5679 52.5383 49.469 52.33 49.3592 52.1141L49.3599 52.1135Z" fill="#DDE0E5"/>
<path d="M68.1263 45.0399C68.092 45.0614 68.0489 45.076 68.0235 45.1057C66.6841 46.6769 64.9591 47.5859 62.9722 48.0555C62.0057 48.2841 61.0246 48.4341 60.0498 48.6189C58.8157 48.8531 57.5968 49.138 56.4539 49.6798C56.2174 49.7919 55.9891 49.9179 55.795 50.0976C55.7253 50.1622 55.6447 50.2464 55.5534 50.1654C55.4475 50.071 55.5369 49.9742 55.5971 49.8925C55.6847 49.7729 55.8045 49.6881 55.9282 49.6089C56.4514 49.2741 57.0273 49.0557 57.6101 48.8525C58.7377 48.4588 59.904 48.2189 61.0734 47.9916C62.0272 47.8068 62.9779 47.6067 63.9007 47.2947C65.1532 46.8712 66.2859 46.2413 67.2758 45.3615C67.4864 45.1747 67.7115 45.0045 67.9297 44.8272C67.9525 44.9374 68.0749 44.9563 68.1263 45.0405V45.0399Z" fill="#191413"/>
<path d="M25.2985 42.4734C25.3771 42.6696 25.5477 42.7943 25.6746 42.9525C26.5935 44.1002 27.6596 45.0953 28.8271 45.9872C30.1843 47.0234 31.6461 47.8957 33.1327 48.7275C34.3351 49.4004 35.5471 50.058 36.7539 50.7227C36.8243 50.7613 36.9074 50.7809 36.974 50.8708C36.8814 50.9145 36.8174 50.8613 36.752 50.8335C34.7949 50.0087 32.9107 49.0427 31.0912 47.9489C29.8615 47.2095 28.6863 46.398 27.6165 45.439C26.7172 44.6332 25.9105 43.7495 25.2725 42.7196C25.2458 42.6765 25.2275 42.624 25.1697 42.6082C25.1818 42.5341 25.2255 42.4904 25.2978 42.4727L25.2985 42.4734Z" fill="#191514"/>
<path d="M55.7202 52.4846C57.6785 52.4891 59.6224 52.4821 61.5471 52.829C60.2451 53.1297 58.9381 53.3525 57.5993 53.3101C57.3012 53.3006 57.0247 53.2481 56.7615 53.0923C56.4742 52.9227 56.166 52.7879 55.8673 52.6372C55.8153 52.6106 55.7506 52.5986 55.7202 52.4853V52.4846Z" fill="#DCDFE4"/>
<path d="M54.3192 49.1932C53.7637 49.6806 53.1713 50.1168 52.52 50.4713C52.2854 50.5991 52.0387 50.7124 51.8383 50.8966C51.6347 50.8257 51.4311 50.7555 51.2275 50.6846C52.2606 50.325 53.1942 49.7794 54.0865 49.1571C54.323 48.9919 54.533 48.7938 54.7397 48.5919C54.812 48.521 54.8684 48.4241 54.9851 48.4114C55.0492 48.3899 55.0625 48.4235 55.0574 48.4773C54.8646 48.6665 54.6719 48.8558 54.4791 49.0451C54.4404 49.1096 54.3528 49.1229 54.3192 49.1932Z" fill="#D91608"/>
<path d="M56.5732 46.5895C56.3613 47.0143 56.1121 47.4131 55.7582 47.7372C55.7297 47.7271 55.71 47.7074 55.6986 47.6802C56.01 47.3327 56.2282 46.9105 56.5732 46.5902V46.5895Z" fill="#E9A49B"/>
<path d="M55.6986 47.6797C55.7182 47.6987 55.7385 47.7177 55.7582 47.7367C55.5819 47.9418 55.4069 48.1488 55.2274 48.3513C55.1811 48.4032 55.1418 48.4729 55.0574 48.4767C55.0333 48.4545 55.0092 48.4324 54.9851 48.4108C55.2229 48.1671 55.4608 47.9234 55.6986 47.6797Z" fill="#E04E42"/>
<path d="M42.3786 50.0893C41.6131 49.7354 40.9504 49.229 40.3023 48.7011C39.337 47.9143 38.5671 46.9616 37.9342 45.8943C37.2791 44.7891 36.8351 43.6054 36.5986 42.3432C36.9087 42.8502 37.2087 43.3636 37.5308 43.863C38.6813 45.6494 39.9712 47.3319 41.3658 48.9353C41.7013 49.3214 42.0406 49.7044 42.3786 50.0886V50.0893Z" fill="#FFF2DF"/>
<path d="M36.7863 37.3336C36.7419 37.5469 36.7045 37.7615 36.6525 37.973C36.4457 38.8174 36.3709 39.6732 36.4064 40.5404C36.4121 40.6854 36.4026 40.831 36.4007 40.9759C35.9491 40.1973 35.6244 39.3649 35.3574 38.5085C35.3251 38.404 35.2832 38.2806 35.4132 38.1989C35.8718 37.9122 36.2865 37.5558 36.7856 37.333L36.7863 37.3336Z" fill="#D80E00"/>
<path d="M46.0924 45.3464C45.9377 44.2829 45.7836 43.2201 45.6732 42.1509C45.5343 40.8115 45.3936 39.472 45.3162 38.1269C45.2883 37.6471 45.2604 37.1679 45.2718 36.6874C45.2743 36.571 45.2413 36.4361 45.3612 36.3488C45.4513 36.3899 45.4494 36.4678 45.4557 36.5393C45.6644 38.8783 45.8755 41.2172 46.0772 43.5575C46.1178 44.0246 46.1647 44.4931 46.1533 44.964C46.1501 45.0944 46.2542 45.2419 46.0918 45.3464H46.0924Z" fill="#1B1716"/>
<path d="M46.0925 45.3467C46.1876 45.2308 46.1083 45.0878 46.154 44.9643C46.2415 45.146 46.1996 45.3315 46.2047 45.5385C46.0893 45.4853 46.0855 45.4188 46.0925 45.3467Z" fill="#58544E"/>
<path d="M54.3192 49.1923C54.3338 49.1011 54.3941 49.0593 54.479 49.0441C54.4587 49.129 54.3979 49.1701 54.3192 49.1923Z" fill="#E04E42"/>
<path d="M25.9213 65.0013C25.9213 64.4088 25.5408 64.067 24.5057 63.672C23.6306 63.3454 22.6717 62.9352 22.6717 61.9629C22.6717 61.2033 23.2196 60.6032 24.1481 60.6032C24.7493 60.6032 25.1602 60.9298 25.4875 60.9298C25.6701 60.9298 25.7995 60.8462 25.7614 60.5652H25.8452L26.2029 62.3882L26.1191 62.4034C25.9517 61.7426 24.97 60.6943 24.1404 60.6943C23.5164 60.6943 23.1892 61.0437 23.1892 61.5603C23.1892 62.3351 23.973 62.6161 24.7797 62.92C25.6092 63.239 26.4464 63.6036 26.4464 64.5607C26.4464 65.4191 25.8832 66.0723 24.8406 66.0723C24.072 66.0723 23.7143 65.7229 23.3414 65.7229C23.1511 65.7229 22.938 65.7989 22.9608 66.1103H22.8771L22.5347 63.8923L22.6184 63.8771C22.9152 65.0697 24.0111 65.9812 24.8178 65.9812C25.4875 65.9812 25.9213 65.6242 25.9213 65.0013Z" fill="black"/>
<path d="M28.0826 65.9057C28.4936 65.9057 28.8969 65.8753 28.8969 65.3436V60.9607C28.8969 60.8391 28.836 60.7707 28.7143 60.7707C27.4966 60.7707 27.1465 61.781 27.0552 62.6166H26.9715L27.0857 60.6796H31.4692L31.5834 62.6166H31.4996C31.4159 61.781 31.0582 60.7707 29.8406 60.7707C29.7264 60.7707 29.6579 60.8391 29.6579 60.9607V65.3436C29.6579 65.8753 30.0613 65.9057 30.4723 65.9057V65.9969H28.0826V65.9057Z" fill="black"/>
<path d="M34.7569 66.0728C33.4022 66.0728 32.5651 65.5791 32.5651 63.9991V61.3329C32.5651 60.8315 32.39 60.7707 31.9715 60.7707V60.6796H33.9197V60.7707C33.5012 60.7707 33.3261 60.8315 33.3261 61.3329V64.265C33.3261 65.4727 33.8512 65.9285 34.8406 65.9285C35.8299 65.9285 36.4311 65.4044 36.4311 64.2725V62.0849C36.4311 61.1278 36.3018 60.8011 35.556 60.7707V60.6796H37.177V60.7707C36.7279 60.8011 36.5529 61.1278 36.5529 62.0849V64.2346C36.5529 65.4803 35.8604 66.0728 34.7569 66.0728Z" fill="black"/>
<path d="M37.5422 65.9057C37.9532 65.9057 38.1282 65.8373 38.1282 65.3436V61.3329C38.1282 60.8315 37.9608 60.7707 37.5422 60.7707V60.6796H39.9852C41.492 60.6796 42.6107 61.7355 42.6107 63.3382C42.6107 64.941 41.492 65.9969 39.9852 65.9969H37.5422V65.9057ZM39.4905 60.7707C39.011 60.7707 38.8893 60.8847 38.8893 61.3329V65.3436C38.8893 65.7918 39.011 65.9057 39.4905 65.9057H39.9015C41.1952 65.9057 41.7736 65.0094 41.7736 63.3382C41.7736 61.6671 41.1952 60.7707 39.9015 60.7707H39.4905Z" fill="black"/>
<path d="M43.3642 65.9057C43.7827 65.9057 43.9501 65.8449 43.9501 65.3436V61.3329C43.9501 60.8315 43.7827 60.7707 43.3642 60.7707V60.6796H45.3048V60.7707C44.8862 60.7707 44.7112 60.8315 44.7112 61.3329V65.3436C44.7112 65.8449 44.8862 65.9057 45.3048 65.9057V65.9969H43.3642V65.9057Z" fill="black"/>
<path d="M48.5163 65.9057C48.973 65.9057 49.2013 65.7462 49.0262 65.1841L48.6457 64.0295H46.8573L46.6518 64.6675C46.3398 65.6474 46.6747 65.9057 47.2454 65.9057V65.9969H45.5712V65.9057C45.9897 65.8981 46.218 65.6398 46.5301 64.6675L47.6792 61.0974C47.5803 60.8467 47.4813 60.7707 47.1922 60.7707V60.6796H48.3185L49.8253 65.26C49.9928 65.7614 50.1754 65.9057 50.5255 65.9057V65.9969H48.5163V65.9057ZM48.6153 63.9231L47.7401 61.2645L46.8877 63.9231H48.6153Z" fill="black"/>
<path d="M53.5848 65.9057C53.9958 65.9057 54.3991 65.8753 54.3991 65.3436V60.9607C54.3991 60.8391 54.3383 60.7707 54.2165 60.7707C52.9988 60.7707 52.6488 61.781 52.5574 62.6166H52.4737L52.5879 60.6796H56.9714L57.0856 62.6166H57.0019C56.9182 61.781 56.5605 60.7707 55.3428 60.7707C55.2287 60.7707 55.1602 60.8391 55.1602 60.9607V65.3436C55.1602 65.8753 55.5635 65.9057 55.9745 65.9057V65.9969H53.5848V65.9057Z" fill="black"/>
<path d="M57.5879 65.9057C57.9988 65.9057 58.1739 65.8449 58.1739 65.3436V61.3329C58.1739 60.8315 58.0064 60.7707 57.5879 60.7707V60.6796H61.5757L61.5985 62.5027H61.5148C61.4311 61.386 60.9592 60.7707 60.046 60.7707H59.4676C59.0567 60.7707 58.9349 60.8999 58.9349 61.3329V63.2091H59.3991C60.1373 63.2091 60.4265 62.9053 60.4417 62.0849H60.5255V64.4473H60.4417C60.4113 63.6345 60.1297 63.3078 59.3991 63.3078H58.9349V65.3436C58.9349 65.7766 59.0567 65.9057 59.4676 65.9057H60.0917C61.0277 65.9057 61.6594 65.2221 61.9181 64.0219H62.0019L61.7127 65.9969H57.5879V65.9057Z" fill="black"/>
<path d="M62.4965 65.9057C62.9151 65.9057 63.0825 65.8449 63.0825 65.3436V61.3329C63.0825 60.8315 62.9151 60.7707 62.4965 60.7707V60.6796H64.4372V60.7707C64.0186 60.7707 63.8436 60.8315 63.8436 61.3329V65.3436C63.8436 65.7766 63.9501 65.9057 64.3611 65.9057H64.9318C65.7842 65.9057 66.3474 65.1005 66.6289 63.87H66.7127L66.4235 65.9969H62.4965V65.9057Z" fill="black"/>
<path d="M69.8329 65.9057C70.2895 65.9057 70.5178 65.7462 70.3428 65.1841L69.9623 64.0295H68.1738L67.9684 64.6675C67.6563 65.6474 67.9912 65.9057 68.562 65.9057V65.9969H66.8877V65.9057C67.3063 65.8981 67.5346 65.6398 67.8466 64.6675L68.9958 61.0974C68.8968 60.8467 68.7979 60.7707 68.5087 60.7707V60.6796H69.635L71.1419 65.26C71.3093 65.7614 71.492 65.9057 71.842 65.9057V65.9969H69.8329V65.9057ZM69.9318 63.9231L69.0566 61.2645L68.2043 63.9231H69.9318Z" fill="black"/>
<path fill-rule="evenodd" clip-rule="evenodd" d="M44.5 2C21.0261 2 2 20.9932 2 44.4186C2 67.8439 21.0261 86.8372 44.5 86.8372C67.9739 86.8372 87 67.8439 87 44.4186C87 20.9932 67.9739 2 44.5 2ZM0 44.4186C0 19.8851 19.9251 0 44.5 0C69.0749 0 89 19.8851 89 44.4186C89 68.952 69.0749 88.8372 44.5 88.8372C19.9251 88.8372 0 68.952 0 44.4186Z" fill="#E42320"/>
</svg>
