<svg width="16" height="15" viewBox="0 0 16 15" fill="none" xmlns="http://www.w3.org/2000/svg">
<path d="M15.51 12.4985C14.9632 13.4239 14.0994 14.5565 13.0137 14.8375C11.1117 15.3314 8.19276 14.8545 4.56056 11.2155L4.51565 11.1729C1.32195 7.99083 0.492489 5.34243 0.693251 3.24187C0.804198 2.04966 1.72876 0.971 2.50803 0.26703C2.63123 0.15404 2.77733 0.0735933 2.93464 0.0321251C3.09195 -0.00934308 3.2561 -0.0106834 3.41398 0.0282118C3.57185 0.0671069 3.71907 0.145159 3.84385 0.256125C3.96864 0.367091 4.06753 0.507892 4.13262 0.667271L5.30813 3.50586C5.38452 3.68991 5.41283 3.89284 5.39002 4.09288C5.36722 4.29291 5.29416 4.4825 5.17869 4.6413L4.58433 5.47016C4.4568 5.64131 4.37984 5.84955 4.36337 6.06809C4.34689 6.28662 4.39164 6.50546 4.49187 6.69643C4.82472 7.32376 5.62248 8.2463 6.50742 9.10072C7.50066 10.0658 8.60221 10.9486 9.29959 11.2495C9.4862 11.3315 9.69136 11.3514 9.88863 11.3069C10.0859 11.2624 10.2663 11.1554 10.4064 10.9997L11.0959 10.2532C11.2289 10.1122 11.3944 10.0117 11.5753 9.96182C11.7563 9.91195 11.9464 9.91454 12.1261 9.96933L14.9183 10.8209C15.0723 10.8717 15.2135 10.9596 15.331 11.078C15.4486 11.1964 15.5394 11.3421 15.5964 11.504C15.6535 11.6659 15.6754 11.8396 15.6605 12.012C15.6455 12.1844 15.594 12.3508 15.51 12.4985Z" fill="white"/>
</svg>
