<svg width="101" height="98" viewBox="0 0 101 98" fill="none" xmlns="http://www.w3.org/2000/svg">
<path d="M91.9419 39.9709C91.9419 59.8372 75.8372 75.9419 55.9709 75.9419C36.1047 75.9419 20 59.8372 20 39.9709C20 20.1047 36.1047 4 55.9709 4C75.8372 4 91.9419 20.1047 91.9419 39.9709Z" fill="#947B65"/>
<path d="M91.9419 39.9709C91.9419 59.8372 75.8372 75.9419 55.9709 75.9419C36.1047 75.9419 20 59.8372 20 39.9709C20 20.1047 36.1047 4 55.9709 4C75.8372 4 91.9419 20.1047 91.9419 39.9709Z" fill="#B18373"/>
<path d="M62.3132 38.6612C62.9771 39.0509 62.9701 40.0131 62.3007 40.3932L52.7501 45.8159C52.0806 46.196 51.2508 45.7089 51.2563 44.9391L51.3355 33.9566C51.341 33.1868 52.1778 32.7117 52.8417 33.1014L62.3132 38.6612Z" fill="white"/>
<path fill-rule="evenodd" clip-rule="evenodd" d="M15.3869 0.941406C5.84247 11.149 0 24.8617 0 39.939C0 71.4809 25.5697 97.0506 57.1116 97.0506C74.4598 97.0506 90.0013 89.3157 100.476 77.1064C100.177 76.9429 99.8781 76.7788 99.5798 76.6141C89.2906 88.518 74.0808 96.0506 57.1116 96.0506C26.122 96.0506 1 70.9286 1 39.939C1 25.2008 6.68213 11.7898 15.9752 1.777C15.7786 1.49889 15.5825 1.22036 15.3869 0.941406Z" fill="#B18373"/>
</svg>
