<svg width="64" height="56" viewBox="0 0 64 56" fill="none" xmlns="http://www.w3.org/2000/svg">
<g clip-path="url(#clip0_130_4577)">
<path d="M36.3085 36.4853C35.7659 36.0323 35.4829 35.3788 35.1724 34.7904C33.7737 32.1681 32.096 29.7413 30.2962 27.3858C27.0477 23.1083 23.473 19.1276 19.366 15.6375C17.5992 14.1386 15.9603 12.5079 14.3803 10.8099C13.3344 9.67641 12.1632 8.66508 11.1467 7.49799C10.2259 6.43881 9.58558 5.25695 9.15546 3.94428C9.09947 3.7641 9.0506 3.59614 9.18599 3.4353C9.7581 4.05116 10.3277 4.67669 11.0275 5.16073C11.363 5.49716 11.674 5.84784 11.9824 6.2082C13.0518 7.4099 14.5142 8.02218 15.8849 8.78614C16.2554 9.02841 16.6504 9.25643 17.0896 9.04112C17.8633 8.65529 18.0588 8.93422 17.9402 9.69922C17.903 9.9583 18.1249 10.0581 18.3102 10.1792C19.6585 10.7925 21.0415 11.3529 22.3424 12.0675C22.6967 12.2537 23.0138 12.5026 23.3905 12.6431C25.1241 13.2854 26.6149 14.3395 28.1058 15.3936C29.0031 16.1881 29.9646 16.8961 30.8498 17.6977C33.5581 20.1372 36.0308 22.8043 37.5024 26.2109C38.1203 27.635 38.4262 29.1839 38.9587 30.6579C39.1297 31.1475 39.1694 31.6646 39.2626 32.1752C39.3975 34.0202 39.7217 35.8531 39.6261 37.7099C39.5518 38.228 39.4678 38.7436 39.1278 39.1712C38.7802 39.4313 38.4707 39.9392 37.9806 39.3656C37.9241 39.2267 37.865 39.0974 37.8182 38.961C37.7148 37.8998 37.1667 37.1144 36.3253 36.5001L36.3085 36.4853Z" fill="#FAF4EF"/>
<path d="M14.6274 -6.86924C15.2524 -6.80817 15.6433 -7.62561 16.3335 -7.34059C16.28 -6.5481 16.5111 -6.2081 17.4156 -5.99078C19.0988 -5.58922 20.7052 -4.85631 21.9604 -3.57471C22.1401 -3.393 22.336 -3.15531 22.5915 -3.2225C23.9561 -3.53556 24.8245 -2.94515 25.3895 -1.75209C25.4414 -1.63503 25.6277 -1.59635 25.7381 -1.50524C25.9346 -1.30878 26.041 -1.08432 26.0278 -0.798265C25.7774 -0.161009 25.6094 0.477263 24.6286 0.353599C24.3089 0.31085 23.8554 0.698197 23.5078 0.958296C23.3022 1.111 23.092 1.24181 22.8436 1.32122C22.3687 1.47545 21.8811 1.48157 21.4871 1.17109C21.0163 0.799032 21.48 0.373001 21.507 -0.0438595C21.1802 0.294114 20.9573 0.669751 20.915 1.14464C20.8514 1.38641 20.7588 1.62054 20.7048 1.86486C20.5964 2.39471 20.4208 2.86553 19.9241 2.82787C20.1139 2.77443 20.4824 2.78867 20.8504 2.84414C21.9885 2.99885 22.0694 3.12355 21.8725 4.3436C21.6506 4.63678 21.3508 4.55789 21.0749 4.50598C20.6682 4.44033 20.4051 4.53653 20.1964 4.9366C19.8462 5.59931 19.3174 5.60492 18.7377 5.21454C18.4659 5.02927 18.1793 4.8608 17.85 4.81551C17.2204 4.73255 16.9603 4.38492 17.175 3.49012C16.4732 4.15334 15.8527 4.31063 15.2755 3.91058C14.7584 3.55735 14.8016 3.00001 14.8337 2.36734C14.8769 1.61353 14.7227 0.942179 15.6124 0.586889C15.7977 0.511556 15.5666 0.171558 15.7076 -0.0498544C15.4943 0.328327 15.25 0.667317 14.8077 0.737057C14.4626 0.791016 14.0666 1.03839 13.7744 0.734023C13.4991 0.444415 13.8472 0.143087 13.9164 -0.159252C14.0421 -0.715577 14.146 -1.26732 14.2813 -1.8211C14.3933 -2.24662 14.2584 -2.71641 13.864 -2.98565C13.046 -3.53178 13.2425 -4.12119 13.7616 -4.71875C14.207 -5.23233 14.5627 -5.75913 14.4116 -6.48138C14.4329 -6.64121 14.5653 -6.75115 14.6325 -6.88858L14.6274 -6.86924Z" fill="#FAECE3"/>
<path d="M57.259 16.7159C57.4204 17.0065 56.9653 17.5175 57.6092 17.6249C57.7471 17.6509 57.8403 17.7684 57.8235 17.9502C57.6718 19.0373 57.8795 20.095 58.0557 21.1547C58.101 21.4148 57.7828 21.4449 57.6022 21.5421C57.3492 21.9925 56.886 21.7879 56.5257 21.8999C56.6773 22.188 57.2331 21.962 57.2321 22.4374C57.2301 22.7988 56.9654 23.0187 56.713 23.2314C56.4336 23.4681 56.1017 23.6289 55.7536 23.7338C55.3494 23.855 55.1642 24.1268 55.1591 24.539C55.1606 24.8083 55.1764 25.102 55.4691 25.1686C55.89 25.2587 55.7806 24.8887 55.8172 24.6708C55.8564 24.4433 55.8956 24.2158 56.1602 24.1924C56.4687 24.1598 56.5893 24.4087 56.7028 24.6454C57.0826 25.5208 56.7283 26.3169 55.7801 26.6981C55.407 26.662 55.153 26.4091 54.8496 26.2258C54.5269 26.0375 54.2063 25.8807 53.9798 26.3485C53.5339 27.0998 52.6926 27.6643 52.8687 28.724C52.8911 28.8746 52.7191 29.0568 52.6061 28.9754C52.1612 28.6619 51.4598 29.0874 51.1402 28.4553C51.2196 28.1142 51.5657 27.9778 51.7469 27.6429C51.0104 27.5732 50.5767 27.335 50.8302 26.4504C50.9645 25.979 51.218 25.2909 50.3553 25.0328C50.1328 24.9743 50.0789 24.6292 50.0992 24.3554C50.1807 24.0459 50.3588 23.7619 50.2636 23.4163C50.2173 23.2387 50.2214 22.9088 50.3038 22.9099C51.3813 22.8625 51.6516 21.4032 52.5601 21.4872C51.7855 21.759 51.6999 20.6301 51.0459 20.3649C50.9716 20.2937 50.912 20.2056 50.8647 20.1104C50.7232 19.5872 51.0397 19.2879 51.3899 19.0181C51.7645 18.7341 52.132 18.4379 52.4277 18.0607C53.5577 17.4998 53.6376 16.9211 52.6985 15.9708C52.502 15.7743 52.3976 15.5814 52.5223 15.304C52.5839 15.2272 52.6623 15.1651 52.7549 15.1274C53.2706 15.2114 53.7872 15.2129 54.2682 14.9569C54.3409 14.9553 54.4183 14.9757 54.484 14.962C55.5839 14.6723 56.2888 15.137 56.6767 16.1387C56.7872 16.4263 57.2519 16.3107 57.2325 16.6986L57.259 16.7159Z" fill="#F9EBE0"/>
<path d="M14.5123 -6.5893C15.1537 -5.68637 14.436 -5.12036 13.9678 -4.51975C13.3886 -3.77255 13.3621 -3.78985 14.1073 -3.2422C14.5735 -2.89202 14.7888 -1.6669 14.4066 -1.15739C14.202 -0.890681 13.9678 -0.786843 14.4331 -0.550682C14.6621 -0.43871 14.4412 -0.227985 14.3114 -0.127712C14.0203 0.0748706 13.8259 0.3029 13.8645 0.706017C14.541 0.532439 15.3065 0.60979 15.565 -0.294175C15.621 -0.506932 15.9147 -0.522716 16.2501 -0.382751C15.9743 -0.0417249 15.5452 0.33137 16.1881 0.717679C16.2771 0.772139 16.0445 1.14523 15.7844 0.994066C15.392 0.756377 15.2403 1.0577 15.0968 1.28878C14.8296 1.71481 15.0291 2.05684 15.3798 2.33525C15.0419 2.5979 14.7436 2.78826 15.0933 3.3456C15.3335 3.72937 15.7056 3.65149 15.8639 3.79654C16.4202 4.31519 16.4223 3.75734 16.6264 3.53186C16.7567 3.39036 16.8523 3.10532 17.1247 3.24936C17.3873 3.39085 17.5909 3.59953 17.424 3.95888C17.3517 4.11565 17.2575 4.277 17.3298 4.51317C17.9823 4.50909 18.5794 4.67653 19.095 5.15344C19.4956 5.51736 19.9837 5.27354 20.001 4.85414C20.0432 3.98632 20.5904 4.26472 21.0347 4.22654C21.3213 4.19854 21.5524 4.53854 21.8603 4.35071C21.8913 4.38991 21.9127 4.42655 21.9438 4.46574C21.8186 5.17731 20.9604 4.94116 20.6896 5.45931C20.6606 5.64814 20.6169 5.85378 20.7268 5.98611C21.3004 6.67476 20.8831 7.08196 20.3446 7.47796C20.0361 7.70701 19.7521 8.11827 19.3169 7.80729C18.925 7.52837 19.2839 7.14714 19.3164 6.66971C18.8049 7.04179 18.2745 7.17108 17.9544 6.58015C17.6795 6.05285 17.2265 5.80956 16.6854 5.62583C17.4805 5.86605 17.851 6.30479 17.622 7.17516C17.1385 9.01261 17.1578 9.0177 15.7245 9.00246C14.673 8.51895 13.7059 7.87153 12.7164 7.26993C12.3601 7.05209 11.9875 6.77826 11.7961 6.36599C12.5036 6.03513 12.9872 6.55531 13.5516 6.80724C13.8428 6.9976 14.0469 7.36152 14.5635 7.16657C14.3421 6.63265 14.2321 6.10738 14.5278 5.53374C14.7666 5.05885 14.4561 4.86341 13.9797 4.94485C13.4595 5.03546 13.121 4.74993 13.1724 4.31882C13.2747 3.49782 12.9749 2.82953 12.6705 2.13935C12.4771 1.69551 12.8227 1.20739 12.5987 0.683137C12.0022 0.867402 11.396 1.24559 10.7582 0.839941C10.4212 0.627191 9.98912 0.461779 10.068 -0.0344847C10.1392 -0.501736 10.5724 -0.615248 10.9475 -0.744029C11.2203 -0.837688 11.5181 -0.593889 11.8703 -0.832102C11.3048 -1.39452 11.1043 -2.04704 11.23 -2.79983C11.2742 -3.04669 11.2635 -3.35972 10.922 -3.39788C10.6823 -3.42995 10.551 -3.20599 10.4563 -3.00341C10.2074 -2.48984 10.0781 -1.84139 9.25358 -2.04802C9.47905 -2.6298 9.25559 -3.39174 9.97326 -3.76128C10.7779 -4.69732 12.1965 -4.66529 12.9656 -5.66241C13.3575 -6.16936 13.8965 -6.41013 14.4879 -6.57505L14.5123 -6.5893Z" fill="#F9EAE0"/>
<path d="M25.614 -1.46553C25.1467 -1.34031 24.7858 -1.38357 24.8759 -2.00097C24.9472 -2.46822 24.7191 -2.66265 24.3028 -2.73084C23.9567 -2.7909 23.5703 -2.73745 23.3667 -3.14259C23.2507 -3.3696 23.1881 -3.21029 23.0776 -3.10492C22.6007 -2.58931 22.1243 -2.9008 21.8377 -3.26574C21.4127 -3.81187 20.9984 -4.24145 20.2639 -4.27961C20.1621 -4.28572 20.0125 -4.34577 19.982 -4.42619C19.7107 -5.24209 19.0093 -5.20951 18.3583 -5.3291C17.7653 -5.43344 17.3148 -5.88286 16.6109 -5.8406C15.992 -5.807 15.8703 -6.56284 16.3213 -7.33345C16.6837 -7.21741 17.0282 -7.42661 17.3774 -7.41746C17.8818 -7.40881 18.5588 -7.62362 18.3359 -6.65858C18.285 -6.46516 18.4407 -6.31043 18.6367 -6.26921C18.9125 -6.2173 19.1253 -6.35778 19.2663 -6.57919C19.4419 -6.85354 19.3324 -7.22357 19.5661 -7.48265C20.0705 -7.67048 20.5535 -7.50201 21.037 -7.37477C21.6173 -6.82915 21.6667 -6.11301 21.7135 -5.38719C21.7379 -5.00851 21.8581 -4.71839 22.3116 -4.90927C22.6506 -5.0579 22.9738 -5.50021 23.3163 -4.9551C23.5851 -4.52246 23.3382 -4.1738 22.9025 -3.85415C23.5576 -3.8679 23.5693 -4.22674 23.4446 -4.53875C23.1667 -5.21162 23.4181 -5.5384 24.0513 -5.74404C24.4239 -5.86315 24.5155 -6.40777 24.9909 -6.40676C26.2547 -6.0225 27.5333 -5.65503 28.7772 -5.23464C29.2796 -5.06108 29.8161 -4.89923 30.2436 -4.55924C30.9771 -3.84922 30.3796 -3.18956 30.2447 -2.48054C30.293 -2.46781 30.3068 -2.59862 30.375 -2.62204C31.2062 -2.95137 32.0363 -2.8053 32.2119 -2.29378C32.3738 -1.84791 31.7488 -0.730162 31.1645 -0.553023C30.0981 -0.233868 29.126 0.120406 28.7229 1.33791C28.5616 1.83316 28.1986 1.75834 27.9543 1.31146C27.8856 1.17963 27.851 1.0361 27.8357 0.897654C27.6703 -0.438433 27.0188 -1.30268 25.5966 -1.43906L25.614 -1.46553Z" fill="#F9EBE1"/>
<path d="M50.2351 24.3498C50.3934 24.6913 50.4459 25.1601 51.0322 25.0145C51.2414 24.9661 51.4898 25.0832 51.5524 25.3168C51.668 25.7815 51.303 25.4787 51.1569 25.523C51.0765 25.5535 50.9931 25.635 51.0485 25.6599C51.9153 26.1775 50.5645 26.7527 51.0918 27.2637C51.4395 27.593 51.7352 27.4123 51.9927 26.9837C52.1816 27.7986 51.9286 28.2491 51.2084 28.4318C51.0603 28.8375 50.4821 28.7164 50.25 29.2447C51.7632 29.0742 52.176 30.6098 53.3228 31.0459C53.7936 31.2215 53.6022 32.1845 53.0958 32.5373C51.9679 33.3262 51.8397 34.4816 52.7523 35.6111C52.6607 35.9592 52.425 36.1867 52.1125 36.3527C51.4427 36.7762 50.8665 36.2936 50.2522 36.1527C50.0781 36.1069 49.9539 35.9501 49.9905 35.7322C50.0516 35.3037 50.4033 35.3032 50.7123 35.2294C50.3478 35.2782 50.2094 34.9006 49.9412 34.8196C49.8027 34.8349 49.7289 34.9189 49.6912 35.0227C49.5686 35.3317 49.6057 35.662 49.5024 35.9761C49.1014 37.2251 48.738 37.388 47.5271 36.8419C47.3031 35.9247 47.8966 35.2019 48.1103 34.3896C48.2844 34.0424 48.5765 33.7574 48.6493 33.3629C48.3994 31.7978 49.0967 30.3268 49.0819 28.7719C49.0752 27.5396 48.9128 26.3491 48.7555 25.1392C48.7179 24.8501 48.6145 24.5748 48.6909 24.2847C49.1103 24.1055 48.9102 23.8047 48.8507 23.5202C48.784 23.2234 48.3931 22.862 48.9682 22.6411C50.3578 23.0585 50.4723 23.2127 50.2183 24.335L50.2351 24.3498Z" fill="#F9ECE2"/>
<path d="M43.2829 1.17778C44.2556 1.76462 45.1387 2.5347 46.3074 2.76983C47.2103 3.3073 47.6084 4.2703 48.2049 5.06838C48.465 5.41601 48.5948 5.90514 48.2314 6.2645C47.7942 6.70783 47.5407 6.21717 47.2648 5.96879C47.1233 5.83849 46.962 5.74434 46.793 5.87566C46.5701 6.05482 46.482 6.31085 46.6902 6.54141C47.3219 7.24533 46.8572 7.55735 46.2408 7.77775C45.7145 7.97016 45.3343 8.70769 44.6299 8.20177C44.5357 8.16665 44.4466 8.11219 44.3723 8.04093C44.1056 7.63986 44.0786 7.07437 43.5722 6.8377C43.4037 6.73133 43.2377 6.61528 43.0866 6.48244C42.741 6.18469 42.603 5.7658 42.4625 5.35657C42.3923 5.15196 42.3226 4.90612 42.5618 4.78295C42.7766 4.67402 42.9786 4.80991 43.1441 4.96719C43.1945 5.01147 43.252 5.06796 43.2876 5.12904C43.6862 5.85434 44.1188 5.97852 44.6283 5.18195C44.6675 5.1509 44.6247 5.07761 44.5636 5.11324C43.6475 5.64769 43.792 3.7624 42.686 4.3503C41.9143 4.76769 41.2353 3.96859 40.6256 3.45656C40.3543 3.23007 40.0982 2.94555 39.6855 2.9817C38.6436 3.09013 38.8212 2.65087 39.2818 2.07927C39.4706 1.91181 39.6997 1.82732 40.1491 1.57332C39.2609 1.60846 39.0029 0.899447 38.3733 0.816494C38.0923 0.783924 37.9101 0.61189 37.9187 0.303953C37.9325 -0.0233258 38.1121 -0.234558 38.4236 -0.318038C38.8033 -0.424933 39.2212 -0.283952 39.5734 -0.522164C40.1308 -0.67538 40.6387 -0.562395 41.1421 -0.274827C41.8863 0.158815 42.6131 0.618925 43.3002 1.15131L43.2829 1.17778Z" fill="#F9EAE0"/>
<path d="M33.6401 -3.83095L33.9297 -3.71338C34.2112 -3.3291 34.6133 -3.08886 35.0256 -2.88731C35.6837 -2.55903 36.2171 -2.14981 35.6792 -1.20563C36.3688 -1.27232 36.1413 -2.29386 36.8417 -2.04752C37.315 -1.8816 37.7757 -1.66732 38.0317 -1.18634C38.1238 -0.986307 38.2363 -0.667175 38.1065 -0.566902C37.3273 0.0759631 37.6704 1.16926 37.0988 1.88745C36.8647 2.18776 36.8438 2.69929 36.3226 2.67589C35.7312 2.64434 35.7988 2.07275 35.6141 1.71392C34.4765 2.30385 34.3065 2.7141 34.8603 4.02829C35.1031 4.59886 35.2293 4.98365 34.4185 5.03915C33.7232 5.16641 33.9559 5.97213 33.5131 6.27956C33.1384 6.36712 32.8977 6.22104 32.7516 5.87239C32.7679 5.33897 32.898 4.81828 33.142 4.3103C32.6559 4.38921 32.1866 4.67934 31.7255 4.30982C31.504 3.97237 31.7651 3.64814 31.8084 3.28727C31.475 3.76827 31.2557 4.24824 30.9472 4.67376C30.4688 4.72365 30.3176 4.39434 30.1741 4.03602C30.5945 3.18498 30.7797 2.12731 31.9606 1.96237C31.7483 1.86516 31.3783 1.9746 31.3544 1.55469C32.182 1.31748 32.8518 0.893992 33.1607 0.0343076C33.2513 -0.231385 33.4778 -0.50268 33.1923 -0.753605C32.9403 -0.975009 32.7291 -0.761739 32.5474 -0.582064C32.3779 -0.409514 32.1829 -0.336725 31.9738 -0.484836C31.7116 -0.667557 31.79 -0.926124 31.8755 -1.17248C31.9412 -1.38269 32.0526 -1.57051 32.2241 -1.7115C32.8517 -2.24951 33.0115 -3.01401 33.2268 -3.75357C33.3398 -3.86861 33.4737 -3.90576 33.633 -3.84316L33.6401 -3.83095Z" fill="#F9EBE2"/>
<path d="M32.3982 -1.66569C32.2964 -1.47533 32.1682 -1.30227 32.0857 -1.10682C32.018 -0.928162 31.7966 -0.676209 32.1107 -0.57289C32.4318 -0.457357 32.3947 -0.787688 32.4527 -0.968889C32.6166 -1.47381 33.0019 -1.24833 33.2406 -1.13382C33.5226 -0.987233 33.9252 -0.788227 33.6646 -0.308757C33.5455 -0.0919262 33.46 0.154425 33.3048 0.351406C32.9994 0.726026 32.612 1.0584 33.0218 1.66256C32.3352 1.67835 31.8603 1.24318 31.3732 1.601C31.0663 1.70637 30.7247 1.47174 30.431 1.68399C30.0824 2.02654 29.7287 2.38844 29.4105 1.82907C29.7765 2.24592 29.6386 2.80937 29.0975 3.01858C28.3712 3.30311 27.8836 3.89864 27.2031 4.20557C26.1403 4.03966 25.1544 3.73887 24.4596 2.84256C25.4328 1.03055 24.9564 1.30846 26.9328 1.73546C27.003 0.761262 27.2483 -0.24959 25.9483 -0.6537C25.8328 -0.921934 25.7269 -1.18762 25.6139 -1.46553C25.958 -1.6335 26.3504 -1.39581 26.6797 -1.54699C27.0091 -1.69816 27.0462 -1.5643 27.2004 -1.28589C27.6372 -0.509181 28.1935 0.205934 28.1355 1.17301C28.1218 1.30382 28.2073 1.45041 28.3981 1.51097C28.5997 1.09869 28.818 0.701167 28.9931 0.271578C29.1611 -0.170225 29.4196 -0.288315 29.9113 -0.427787C30.7267 -0.657865 31.788 -0.761209 31.9941 -1.93748C32.0302 -2.1141 32.1361 -2.24135 31.961 -2.40117C31.5243 -2.78494 30.549 -2.57623 30.3505 -2.01838C30.2752 -1.81071 30.2131 -1.69262 29.9836 -1.76337C29.7276 -1.85142 29.7978 -2.03974 29.8726 -2.20618C30.2141 -2.95389 30.4879 -3.71941 30.2533 -4.55669C30.608 -5.00105 30.7892 -4.55009 31.03 -4.40401C31.5283 -4.0971 31.8866 -3.65124 32.2424 -3.1957C32.729 -2.72643 32.9291 -2.22915 32.4053 -1.65348L32.3982 -1.66569Z" fill="#FAEDE5"/>
<path d="M9.26833 -2.06481C9.73354 -2.22159 10.1458 -2.41298 10.1387 -3.0146C10.1372 -3.28385 10.353 -3.47523 10.5321 -3.64524C10.9469 -4.04277 11.4737 -3.88346 11.5613 -3.31238C11.6015 -3.03295 11.4936 -2.74079 11.4926 -2.46186C11.5063 -2.00327 11.2763 -1.44338 12.0311 -1.28612C12.2948 -1.22708 12.393 -0.932378 12.1884 -0.665665C11.9914 -0.427964 11.7583 -0.0136441 11.4305 -0.37909C10.9256 -0.935912 10.719 -0.111349 10.3225 -0.215683C10.2354 -0.238586 10.1693 0.012854 10.2355 0.154351C10.4548 0.656716 11.5405 0.932058 11.9457 0.531986C12.3065 0.182305 12.6654 0.390473 13.101 0.26729C13.0125 0.761009 12.9713 1.15344 12.8746 1.52093C12.8059 1.78204 12.8099 2.04162 12.9504 2.25438C13.3505 2.85599 13.6976 3.423 13.3627 4.22415C13.2554 4.47508 13.3902 4.94487 13.9959 4.60791C14.5405 4.30658 15.0714 4.72547 14.992 5.26296C14.8047 6.48555 14.8098 6.85914 15.0012 7.46789C14.3121 7.68982 13.7181 7.66794 13.4249 6.85662C13.1867 6.11147 13.0874 5.30982 12.1453 4.99987C11.7371 4.86143 11.7477 4.38858 11.8185 3.96256C12.0505 2.64835 11.8291 2.50737 10.576 2.23966C9.72447 2.05695 10.0161 2.79549 9.70056 3.01232C9.21805 3.19557 9.32492 2.59292 9.02513 2.51404C9.04954 1.51744 8.61027 0.553938 8.78025 -0.445715C8.8744 -1 8.84792 -1.60672 9.26121 -2.07703L9.26833 -2.06481Z" fill="#F8E8DD"/>
<path d="M52.7523 35.6111C52.7523 35.6111 52.6816 35.6441 52.6525 35.6365C51.9914 35.5556 51.8565 35.0858 51.9552 34.5534C52.0931 33.7935 51.4034 32.6814 52.6973 32.4014C53.2566 32.2797 53.2913 32.0303 53.3376 31.6186C53.3925 31.0953 53.0927 31.0164 52.6881 30.9823C52.0289 30.933 51.9918 30.2097 51.5612 29.9206C51.2629 29.718 50.9977 28.9968 50.563 29.8234C50.4811 29.9776 50.1833 29.9303 50.162 29.6972C50.1365 29.401 50.0983 29.1531 49.883 28.9103C49.7634 28.7754 49.8957 28.469 50.0958 28.5734C50.5416 28.8044 50.817 28.3082 51.2135 28.4125C51.4151 28.5896 51.6579 28.7672 51.8742 28.5346C52.3781 27.9951 52.401 28.6939 52.6662 28.8258C52.6692 27.989 52.4691 27.0988 53.5339 26.7068C53.6826 26.6529 53.7324 26.3455 53.822 26.1622C55.4452 26.7134 55.7333 27.5441 55.0019 29.0268C54.4471 30.1527 54.4782 31.3707 55.0315 32.5296C54.5098 33.7262 53.6059 34.6465 52.7452 35.5988L52.7523 35.6111Z" fill="#F9E9DE"/>
<path d="M44.4451 8.03943C44.7871 7.8399 45.0554 8.11729 45.3552 8.19618C45.3099 7.73962 45.5465 7.62611 45.9761 7.60472C46.2795 7.59149 46.6108 7.47187 46.8134 7.1736C46.7828 6.70024 46.1965 6.84582 46.0535 6.44627C46.2912 6.05384 46.5365 5.63239 46.8113 5.17735C47.2022 5.34226 47.3778 5.65731 47.5952 5.93165C47.7194 6.08842 47.7861 6.38516 48.0599 6.20904C48.2579 6.08536 48.2609 5.83799 48.1739 5.61862C48.0446 5.28472 47.9005 4.96763 47.6272 4.70958C47.047 4.16395 46.7701 3.40862 46.3048 2.77953C47.2007 2.91184 47.7249 3.67022 48.4523 4.08911C48.7027 4.23773 48.9842 4.42554 49.202 4.65865C50.1014 5.09178 50.8547 5.76566 51.7394 6.21559C51.8559 6.2049 51.9501 6.24002 52.0168 6.34028C51.973 6.54592 51.9318 6.74188 51.7027 6.82637C50.9525 7.2804 49.8836 7.41276 49.9315 8.64553C49.2006 9.10465 48.5506 8.50965 47.8467 8.55191C47.8004 9.35662 47.3005 9.7628 46.5778 9.36581C46.2235 9.17952 45.9899 9.24213 45.6911 9.27726C45.4193 8.89552 45.1877 9.38263 44.9266 9.31392C44.7118 9.22638 44.5449 8.79985 44.2583 9.22079C43.5091 8.80649 43.5406 8.60798 44.4329 8.04655L44.4451 8.03943Z" fill="#F9EBE1"/>
<path d="M38.9731 38.934C39.3502 38.6403 39.0733 38.0814 39.4505 37.7877C39.791 37.5154 40.16 37.292 40.6181 37.3194C41.1108 37.4905 41.5119 37.8131 41.8565 38.1934C43.2348 39.7142 44.9043 40.0501 46.7952 39.3481C47.5627 39.0641 47.9516 39.5904 48.4122 40.0011C48.3955 40.3793 48.2265 40.7071 48.0432 41.0105C47.8157 41.3642 47.5674 41.6401 47.1016 41.2487C46.8471 41.037 46.4913 40.9744 46.1809 41.1719C45.5599 41.5668 44.9115 41.8305 44.178 41.9064C44.0518 41.9145 43.8273 42.0209 43.8385 41.8998C43.9169 41.2482 43.3423 41.4279 43.0806 41.204C42.2764 40.527 42.3059 40.4935 41.517 40.5444C41.2717 40.3764 41.5012 40.2507 41.5587 40.1107C41.6758 39.8623 41.7399 39.5793 41.4284 39.4663C41.0976 39.3483 41.0991 39.6175 40.9917 39.8684C40.8421 40.2013 40.5133 40.5077 40.0323 40.3708C39.6841 40.2792 39.336 40.1876 38.9853 40.1057C38.5898 39.7224 39.0677 39.3208 38.9756 38.9243L38.9731 38.934Z" fill="#FBF4EF"/>
<path d="M48.4097 40.0108C48.1343 39.7212 47.5037 40.1137 47.3831 39.4718C47.3535 39.309 47.1652 39.4352 47.0334 39.5039C45.3324 40.3489 43.3132 40.045 41.998 38.7166C41.5165 38.228 40.9657 37.8452 40.4572 37.3805C40.0429 37.3439 39.8663 37.1113 39.9997 36.7224C40.133 36.3336 40.4862 36.2094 40.787 36.4023C41.6992 36.9835 41.9872 36.6354 42.0157 35.7019C42.0239 35.4352 42.2717 35.397 42.5043 35.4168C43.022 35.5324 43.4154 35.8841 43.8684 36.1274C44.0318 36.2531 44.2049 36.3813 44.1387 36.6328C43.954 36.8633 43.7041 36.87 43.447 36.8644C43.0592 36.845 42.8266 37.0217 42.766 37.409C42.7034 37.7648 42.8139 38.0524 43.1243 38.2478C43.471 38.4631 43.8578 38.5649 44.2248 38.7028C44.7994 38.9161 45.0957 38.6941 45.2916 38.146C45.4524 37.6919 45.5405 37.2395 45.5196 36.7686C45.5476 36.6623 45.6189 36.588 45.7044 36.5381C45.9456 36.4464 46.2006 36.4205 46.4495 36.4963C46.7936 36.7213 46.4317 37.1534 46.7101 37.3921C46.8903 37.5326 47.0486 37.6777 47.0359 37.9225C47.0135 38.3612 47.2253 38.4997 47.6411 38.4126C48.3852 38.2569 49.081 38.4813 49.7544 38.7516C49.3722 39.2611 48.71 39.4591 48.3853 40.0251L48.4097 40.0108Z" fill="#FAF0E9"/>
<path d="M54.661 9.25926C54.8234 9.27096 54.9557 9.35749 54.9903 9.50102C55.2861 10.8921 56.529 11.7879 56.9001 13.1677C57.0299 13.6569 57.0213 13.9648 56.7525 14.318C56.2542 14.9935 54.9288 15.079 54.3104 14.482C54.2829 14.1542 54.1679 13.8447 54.1282 13.5241C54.063 12.9072 54.4198 12.6909 54.9532 12.7071C54.6305 11.9294 53.6889 11.9712 53.1768 11.4021C52.677 10.6295 51.8855 10.2971 51.062 10.0081C50.9591 9.88793 50.9026 9.74898 50.9021 9.59374C51.4808 8.49483 51.775 8.43781 52.6184 9.28017C52.6663 9.33412 52.7167 9.3784 52.7645 9.43235C53.8232 10.5175 53.9713 10.5048 54.6488 9.26639L54.661 9.25926Z" fill="#F9EBE0"/>
<path d="M55.66 26.6045C56.7533 26.0649 56.9253 25.2933 56.1272 24.3181C55.9592 24.7599 56.3201 25.1961 56.0631 25.5834C54.9138 25.5499 54.4144 24.736 54.9382 23.7674C55.0746 23.5241 55.2802 23.5679 55.494 23.5414C56.206 23.4289 56.7181 23.0156 57.1497 22.4364C56.8132 22.1824 56.4916 22.3045 56.1785 22.3152C56.0014 22.3203 55.7983 22.2669 55.7744 22.0435C55.7433 21.8078 55.9693 21.7742 56.1159 21.6887C56.5969 21.4327 57.1242 21.7472 57.6118 21.5446C57.9595 22.0704 57.8994 22.613 57.8918 23.2314C57.8898 24.3786 57.4047 25.3574 57.2678 26.4278C57.1768 27.1277 56.707 27.6555 56.621 28.336C55.5363 28.1747 55.5846 27.4016 55.6722 26.5974L55.66 26.6045Z" fill="#F9E9DE"/>
<path d="M49.7788 38.7373C49.5742 38.8076 49.3442 38.9745 49.1564 38.8631C48.3669 38.3658 47.5943 38.6692 46.84 38.8636C46.4959 38.4422 47.3001 37.7438 46.4297 37.5148C46.5065 36.7905 46.9804 36.7187 47.5566 36.8083C47.6248 36.7849 47.7001 36.7737 47.7683 36.7503C48.1292 36.5971 48.3659 37.2694 48.7364 36.9223C49.1365 36.5416 49.2718 35.9878 49.3339 35.4768C49.3665 35.1958 49.3405 34.9408 49.511 34.6858C49.7854 34.272 50.0429 34.0399 50.275 34.6904C50.3875 35.0095 50.5494 35.0624 50.839 34.9835C51.3694 34.8542 51.431 35.1703 51.4238 35.551C51.2207 35.6941 51.1133 35.5521 50.9729 35.5358C50.6751 35.4884 50.2389 35.2599 50.1605 35.715C50.0847 36.1603 50.5535 35.9114 50.7779 36.0015C51.2075 36.1766 51.6295 36.3807 52.1028 36.3501C52.0112 36.6983 51.7756 36.9258 51.4631 37.0917C51.2467 37.3243 51.0019 37.1152 50.7662 37.1462C50.4675 37.1813 50.3748 37.4155 50.2822 37.6496C50.1244 38.0527 50.6431 37.8893 50.696 38.1204C50.5713 38.5943 50.0797 38.5373 49.7692 38.7348L49.7788 38.7373Z" fill="#FAEEE6"/>
<path d="M55.66 26.6045C55.9582 27.2 55.9318 27.9686 56.6087 28.3432C56.5843 29.9292 55.9273 31.2866 55.0264 32.5489C54.9908 32.4879 54.9678 32.3784 54.9195 32.3657C53.9621 32.1138 54.0562 31.5595 54.4527 30.878C54.5321 30.7334 54.6278 30.4484 54.5535 30.3771C53.8826 29.7042 54.4624 29.3088 54.8059 28.7891C55.4757 27.7762 55.2502 27.1791 54.1075 26.6096C53.9701 26.5424 53.9146 26.321 53.8195 26.1719C53.8444 25.7235 54.0368 25.4639 54.4969 25.7194C54.9209 25.955 55.3963 26.1525 55.6503 26.6019L55.66 26.6045Z" fill="#F8E7DB"/>
<path d="M37.8485 -1.07947C37.6199 -1.62561 36.9908 -1.55332 36.6849 -1.92335C36.3194 -1.79202 36.5225 -1.54211 36.4839 -1.35582C36.4396 -1.10896 36.3994 -0.79899 36.1581 -0.707368C35.7901 -0.566371 35.6919 -1.05754 35.3631 -1.14406C35.1213 -1.20768 35.33 -1.41128 35.4649 -1.53089C35.9061 -1.91112 35.7687 -2.17477 35.3035 -2.41093C35.048 -2.54021 34.822 -2.70308 34.5639 -2.82268C34.2214 -2.97487 33.7383 -3.14333 33.9226 -3.72561C34.3008 -3.70883 34.5868 -3.49913 34.8825 -3.28689C35.2648 -3.01051 35.7234 -2.8278 36.2018 -2.87769C36.9378 -2.96321 37.5313 -2.70364 38.0938 -2.28679C38.9952 -1.62563 40.0432 -1.24646 41.0388 -0.746655C41.9331 -0.294183 42.8197 0.187302 43.2733 1.17524C42.3301 0.947737 41.6201 0.305919 40.8011 -0.157752C40.3964 -0.388315 39.9684 -0.294144 39.5546 -0.372011C38.7026 0.0759136 38.4058 -0.839747 37.8388 -1.08201L37.8485 -1.07947Z" fill="#FAEFE8"/>
<path d="M24.9959 4.57388C24.5791 4.93985 24.5256 5.73234 23.6924 5.63718C23.4405 5.61224 23.4293 5.92985 23.526 6.15177C23.6298 6.3859 23.7362 6.61036 23.8645 6.83024C24.121 7.27 23.9856 7.43084 23.5011 7.38606C23.4624 7.37588 23.4334 7.36825 23.3947 7.35807C23.0664 7.23032 22.6633 7.85842 22.4511 7.36827C22.2505 6.91222 22.7676 6.87251 23.0776 6.71624C23.329 6.58594 23.3789 6.27851 23.1779 6.06016C22.929 5.78785 22.7305 5.95277 22.6226 6.24493C22.422 6.77123 22.0225 6.52132 21.7105 6.44956C21.372 6.36049 21.3053 6.06376 21.4086 5.74971C21.6656 4.96943 21.0014 4.35 21.0299 3.61299C21.6748 3.63792 22.3186 3.7453 22.8704 4.04559C23.5499 4.41052 24.3643 4.06643 24.9837 4.58101L24.9959 4.57388Z" fill="#FAECE3"/>
<path d="M54.661 9.25925C54.7516 9.77943 54.884 10.2589 54.1413 10.4874C53.5667 10.6671 53.3102 10.2274 52.9244 10.0431C52.7579 9.9683 52.6984 9.68378 52.5548 9.52192C51.7791 8.69738 51.7791 8.69738 51.009 9.58049C50.4924 9.77544 50.2343 9.45936 50.0185 9.06134C49.9696 7.91103 50.5305 7.27275 51.6508 7.10222C52.2402 7.49515 52.8887 7.82088 53.3427 8.37465C53.7138 8.77216 54.4136 8.66679 54.6539 9.24703L54.661 9.25925Z" fill="#FAEDE4"/>
<path d="M54.3873 14.3471C54.4468 14.4352 54.4819 14.5375 54.5562 14.6087C54.6881 14.7365 54.9584 14.8489 55.0276 14.7431C55.4821 14.0768 56.2731 14.8433 56.7428 14.3155C56.951 14.5461 57.3582 14.5705 57.2157 15.1121C57.0859 15.6053 57.2269 16.1697 57.2519 16.7037C56.3332 16.8548 56.325 15.9427 56.0176 15.4999C55.7554 15.1207 55.5717 14.8759 55.2597 15.1971C54.8077 15.6572 54.5568 15.1569 54.2178 15.1091C53.8437 14.7624 53.9292 14.5161 54.3705 14.3323L54.3873 14.3471Z" fill="#FAEDE3"/>
<path d="M19.5711 3.498C19.4882 3.93115 19.8974 4.38006 19.3243 4.829C18.8174 5.22297 18.5181 5.10285 18.1093 4.80917C17.5612 4.41676 18.0763 4.14902 18.2931 3.87518C17.6176 3.57336 16.9158 4.23659 16.3309 3.66908C16.9305 3.04098 17.6416 3.2074 18.3399 3.42218C18.7603 3.55349 19.1456 3.77897 19.5808 3.50054L19.5711 3.498Z" fill="#FAECE3"/>
<path d="M14.5123 4.41071C13.6343 4.99657 12.7273 5.5748 12.0835 6.44976C11.9527 6.63249 11.7639 6.79995 11.544 6.73175C10.9011 6.54191 10.4787 6.96845 9.98801 7.22193C10.2873 6.55617 10.7754 6.11589 11.4742 5.8965C12.2413 5.6537 12.8225 5.13452 13.4374 4.64486C13.7656 4.37968 14.2324 4.29568 14.6274 4.13076L14.5123 4.41071Z" fill="#FAEEE5"/>
<path d="M53.3498 8.3869C52.7156 8.08559 51.9776 7.94309 51.6717 7.18012C51.4701 7.003 51.5643 6.84165 51.7068 6.69302C51.8126 6.56577 51.916 6.4482 52.0218 6.32095C52.1109 6.57188 52.3328 6.67163 52.5446 6.81007C53.1223 7.1689 53.4557 7.67024 53.3401 8.38435L53.3498 8.3869Z" fill="#FBF2EC"/>
<path d="M50.7083 38.1133C50.4059 38.0441 50.1112 38.1423 49.759 38.3805C50.4364 36.1598 50.5901 36.6759 51.4753 37.0846C51.428 37.5788 51.1042 37.8659 50.7108 38.1036L50.7083 38.1133Z" fill="#F9EBE1"/>
<path d="M9.04192 2.5288C9.36716 2.51098 9.36615 2.98638 9.69139 2.96856C10.3846 3.59561 10.9924 4.27255 10.8947 5.31191C10.1536 4.82737 9.32902 4.42426 9.16918 3.42055C9.20939 3.11057 9.19615 2.80722 9.04192 2.5288Z" fill="#F9F0E9"/>
<path d="M51.7419 6.2059C50.5926 6.17233 49.9258 5.3661 49.2046 4.64896C50.1981 4.92074 51.2385 5.13245 51.7419 6.2059Z" fill="#F9EAE0"/>
<path d="M36.3085 36.4853C37.47 36.9047 38.1159 37.6331 37.8014 38.9462C37.2288 38.1751 36.7808 37.3231 36.3085 36.4853Z" fill="#FBF7F4"/>
<path d="M32.0165 7.8379C31.5334 7.66943 31.5334 6.88356 30.8244 6.94516C30.6982 6.9533 30.8931 6.68405 31.0326 6.58632C31.4621 6.56493 31.8302 7.01334 32.2938 6.78378C32.5341 6.97108 32.4801 7.2154 32.4384 7.45259C32.3585 7.63837 32.2282 7.77987 32.0261 7.84044L32.0165 7.8379Z" fill="#F9EBE1"/>
<path d="M38.9731 38.934C39.3879 39.3224 38.8494 39.7184 38.9828 40.1154C38.5527 39.9815 37.6564 40.4798 37.9612 39.3606C38.4697 39.6288 38.6906 39.2216 38.9705 38.9437L38.9731 38.934Z" fill="#FBF7F4"/>
<path d="M32.3412 7.46836C32.2226 7.25102 32.2959 7.0118 32.2938 6.78377C32.8247 6.61325 33.236 6.89726 33.6401 7.16905C33.5012 7.22555 33.3719 7.28459 33.2329 7.34109C32.9565 7.52688 32.6914 7.78799 32.3412 7.46836Z" fill="#FAEFE6"/>
<path d="M38.6808 30.7709C38.2201 29.3778 37.8424 27.9445 37.3303 26.5896C36.8651 25.3711 36.3352 24.0839 35.4501 23.0858C34.2061 21.683 33.097 20.1607 31.7206 18.8679C30.7495 17.9609 29.7116 17.1501 28.6789 16.3199C28.3379 16.0441 27.9744 15.814 27.8222 15.3707C28.2814 15.1192 28.5679 15.4842 28.8636 15.6964C30.015 16.5474 31.2081 17.3577 32.2607 18.3482C32.4118 18.481 32.5533 18.6113 32.7045 18.7442C33.0776 19.1732 33.6477 19.3646 34.0259 19.7743C34.1725 20.0817 34.5282 20.1443 34.7339 20.3846C34.9772 20.7175 34.7069 21.3908 35.4297 21.3949C35.7717 21.3918 36.1082 21.4494 36.4344 21.5455C37.6153 21.1841 38.0352 22.339 38.8501 22.7396C39.6614 24.0181 40.2341 25.3786 40.5263 26.8618C40.537 26.9784 40.5405 27.0827 40.5415 27.1967C40.5125 27.7785 40.7238 28.3511 40.6851 28.9303C40.421 29.3055 40.3558 29.6709 40.7421 30.0104C40.9432 30.4252 40.9478 30.8401 40.7366 31.2498C39.997 31.8204 39.4962 31.7196 39.1933 30.9058C39.064 30.5719 39.0274 30.2003 38.9439 29.8888C38.9307 30.1749 39.2315 30.5642 38.7077 30.747L38.6808 30.7709Z" fill="#F7E2D3"/>
<path d="M32.2123 18.5319C31.1165 17.7058 30.0181 16.8894 28.9247 16.0537C28.5812 15.7875 28.2376 15.5213 27.8319 15.3732C26.253 14.5752 24.8625 13.4544 23.2215 12.7744C23.0637 12.5881 23.1655 12.3978 23.3141 12.3438C23.8842 12.1422 23.9508 11.6531 24.044 11.1813C24.1152 11.107 24.2007 11.0571 24.303 11.022C24.9657 10.9792 25.4157 11.4698 25.9634 11.707C26.1033 11.7645 26.2311 11.8292 26.3685 11.8964C27.2893 12.3661 28.262 12.7565 29.1232 13.3347C30.1508 13.9877 31.1734 14.6601 32.1049 15.4429C32.4098 15.6989 32.7172 15.9452 32.8164 16.3539C32.5884 16.9454 31.8351 17.4503 32.5243 18.2107C32.6032 18.3039 32.4403 18.5299 32.222 18.5344L32.2123 18.5319Z" fill="#F6DDCC"/>
<path d="M15.7367 8.99534C16.1933 8.75356 16.6845 8.65531 17.308 8.6436C17.0978 8.185 16.9201 7.83839 17.2438 7.35484C17.7752 6.55369 17.567 6.12665 16.6737 5.78819C16.5047 5.72305 16.323 5.70625 16.1515 5.65078C15.9825 5.58563 15.9795 5.44006 16.0395 5.29042C16.1143 5.12398 16.2752 5.06289 16.378 5.18301C16.8727 5.77852 17.9182 5.57796 18.2022 6.54197C18.3234 6.94611 18.7845 6.92268 19.0253 6.47935C19.152 6.23351 19.3174 5.99784 19.6035 6.20754C19.8463 6.38517 19.7312 6.66512 19.6193 6.89416C19.4971 7.16189 19.0665 7.4622 19.4371 7.70447C19.7282 7.89483 19.9761 7.46371 20.197 7.25299C20.3491 7.10691 20.4026 6.90382 20.6795 6.87327C20.9223 6.85444 20.9625 6.54446 20.8128 6.48441C20.1247 6.23094 20.5252 5.61252 20.3313 5.20991C21.0968 5.0908 21.8761 4.84087 22.2558 5.91279C22.4197 6.39021 22.7989 5.93161 23.0758 5.90106C23.402 5.80079 23.7237 5.67862 24.0286 5.93464C24.1716 6.13772 24.1569 6.35099 24.0596 6.56324C23.4005 7.29975 22.4355 7.46977 21.5631 7.60213C20.7441 7.72786 20.3772 7.98287 20.3746 8.77842C20.3777 8.92399 20.2718 9.05124 20.1568 9.13471C19.7796 9.23194 19.4442 9.09197 19.1011 8.98102C18.8283 8.87821 18.5754 8.73926 18.3407 8.49139C18.3789 9.1322 18.3835 9.74349 18.1942 10.3451C17.3258 10.1477 17.4928 9.59183 17.8358 8.91691C17.0601 9.66412 16.3923 9.52976 15.7367 8.99534Z" fill="#FAEDE3"/>
<path d="M42.5486 35.5629C42.3639 35.597 42.0544 35.5156 42.2076 35.8764C42.3537 36.2251 42.1858 36.4704 42.056 36.7672C41.8463 37.2497 41.6452 37.4243 41.2385 36.9657C41.1428 36.8578 41.0619 36.7331 40.9438 36.671C40.7077 36.5468 40.4241 36.3274 40.1895 36.669C39.9549 37.0105 40.2537 37.1719 40.4501 37.3683C40.1748 37.6681 39.8383 37.8071 39.4408 37.7852C39.1364 36.7021 39.4342 35.5706 39.1832 34.4809C39.0127 33.7535 39.034 33.0043 39.0529 32.2647C39.5949 32.5625 39.7125 33.0587 39.7604 33.5056C39.8367 33.2155 39.9003 32.7773 40.2963 32.5299C40.7183 32.3411 41.1723 32.5019 41.0629 32.9177C40.7906 33.9525 41.495 34.262 42.1277 34.6869C42.2768 34.7882 42.3939 34.9328 42.4988 35.0845C42.5817 35.2407 42.6138 35.3939 42.539 35.5604L42.5486 35.5629Z" fill="#FAEEE6"/>
<path d="M10.9043 5.31444C10.631 4.46698 9.90365 3.85163 9.70106 2.97109C9.76365 2.61531 9.6588 2.26716 9.58041 1.93632C9.91735 1.75613 10.1958 1.79837 10.4533 1.95921C10.6025 2.06049 10.804 2.23762 10.9409 2.14956C11.4983 1.79988 11.9737 1.60442 11.9864 2.53841C11.9854 3.0138 12.784 3.35837 12.1361 3.97375C11.7777 4.31375 11.9274 4.76675 12.5122 4.94132C13.375 5.19936 13.6585 5.81167 13.4513 6.87393L11.818 6.36141C11.5167 6.01327 11.2153 5.66513 10.914 5.31698L10.9043 5.31444Z" fill="#F8E6DA"/>
<path d="M18.1819 10.3523C18.0135 10.0494 18.015 9.72927 18.0506 9.39741C18.0669 9.25693 18.0811 9.08489 18.16 8.98156C18.4359 8.64054 17.4037 8.55505 18.0144 8.19875C18.4908 7.92083 18.5087 8.63901 18.8823 8.63391C18.9769 8.6278 19.0777 8.71636 19.1816 8.75403C19.0579 9.73485 19.6096 10.2316 20.425 10.5909C20.8134 10.7655 21.274 10.7833 21.585 11.134C21.7662 11.3885 22.1037 11.3635 22.3271 11.5361C22.5012 11.7784 22.4911 12.0135 22.2605 12.2217C20.905 11.5962 19.5374 10.9778 18.1819 10.3523Z" fill="#F9EADF"/>
<path d="M40.4062 32.6622C40.2128 33.0043 40.0291 33.3489 39.7761 33.7993C39.4112 33.3 39.2967 32.7529 39.0528 32.2647C38.7602 31.8051 38.8981 31.2417 38.6736 30.7587C38.9032 30.4365 38.7525 30.0659 38.839 29.5406C39.0284 30.1178 39.4254 30.3774 39.4111 30.9424C39.3984 31.3837 40.0398 31.5007 40.507 31.179C41.0389 31.7119 40.6694 32.1731 40.4017 32.6403L40.4062 32.6622Z" fill="#F7E0D1"/>
<path d="M22.2702 12.2242C22.2681 11.9962 22.3414 11.757 22.2254 11.53C22.2325 11.3457 22.3144 11.1915 22.3602 11.0174C22.4223 10.7029 22.3393 10.3501 22.6407 10.1089C23.1191 10.059 23.4067 10.5379 23.8673 10.5557C24.1106 10.6921 24.3173 10.8499 24.2211 11.1762C23.9697 11.503 24.3203 11.7814 24.3041 12.1183C24.0094 12.413 23.3645 12.1916 23.2215 12.7744C22.7919 12.7958 22.5756 12.439 22.2798 12.2268L22.2702 12.2242Z" fill="#F6DFCF"/>
<path d="M25.9509 -0.663396C27.0737 -0.64713 27.3644 -0.415547 27.3512 0.656379C27.3466 1.02743 26.974 1.34301 27.481 1.73492C27.6347 1.85809 27.1812 2.24544 26.8168 2.09784C26.5536 1.99757 26.3352 1.80569 26.0324 1.7777C25.7901 1.75531 25.5891 1.53696 25.2628 1.63724C25.1676 2.07751 25.1727 2.64758 24.5309 2.76822C24.3238 3.0446 24.0163 2.99473 23.7252 3.00084C23.6285 2.97539 23.544 2.94282 23.4575 2.87869C23.1037 2.45471 22.6135 2.27403 22.1112 2.10048C22.0196 2.05569 21.9376 2.01344 21.8485 1.95898C21.5518 1.63273 20.9685 1.72741 20.8 1.2281C20.6442 0.876901 20.5155 0.50178 20.9211 0.25695C21.2657 0.0477496 21.2901 -0.35944 21.5945 -0.651604C22.0312 -0.0713683 21.62 0.4305 21.4459 0.974101C22.2353 1.2749 22.8874 1.31204 23.5073 0.606573C23.7755 0.294559 24.4316 0.394817 24.5456 -0.19561C24.5507 -0.214951 24.6041 -0.221569 24.6382 -0.233277C24.9991 -0.386489 24.9172 0.357142 25.4104 0.0939865C25.8669 -0.147791 25.1152 -0.55242 25.614 -0.679677C25.7137 -0.705128 25.8298 -0.674591 25.9412 -0.665941L25.9509 -0.663396Z" fill="#F9EBE1"/>
<path d="M21.8628 4.34106C21.8628 4.34106 21.842 4.26319 21.8155 4.24588C21.4989 3.95577 22.1494 3.13425 21.249 3.17651C20.7878 3.19994 20.3389 2.82329 19.8518 3.18112C19.5164 3.43409 19.2619 3.22236 19.1173 2.75002C19.7373 2.63396 20.4697 2.64057 20.5699 1.78801C21.0784 1.46683 21.5447 1.817 22.0312 1.89334C22.1783 1.96307 22.269 2.09032 22.3351 2.23181C22.3718 2.79984 22.5275 3.34751 22.552 3.92266C22.5739 4.50749 22.3611 4.64797 21.8557 4.32885L21.8628 4.34106Z" fill="#F9EAE0"/>
<path d="M22.0384 1.90556C21.5197 2.26542 21.0693 1.816 20.5771 1.80023C20.4615 1.53199 20.5343 1.334 20.8097 1.23067C21.2169 1.45156 21.8175 1.33041 22.0384 1.90556Z" fill="#FCF4EE"/>
<path d="M54.3872 14.3471C54.1541 14.565 54.1048 14.8312 54.2346 15.1238C53.8121 15.7468 53.3479 15.6247 52.8557 15.216C52.5361 14.5838 53.0231 13.6366 51.9583 13.2426C52.3396 13.9944 52.9142 14.7971 51.7125 15.2771C51.6403 15.2374 51.5899 15.1931 51.5787 15.1178C51.542 14.9427 51.5176 14.7605 51.4784 14.595C51.4687 14.789 51.5466 14.9646 51.5492 15.1514C51.6454 15.4145 51.8347 15.4023 52.0301 15.2883C52.2526 15.1503 52.4572 15.0801 52.6582 15.2984C52.6944 16.1042 53.3673 16.0227 53.9063 16.1749C53.9068 16.5266 53.4538 16.6762 53.519 17.0967C53.6508 18.0103 53.6193 18.0123 52.6547 18.1411C52.1997 18.3247 51.8577 18.1968 51.6286 17.7574C51.1023 19.5215 50.46 19.8799 49.384 19.0177C49.3397 18.4786 49.7846 18.2028 50.0762 17.7625C49.3962 17.4388 48.7345 17.5956 48.0784 17.6918C47.7018 17.7478 47.345 17.7676 47.1119 17.3961C46.8884 17.0271 47.1648 16.8413 47.3887 16.5797C47.9206 15.9337 47.6559 15.3678 46.6669 14.9214C47.0395 16.1776 46.9154 16.4137 45.8353 16.4708C45.0606 15.7602 44.2075 15.1118 43.7591 14.1045C43.7922 13.5859 44.2065 13.426 44.602 13.2199C44.1912 13.0911 43.7474 13.2845 43.3804 12.9501C42.908 12.5053 43.1193 13.2744 42.8719 13.2713C42.791 13.3431 42.6983 13.3808 42.596 13.4159C42.3629 13.4373 42.2092 13.3141 42.0682 13.1426C41.7201 12.658 41.404 12.1302 40.7581 11.9913C40.5372 12.202 40.6955 12.74 40.1697 12.6947C40.073 12.6693 39.9742 12.6122 39.8974 12.5507C39.4658 12.1476 39.3039 11.7017 39.6332 11.1576C39.8409 11.0364 40.0959 11.0105 40.2821 10.8527C40.81 10.7331 40.7336 10.4338 40.5784 10.0413C40.2841 9.31248 40.6638 9.00912 41.2909 9.29821C42.0386 9.63972 42.8235 9.13276 43.5294 9.51499C43.646 9.70077 43.6531 9.90946 43.6409 10.1131C43.6267 10.4816 43.1762 10.818 43.5448 11.2252C43.8965 11.6176 44.2115 11.2455 44.5276 11.1839C45.0875 10.6281 44.5515 9.83564 44.9444 9.24622C45.1745 9.27574 45.3643 8.63288 45.6387 9.20142C46.1319 9.3312 46.5752 9.57194 47.0211 9.80301C47.3876 9.98217 47.7658 9.99896 47.9907 9.65488C48.3959 9.05834 48.7796 9.21103 49.3543 9.42428C50.0134 9.67011 50.1616 10.0503 50.0959 10.6535C49.9941 10.8438 49.8144 10.8586 49.6276 10.8611C49.3075 10.8596 49.2347 11.2541 49.2851 11.2984C49.6928 11.6745 50.2939 11.7086 50.7225 12.1626C50.9332 12.3835 51.0024 11.8847 51.1068 11.6847C51.5643 10.771 52.4785 10.5979 53.3315 11.2464C53.4298 11.5411 53.7016 11.5299 53.9311 11.6006C54.8178 11.8856 55.1288 12.2363 55.4698 13.2981C55.2617 13.4604 55.1298 13.3327 55.0738 13.1525C54.9502 12.758 54.6982 12.9296 54.4911 13.0095C54.179 13.1342 54.205 13.3892 54.3475 13.6335C54.4901 13.8778 54.9313 14.087 54.375 14.3542L54.3872 14.3471Z" fill="#FAEFE6"/>
<path d="M49.4425 18.9917C50.6107 19.4645 51.3894 18.8629 51.4067 17.4611C51.4102 17.369 51.3436 17.2687 51.4443 17.1608C51.8159 17.5171 51.8276 18.3371 52.6425 18.1482C52.4822 18.7575 51.9406 19.0079 51.4882 19.3128C51.1456 19.5536 50.9609 19.7842 51.1207 20.1985C50.9802 20.3787 50.7858 20.2138 50.517 20.1741C50.7975 20.4443 50.9889 20.4637 51.2006 20.4056C51.3324 20.3369 51.4719 20.0427 51.6093 20.3064C51.7895 20.6433 52.1285 20.8876 52.0659 21.4399C52.8889 20.3949 53.0503 21.4714 53.4732 21.5931C53.3908 21.985 53.0992 21.8358 52.949 21.817C52.2588 21.7285 51.8292 21.9463 51.6699 22.6696C51.4979 23.4412 50.8428 22.6691 50.4524 23.0524C50.4524 23.4453 50.991 24.0317 50.2326 24.3595C50.3985 23.2967 49.5149 23.1572 48.8766 22.7928C48.6883 22.7226 48.5478 22.1169 48.3071 22.7567C47.4917 23.7727 47.0097 22.9323 46.4701 22.4284C46.2151 22.0615 46.2655 21.7128 46.522 21.3667C46.8335 21.0867 47.3629 21.6293 47.6097 21.0842C47.7879 20.9966 47.9823 20.9651 48.1696 20.9213C48.3131 20.8867 48.4612 20.874 48.6068 20.8709C48.871 20.8887 49.1662 20.9457 49.1255 20.511C49.1473 20.1135 48.9086 19.8025 48.7844 19.4493C48.7508 19.2233 48.8017 19.0299 48.959 18.8645C49.1616 18.7627 49.3713 18.6731 49.4619 18.9968L49.4425 18.9917Z" fill="#FAEEE5"/>
<path d="M52.6582 15.2984C52.2862 15.1798 52.1141 15.5585 51.8149 15.6349C51.5156 15.7112 51.2947 15.7255 51.4769 15.3081C51.4998 15.2211 51.5319 15.1778 51.5828 15.1809C51.6311 15.1936 51.6698 15.2038 51.6744 15.2257C52.1056 14.7394 52.0116 14.0356 51.3924 13.1144C51.9156 12.7764 52.4032 12.5738 52.5987 13.4422C52.6908 13.8387 53.1881 13.6386 53.3637 13.9537C53.1886 14.1868 52.6877 14.2825 53.0507 14.7502C53.1438 14.8678 52.9835 15.0841 52.8461 15.2134C52.7779 15.2368 52.7071 15.2699 52.6486 15.2959L52.6582 15.2984Z" fill="#FBF2EC"/>
<path d="M51.2032 20.396C50.9105 20.9187 50.5618 20.6718 50.3007 20.4067C50.1114 20.2224 50.1414 19.9511 50.3694 19.7526C50.6636 19.4991 50.7059 19.8101 50.801 19.9593C50.8794 20.0936 50.9828 20.1725 51.1329 20.1913L51.2154 20.3888L51.2032 20.396Z" fill="#FAEFE6"/>
<path d="M21.8628 4.34104C21.9952 4.2311 22.3754 4.67238 22.3204 4.01681C22.269 3.46557 21.8419 2.88788 22.2104 2.31272C22.8558 2.09995 23.1785 2.68121 23.6366 2.90515C24.8282 3.24971 25.9999 3.63041 26.7873 4.68553C26.32 5.20368 25.7734 5.08052 25.2451 4.84843C24.8542 4.68353 24.5681 4.6703 24.4001 5.1121C23.5995 5.91479 23.4662 5.91072 22.9429 5.06989C22.7292 5.4893 23.2931 5.78246 23.1012 6.19729C22.7745 6.33879 22.4406 6.46808 21.9993 6.65184C21.9128 6.19477 22.1917 5.60637 21.675 5.40839C21.2597 5.25774 20.7695 5.27352 20.3191 5.21704C20.3568 4.91673 20.5985 4.98035 20.8052 4.94166C21.2088 4.86175 21.6699 4.83832 21.8603 4.35071L21.8628 4.34104Z" fill="#FAEDE4"/>
<path d="M47.5663 36.8108C47.1708 37.017 46.6374 37.0007 46.4394 37.5173C46.2409 37.4858 46.1136 37.3799 46.2398 37.1753C46.3661 36.9707 46.5259 36.7956 46.5121 36.5335C46.5126 34.724 47.6899 33.2759 48.036 31.5677C48.1484 31.2975 48.1835 31.0068 48.209 30.7137C48.3948 30.2042 48.5123 29.7181 48.3423 29.146C48.1117 28.3718 48.4853 27.5808 48.4466 26.7848C48.4532 26.6418 48.4721 26.4916 48.5006 26.344C48.6232 25.8386 48.3448 25.4034 48.217 24.9458C48.2058 24.674 48.2404 24.4246 48.4634 24.2455C48.5585 24.1981 48.6629 24.1946 48.7667 24.2322C48.9515 24.984 49.3964 25.6905 49.1098 26.5043C49.1022 26.5333 49.092 26.572 49.1012 26.6158C49.4305 28.2328 49.3445 30.4851 48.8722 32.005C48.7811 32.3119 48.5984 32.574 48.9562 32.8646C49.201 33.0738 49.0743 33.3197 48.7817 33.4495C48.2299 33.5421 48.4462 34.0954 48.2243 34.3885C48.3007 35.2772 47.6955 35.9659 47.5617 36.7889L47.5663 36.8108Z" fill="#FDF9F5"/>
<path d="M48.7738 24.2444L48.5667 24.3244C48.2933 23.8698 48.3946 23.3278 48.2333 22.8407C48.2394 22.7389 48.2674 22.6325 48.3121 22.5409C48.2663 22.322 48.0052 22.0568 48.332 21.9153C48.588 21.8069 48.8089 21.9891 48.871 22.264C48.9102 22.4294 48.8741 22.606 48.8792 22.7831C48.8838 23.198 49.2853 23.4794 49.2044 23.9441C49.1495 24.2709 48.9825 24.2373 48.7738 24.2444Z" fill="#FDF8F4"/>
<path d="M48.2314 34.4008C48.1057 34.1712 48.1816 33.9223 48.1821 33.6846C48.1846 33.0855 48.5373 33.3955 48.7888 33.4617C48.9522 33.9803 48.5592 34.1768 48.2314 34.4008Z" fill="#FBF1EA"/>
<path d="M43.448 9.62798C43.3589 9.57352 43.249 9.44119 43.1808 9.4646C42.1465 9.74049 42.1343 9.74762 40.7142 9.44633C40.5483 9.72322 40.7229 9.92426 40.8807 10.1105C41.0624 10.3238 41.3464 10.502 41.0441 10.8257C40.7957 11.1015 40.5163 11.1418 40.2032 10.956C40.1142 10.9015 40.0643 10.816 40.0388 10.7163C40.1142 10.1157 39.7034 9.79042 39.2774 9.52321C38.9862 9.33285 38.6086 9.47131 38.4645 9.74362C38.3576 9.95332 38.7083 10.0353 38.889 10.1345C39.1736 10.2714 39.4311 10.4323 39.4947 10.7799C39.1207 12.005 38.3958 11.38 37.7418 11.1148C36.4434 10.587 35.4686 9.57571 34.3259 8.80971C33.8159 8.4687 33.3161 8.089 32.8208 7.73119C32.5852 7.56578 32.379 7.36677 31.978 7.24055C32.2691 7.62737 32.6218 7.74087 32.9277 7.91443C33.1084 8.01368 33.2693 8.14906 33.3517 8.34655C33.421 8.63362 33.2632 8.84027 33.1054 9.04692C32.8051 9.59867 33.1019 10.3179 32.569 10.8498C32.3725 11.0462 32.6229 11.3913 32.9268 11.5333C33.1945 11.6555 33.4724 11.7389 33.7228 11.8876C35.5476 13.0088 35.6484 13.2939 34.9318 15.3492C34.4533 15.792 34.1708 16.276 34.5434 16.9428C34.6574 17.1382 34.6111 17.3536 34.3887 17.4915C33.724 17.5027 33.3387 17.0808 32.9931 16.5865C32.9976 16.2155 33.3519 15.8124 32.5925 15.6332C31.3953 15.3492 31.0548 14.0498 31.8182 12.9168C31.1744 13.0059 30.588 14.1338 29.9945 13.0883C29.5695 12.3457 29.8393 11.91 30.8007 11.4392C29.8077 11.3227 29.4463 11.7136 29.6703 12.6308C29.8133 13.2268 29.6128 13.5566 28.9516 13.4757C28.0706 12.9336 27.0556 12.6252 26.2168 12.0012C26.227 11.9625 26.2346 11.9335 26.2448 11.8948C26.3624 11.6052 26.7528 11.4184 26.566 11.028C26.4998 10.8865 26.3252 10.8819 26.1791 10.9262C25.6432 11.1161 26.1104 11.5803 25.9298 11.874C25.3368 11.7696 24.9275 11.3207 24.4114 11.0815C24.8242 10.2595 25.4599 9.8477 26.4036 9.8375C27.0464 9.83088 28.382 8.72431 28.5805 8.16646C28.6711 7.90077 28.5647 7.87277 28.3519 7.81679C28.0038 7.72518 27.9198 7.45491 27.9941 7.13323C28.0659 6.82122 28.2919 6.59115 28.5998 6.5998C29.0849 6.60335 29.6091 6.37939 30.0382 6.79217C29.9278 7.094 29.517 7.35817 29.9176 7.72209C29.9176 7.52562 29.7623 7.32966 29.8982 7.12759C30.1614 7.03139 30.2713 6.77079 30.453 6.59111C30.5996 6.5056 30.7126 6.39056 30.7487 6.21394C30.8241 5.80981 30.9854 5.51103 31.4806 5.67237C31.7988 5.8388 32.0894 6.07038 32.4498 6.15487C32.6238 6.20067 32.8101 6.23935 32.9817 6.29483C33.3069 6.47348 33.736 6.49332 33.9202 6.89338C34.2017 7.6706 35.0492 7.20079 35.5001 7.60898C35.5678 7.6268 35.6111 7.65886 35.6223 7.73419C35.6798 7.59422 35.4945 7.66955 35.4762 7.58201C35.5368 6.9982 35.6727 6.40319 34.9265 6.13446C34.84 6.07033 34.7901 5.98482 34.7646 5.88506C34.9473 5.03352 35.4848 5.11291 36.0707 5.4015C36.4275 5.57811 36.6535 5.93745 37.0026 6.14307C37.4964 6.4281 37.9071 6.36039 38.1972 5.84733C38.4996 5.32714 38.3993 5.00088 37.761 4.83293C36.939 4.61662 37.2296 3.47293 36.4575 3.14566C36.3272 3.09069 36.4987 2.75323 36.6728 2.60257C36.8346 2.45903 37.0275 2.35469 37.1751 2.18672C38.1834 1.06642 38.3895 1.06896 39.4859 2.24673C39.2757 2.37755 38.9418 2.50684 39.1566 2.79085C39.3714 3.07486 39.4941 2.7659 39.6127 2.5903C39.7832 2.33529 39.9155 2.42182 40.1145 2.60861C40.565 3.05804 41.0399 3.49321 41.5494 3.87545C42.1719 4.33913 42.5928 4.23274 42.945 3.60159C43.1557 3.23308 43.3985 3.41071 43.5197 3.61837C43.6647 3.85301 43.5563 4.1864 43.7034 4.4526C43.8933 4.79209 44.0954 5.12445 44.529 4.77325C44.953 4.41949 45.1836 4.80072 45.2655 5.03943C45.3851 5.37078 44.9922 5.37079 44.7728 5.45783C44.3804 5.61308 44.3901 5.61562 44.3265 6.25033C43.3558 6.28445 43.282 5.18962 42.5653 4.8873C42.8407 5.37337 42.7455 6.01012 43.2871 6.34909C43.2255 6.81889 42.7542 6.88099 42.4305 7.16807C42.8352 7.5951 43.1182 8.05216 42.711 8.61715C43.1472 8.84567 43.8104 8.56521 43.8623 9.27168C43.8786 9.52414 43.7168 9.66768 43.4388 9.58421L43.448 9.62798Z" fill="#F9EBE1"/>
<path d="M39.4661 2.28288C39.2381 2.08845 38.9143 2.17906 38.667 1.97954C38.0017 1.44257 37.902 1.46802 37.5162 2.26612C37.3991 2.51451 37.3141 2.71963 36.9894 2.69623C36.7155 2.67587 36.5725 2.86573 36.6036 3.10139C36.6479 3.44393 36.9069 3.28462 37.111 3.2556C37.2082 3.23982 37.3172 3.25814 37.4286 3.26679C37.6271 3.69128 37.1217 4.15803 37.4836 4.51177C37.8145 4.82632 38.3133 4.69906 38.7317 4.79881C38.9622 5.18004 38.5668 5.38619 38.5169 5.69362C38.3917 6.60165 37.7112 6.90858 36.9233 6.48411C36.5619 6.28561 36.343 5.93848 36.0478 5.68501C35.5368 5.22999 35.2273 5.34503 34.8741 6.05863C34.0974 6.29889 33.849 5.98536 34.0739 5.24834C34.1274 5.04525 34.2485 4.85998 34.2852 4.64213C34.4933 4.67623 34.7015 4.71033 34.9097 4.74443C34.3208 4.31027 34.2358 3.53305 34.2154 3.02101C34.1864 2.42397 34.6383 1.76737 35.3514 1.37595C35.8619 1.08632 35.9464 1.1189 35.9739 1.64315C35.977 1.78872 35.9607 1.9292 35.9515 2.0819C35.9337 2.34606 36.0727 2.48603 36.3221 2.52064C36.5521 2.55015 36.6682 2.38422 36.6947 2.20506C36.7501 1.83706 36.798 1.49807 37.1741 1.28684C37.3696 1.17282 37.3889 0.981442 37.2489 0.727461C37 0.258689 36.7995 -0.197359 37.6881 -0.273725C38.0597 -0.310379 37.8958 -0.787805 37.8388 -1.082C38.3254 -1.00566 38.7748 -0.866715 39.0848 -0.433574C39.2039 -0.257467 39.3841 -0.313458 39.5521 -0.362324C39.4274 0.111545 39.094 0.00313685 38.7774 -0.0905106C38.555 -0.14904 38.3463 -0.14191 38.1839 0.0428552C38.0536 0.184356 37.9834 0.372683 38.0954 0.536574C38.2002 0.68825 38.3641 0.772739 38.5601 0.617494C38.7535 0.47192 39.1637 0.248976 39.1184 0.578291C39.0019 1.37486 39.5811 1.21706 39.9435 1.3331C40.1731 1.40385 40.5181 1.34989 40.5115 1.68938C40.511 1.92708 40.2285 2.01819 40.0127 2.01311C39.7557 2.00751 39.6086 2.13425 39.4539 2.29001L39.4661 2.28288Z" fill="#FAEDE5"/>
<path d="M43.448 9.62799C43.6068 9.53535 43.7753 9.44526 43.7101 9.22131C43.6521 9.00957 43.505 8.93984 43.2933 8.99787C43.1156 9.04419 42.9472 9.13428 42.7746 9.16126C42.5486 9.19486 42.341 9.11954 42.2249 8.89253C42.0875 8.62888 42.2468 8.49501 42.4519 8.38354C42.8794 8.13413 42.7955 7.86386 42.4392 7.64602C42.1093 7.44548 41.8671 7.22662 41.9342 6.69626C42.4677 6.909 42.8993 6.72271 43.2795 6.37812C43.4067 6.48398 43.5243 6.58731 43.649 6.70284C43.8419 7.1879 43.7783 7.82261 44.4354 8.03688C44.4268 8.34482 44.0796 8.36722 43.9799 8.58914C43.8099 8.99939 43.9514 9.12968 44.3652 9.01108C45.2412 9.57248 44.7419 10.1339 44.3734 10.7091C43.8008 10.9203 43.7381 10.2937 43.4007 10.1222L43.4358 9.63512L43.448 9.62799Z" fill="#FAEEE5"/>
<path d="M44.4451 8.0394C43.7108 7.92201 43.4487 7.47733 43.6587 6.70537C44.3891 6.87688 44.3743 7.48308 44.4451 8.0394Z" fill="#F9EBE1"/>
<path d="M30.2234 3.96626C30.5248 4.11793 30.5899 4.53836 30.965 4.60604C31.135 4.58874 31.2776 4.63658 31.358 4.80251C31.4735 5.46368 30.9488 5.72887 30.5854 6.08822C29.6656 6.12539 29.1541 5.51513 28.6329 4.90232C28.9556 4.30476 28.8217 3.55605 29.2869 3.00633C29.575 2.65818 29.8452 2.37772 30.1802 2.95185C30.1517 3.29593 30.3054 3.61557 30.2357 3.95914L30.2234 3.96626Z" fill="#FAEDE5"/>
<path d="M30.5701 5.94979C30.8923 5.58993 31.2409 5.24737 31.245 4.72108C31.1106 4.21006 31.4353 4.23347 31.7672 4.26909C32.3612 4.29097 32.9486 4.2594 33.483 3.60381C33.4718 4.51083 32.917 5.04731 32.8407 5.73037C32.663 5.97316 32.9369 6.18998 32.8855 6.42463C32.7124 6.49283 32.5567 6.53458 32.3984 6.38952C32.0706 6.22054 31.9087 5.77467 31.4593 5.83219C30.9045 5.77927 30.879 6.07245 31.0195 6.48167C30.5085 6.61605 30.5319 6.29132 30.5675 5.95946L30.5701 5.94979Z" fill="#FAF0E8"/>
<path d="M30.2234 3.96629C30.1226 3.68126 29.6355 3.44968 30.0962 3.07454C30.3771 2.51771 30.399 1.92372 30.3191 1.32363C30.7359 1.15413 31.0683 1.34499 31.3732 1.601C31.5549 1.81427 31.8847 1.62186 32.1443 2.01072C31.0932 2.27185 30.9752 3.38857 30.2234 3.96629Z" fill="#F9E9DE"/>
<path d="M32.3412 7.46835C32.6756 7.69077 32.8853 7.01178 33.2329 7.34109C33.2833 7.38537 33.3653 7.42761 33.3912 7.48615C33.5139 7.7666 32.7469 9.18821 32.4079 9.33684C32.6797 8.73623 32.4405 8.27 32.0261 7.84043C32.0312 7.62462 32.1778 7.5391 32.3509 7.4709L32.3412 7.46835Z" fill="#F8E9DD"/>
<path d="M31.7769 4.27163C31.5621 4.38056 31.2877 4.40143 31.2547 4.72362C31.1605 4.68851 31.0689 4.64372 30.965 4.60605C30.7472 3.78354 31.6659 3.43588 31.7473 2.73348C31.758 2.65357 31.9255 2.64593 32.0191 2.72227C32.151 2.85003 32.2507 3.02104 32.2049 3.19512C32.0985 3.56006 31.7652 3.84459 31.7794 4.26196L31.7769 4.27163Z" fill="#F9E9DE"/>
<path d="M34.2923 4.65435C34.3533 4.81519 34.4093 4.99537 34.3249 5.15927C33.9849 5.78329 34.2485 6.0388 34.8812 6.07085C34.8695 6.82262 34.2638 6.57018 33.8698 6.65264C33.6087 6.58393 33.4184 6.48214 33.5024 6.163C33.3054 5.41836 33.8556 5.05646 34.3019 4.6569L34.2923 4.65435Z" fill="#FBF0E9"/>
<path d="M33.5024 6.163C33.5731 6.32638 33.6561 6.48264 33.8719 6.48773C34.0307 6.59156 34.3804 6.36302 34.3885 6.68571C34.3967 7.00841 34.1172 7.04863 33.8368 6.97483C33.6154 6.63737 33.0423 6.88984 32.8977 6.41751C32.687 6.19661 32.294 6.00015 32.8529 5.72325C32.9705 6.02304 33.1893 6.1737 33.512 6.16555L33.5024 6.163Z" fill="#FCF4EF"/>
<path d="M30.3191 1.3236C30.6716 1.97476 30.5973 2.5584 30.0962 3.07452C29.8829 2.66683 29.717 2.74725 29.492 3.09133C29.3164 3.36567 29.2472 3.47155 29.4197 3.64103C29.6472 3.87669 29.4279 4.1602 29.3525 4.1714C28.9347 4.22689 28.9367 4.65138 28.6893 4.8448C27.9422 5.05146 27.3492 4.94713 27.1736 4.04267C27.7986 3.7108 28.0042 2.77222 28.9774 2.9249C29.2558 2.96714 29.4161 2.16141 29.1423 1.94459C28.9092 1.7695 28.7483 1.63411 28.9097 1.33533C28.984 1.21012 29.0924 1.0732 29.24 1.1017C29.55 1.14191 29.3861 1.45036 29.4884 1.6117C29.5597 1.73386 29.6065 1.87027 29.7877 1.92829C30.118 1.89112 30.0819 1.47834 30.3191 1.3236Z" fill="#F9EBE1"/>
<path d="M27.1736 4.04269C27.5207 4.60969 28.1188 4.69468 28.6894 4.84482C29.3673 5.13697 29.7506 5.92029 30.5675 5.95946C30.6765 6.17425 30.6973 6.4486 31.0195 6.48168C30.9747 6.76976 30.8383 6.81659 30.6149 6.64405C29.6331 6.60284 28.8757 6.06231 28.0984 5.55792C27.7737 5.33805 27.4118 5.18078 27.0647 5.00671C26.9298 4.92986 26.8097 4.8362 26.7338 4.69216C25.7281 4.03457 24.6973 3.43246 23.6269 2.90263C23.9079 2.73873 24.2087 2.73516 24.5187 2.77536C25.3565 3.28535 26.1841 3.83402 27.1736 4.04269Z" fill="#FDF7F3"/>
<path d="M50.042 10.7013C50.0318 9.75764 49.0118 9.86149 48.6158 9.32299C47.9083 10.4397 47.7841 10.4794 46.5936 9.85594C46.249 9.67221 45.8102 9.64982 45.6387 9.2014C46.0011 9.12098 46.0113 8.68936 46.3044 8.51833C46.8083 8.5682 46.3207 9.3602 46.79 9.26653C47.0842 9.20952 47.3438 9.00897 47.667 9.15607C47.6339 8.88885 47.5861 8.63843 47.5795 8.38852C47.5739 8.25262 47.612 8.10755 47.6309 7.9574C48.3607 8.36661 49.1151 8.5651 49.905 8.6282C50.0664 8.72236 50.1376 8.84452 50.0674 9.03284C50.3804 9.21862 50.6935 9.40439 51.0065 9.59017C51.063 9.72912 51.122 9.8584 51.1689 9.99481C51.5898 10.2814 51.5878 10.6427 51.3068 11.0031C51.0874 11.2866 50.7882 11.5594 50.4059 11.4795C50.014 11.3971 50.0064 11.0332 50.042 10.7013Z" fill="#FBF0E9"/>
<path d="M50.0674 9.03285L49.905 8.62821C49.8933 8.39764 49.4678 8.28567 49.6922 7.98282C50.2099 7.31248 50.7489 6.67878 51.7042 6.70268C51.6925 6.86505 51.6808 7.02741 51.6691 7.18978C51.179 7.20557 51.094 8.0001 50.4511 7.81026C50.3641 7.78736 50.2633 8.2882 50.4176 8.56662C50.6573 8.99161 50.2074 8.8939 50.0674 9.03285Z" fill="#F9EAE0"/>
<path d="M44.3495 10.6821C44.3026 10.5457 44.211 10.3044 44.2232 10.2973C44.9674 9.94507 44.5245 9.46663 44.3749 9.01363C44.7978 8.54586 44.8187 9.01668 44.9444 9.24623C45.2931 9.88602 44.8065 10.5956 45.1883 11.3061C45.3354 11.5723 44.8183 11.4155 44.604 11.2868C44.3485 11.1575 44.2685 10.9503 44.3495 10.6821Z" fill="#FBF0E9"/>
<path d="M40.4063 32.6622C40.3299 32.1665 40.6801 31.7002 40.5116 31.2009C40.7299 30.8034 40.6765 30.4171 40.4994 30.0293C40.5416 29.7508 40.2153 29.4582 40.5411 29.2027C40.9742 28.4997 40.3191 27.9241 40.3054 27.269C40.938 26.7117 41.4155 27.1372 41.7494 27.5973C42.1836 28.1872 42.6966 28.2808 43.339 28.119C43.8174 28.0691 44.0633 28.3923 44.3188 28.718C44.3539 28.8203 44.36 28.915 44.3223 29.0188C44.2378 29.1827 43.9477 29.3029 43.9874 29.4271C44.387 30.4628 43.6271 30.7178 42.911 30.9637C43.0586 31.3851 43.3716 31.178 43.5793 31.2533C44.0511 31.3464 44.5438 32.1069 44.9795 31.1978C45.2111 31.1036 45.3454 31.2217 45.4549 31.3953C45.5516 31.6172 45.7389 31.7699 45.8723 31.9704C46.0469 32.5644 45.7802 32.9492 45.2747 33.2195C44.8278 33.4638 44.4487 33.333 44.0664 33.0566C43.8139 32.8765 43.5442 32.3298 43.1914 32.8057C42.8881 33.2119 42.9777 33.8145 43.4378 34.07C44.2955 34.5439 44.7235 35.4321 45.4906 35.9751C45.6998 36.1232 45.9039 36.2907 45.8006 36.6047L45.6031 36.6872C45.0956 36.9259 44.5999 37.0023 44.1418 36.5819C44.0145 36.476 43.897 36.3727 43.7723 36.2571C43.3997 35.7869 42.9065 35.4606 42.3812 35.1776C42.0514 34.9771 41.719 34.7862 41.3942 34.5663C40.8481 34.2055 40.2088 33.9235 40.8695 33.0633C41.1061 32.7533 40.7737 32.5625 40.4037 32.6719L40.4063 32.6622Z" fill="#F9EBE1"/>
<path d="M45.8153 36.5879C45.7125 36.2713 45.4249 36.1853 45.1694 36.0561C44.8752 35.9166 44.5642 35.7624 44.5398 35.3837C44.5133 34.9735 44.2329 34.8997 43.9193 34.7551C42.769 34.2146 42.7166 33.9423 42.912 32.6495C43.0072 32.0127 43.1268 31.9511 43.5905 32.311C43.7371 32.4219 43.9035 32.4967 44.0404 32.6051C44.3575 32.854 44.5209 33.3727 45.0971 33.0693C45.6 32.8087 45.8229 32.4331 45.7521 31.8768C45.8728 31.5362 46.2637 31.5047 46.4825 31.2624C47.3549 30.3442 47.6888 30.4113 48.2228 31.5652C48.1301 32.5852 47.7647 33.5024 47.2109 34.3494C47.018 34.6502 47.0287 34.9632 46.9667 35.2778C46.8715 35.7181 46.9718 36.2408 46.4903 36.538C46.2638 36.6129 46.0408 36.792 45.796 36.5828L45.8153 36.5879Z" fill="#FAEDE4"/>
<path d="M44.1469 36.5625C44.6258 36.6679 45.1348 36.5019 45.6082 36.6678C46.1248 37.4552 45.6388 38.1235 45.3105 38.7817C45.1191 39.1553 44.8646 39.3365 44.3663 39.0296C43.9667 38.7797 43.4094 38.7364 42.9686 38.486C42.5833 38.2605 42.3777 38.0203 42.4647 37.4538C42.5884 36.6694 42.849 36.3864 43.6175 36.6094C43.7723 36.6501 43.9672 36.5773 44.1469 36.5625Z" fill="#FAEEE6"/>
<path d="M42.3863 35.1583L42.4662 34.9725C42.9467 35.3471 43.7636 35.3863 43.7773 36.2378C43.2587 36.2047 42.9681 35.7767 42.5486 35.5629L42.3863 35.1583Z" fill="#FAEDE4"/>
<path d="M50.042 10.7013C50.4476 10.6529 49.9463 11.5757 50.6151 11.2347C51.1276 10.9766 51.5608 10.6667 51.1688 9.99481C52.1715 9.91742 52.8149 10.459 53.3366 11.227C52.8653 10.8962 52.3512 11.0815 51.8916 11.1777C51.5537 11.2439 51.1409 11.4765 51.401 12.0206C51.6565 12.5428 51.118 12.3494 50.9536 12.5026C50.7083 12.7276 50.3881 12.726 50.3453 12.4563C50.2043 11.4989 49.5488 11.7503 48.9614 11.7819C48.8983 11.786 48.826 11.7463 48.6616 11.703C48.7211 11.3981 49.422 11.2103 48.9232 10.7481C48.772 10.6153 48.9975 10.4265 49.2057 10.4606C49.4912 10.515 49.7569 10.6056 50.0348 10.6891L50.042 10.7013Z" fill="#FAEDE3"/>
<path d="M43.2875 28.1571C43.3364 28.3251 43.4728 28.4747 43.3776 28.7185C42.943 28.5628 42.5744 28.1556 42.0314 28.3333C41.8731 28.3847 41.6735 28.2391 41.6542 28.0376C41.5458 27.1921 40.9416 27.2089 40.3176 27.2619C39.9831 25.6642 39.4634 24.1418 38.4806 22.8078C38.3793 22.7604 38.3391 22.6775 38.3355 22.5731C38.195 21.5745 37.5577 20.7347 37.4274 19.6974C37.3342 18.9904 36.7148 19.6546 36.326 19.7178C35.9488 19.6185 35.8455 19.3432 35.8353 18.9889C36.3519 18.2045 37.2742 17.9612 37.9771 17.412C38.4351 17.0466 39.0073 17.4659 39.4837 17.7774C39.5575 17.497 39.3315 17.3341 39.2638 17.1198C39.0744 16.5426 39.3905 16.2846 39.8445 16.4454C40.7719 16.7722 41.6265 16.511 42.5091 16.34C42.7992 16.4163 43.0007 16.5935 43.1407 16.8475C43.3387 17.3132 43.4614 17.7901 43.2176 18.2843C42.7992 18.5775 42.2012 17.9031 41.8393 18.5317C41.6337 18.8809 41.794 19.254 41.7411 19.6123C41.6495 19.9604 41.427 20.0984 41.0718 19.9946C40.975 19.9691 40.8931 19.9269 40.8015 19.8821C40.6228 19.8144 40.3561 19.8062 40.3251 19.9635C40.2477 20.3361 40.7002 20.4241 40.8422 20.7097C40.9206 20.8441 40.9552 20.9876 40.912 21.152C40.4452 21.4325 39.8604 22.8296 39.9943 23.3819C40.2997 23.9896 40.5028 24.6325 41.0988 25.0788C41.4882 25.3674 41.5605 25.8 41.0444 26.1502C40.8927 26.2551 40.6835 25.9105 40.6581 26.2037C40.6418 26.3442 40.8749 26.5193 41.0724 26.4368C41.3966 26.305 41.6877 26.2988 42.016 26.4266C42.523 26.622 43.1384 26.6806 42.8177 27.5061C42.69 27.8344 43.0799 27.8853 43.228 28.0691C43.259 28.1083 43.2779 28.1546 43.3089 28.1938L43.2875 28.1571Z" fill="#FAEEE5"/>
<path d="M35.9117 18.8952C36.071 19.1543 36.0394 19.5493 36.4436 19.6246C36.6003 19.6969 36.6619 19.8165 36.6599 19.9814C36.1463 20.5184 36.3494 21.1612 36.383 21.7802C36.0578 21.798 35.7509 21.5104 35.4088 21.7099C35.1477 21.4448 34.9838 21.1638 34.9863 20.7612C35.0001 19.2551 34.6188 18.8963 33.1 18.9309C32.9132 18.9335 32.7412 18.9192 32.5722 18.8541C32.3564 18.849 32.2709 18.7024 32.2027 18.5293C32.3106 18.4337 32.4459 18.2728 32.3696 18.17C31.7013 17.291 31.6967 17.2691 32.5574 16.5132C32.6113 16.4654 32.6795 16.442 32.7406 16.4064C32.8948 16.2918 33.0038 16.3102 33.0302 16.5239L34.3389 17.406C35.0606 17.689 35.5416 18.2188 35.902 18.8927L35.9117 18.8952Z" fill="#F7E1D2"/>
<path d="M32.5844 18.847C33.8706 18.3995 34.3618 18.4978 35.0647 19.3238C35.3014 19.6033 35.5661 19.9728 35.3706 20.2833C35.0586 20.8009 35.3808 21.2269 35.4139 21.6906C34.3267 21.7354 34.6957 20.9226 34.6275 20.3566C34.458 20.1362 34.2218 20.012 33.978 19.9168C33.5143 19.557 32.8511 19.4445 32.5869 18.8373L32.5844 18.847Z" fill="#F6DECE"/>
<path d="M38.9275 24.1352C38.7707 24.4559 38.1355 24.4335 38.5814 25.0575C38.9056 25.5151 38.3814 25.739 37.9299 25.765C37.6444 25.3176 38.5325 25.479 38.2093 25.1354C37.764 24.6666 37.4072 25.2759 36.9399 25.4011C36.8269 24.9267 36.2772 24.4615 36.6839 24.1342C36.9582 23.9169 37.3104 23.4822 37.681 23.528C38.0831 23.5718 38.4429 23.894 38.9153 24.1423L38.9275 24.1352Z" fill="#F6DFCF"/>
<path d="M36.3952 21.773C35.789 20.9724 35.8536 20.4517 36.6181 20.0221C37.8036 20.4685 38.1792 21.4773 38.4006 22.6006L38.4806 22.8078C37.9873 22.4815 37.5262 22.112 37.1908 21.5791C36.9602 21.7873 36.7866 22.2897 36.4049 21.7756L36.3952 21.773Z" fill="#F6DDCC"/>
<path d="M40.3079 27.2593C40.6082 27.8864 41.3412 28.4412 40.6546 29.2429C40.5289 29.2098 40.5029 29.1512 40.5721 29.0454C40.3293 28.4748 40.2056 27.8839 40.3079 27.2593Z" fill="#FAEEE5"/>
<path d="M40.5721 29.0454C40.6052 29.1161 40.6312 29.1747 40.6546 29.2429C40.4118 29.4582 40.7472 29.7946 40.5019 30.0196C39.9665 29.6443 39.9899 29.3196 40.5721 29.0454Z" fill="#F6DDCC"/>
<path d="M33.9729 19.9362C34.5995 19.4806 34.6061 19.927 34.6224 20.3759C34.1782 20.3349 33.9617 20.1883 33.9729 19.9362Z" fill="#F7E1D2"/>
<path d="M27.0234 4.80973C27.3629 4.81634 27.6841 4.93187 27.9218 5.12884C28.7408 5.78898 29.7262 6.131 30.6149 6.64404C30.3762 6.726 30.5131 7.22735 30.0927 7.09604C29.967 7.06295 29.941 7.00442 30.0102 6.89855C29.5689 6.68937 29.1113 7.0136 28.6309 6.83546C28.3387 6.72756 28.0969 7.05688 28.1341 7.38721C28.1911 7.87788 28.442 7.59233 28.6472 7.48086C28.7815 7.40247 28.9271 7.39941 29.037 7.53175C29.1806 7.6936 29.1373 7.85801 29.0116 8.02139C28.7378 8.39398 28.5439 8.97372 28.1881 9.10759C27.6033 9.32595 27.6241 9.79677 27.4572 10.1561C26.5186 10.147 25.5521 9.85127 24.8802 10.8326C24.7937 10.9649 24.5748 11.0108 24.4064 11.1009L24.2089 11.1833C24.1366 10.9471 23.9198 10.828 23.7569 10.6611C23.6581 10.6041 23.6276 10.5237 23.6653 10.4198C24.5219 10.1903 24.7794 9.56523 24.7555 8.75238C24.9234 8.31058 25.0797 7.83467 25.4375 7.53589C26.033 7.04114 25.8391 6.63854 25.4029 6.21354C25.4258 5.93004 25.5917 5.65315 25.8457 5.70964C26.6438 5.89897 26.8081 5.35282 27.0306 4.82194L27.0234 4.80973Z" fill="#FAEDE4"/>
<path d="M33.0496 16.529L32.76 16.4115C31.6539 15.2312 30.2399 14.4351 28.9491 13.4854C29.4372 13.2416 29.9584 13.0685 29.1924 12.443C28.8946 12.1992 28.6915 11.5563 29.5456 11.5329C29.6306 11.5242 29.7288 11.426 29.8026 11.342C30.4893 10.5404 30.9702 10.8737 31.3927 11.626C31.0655 12.2017 30.445 11.7696 30.0251 11.99C29.7533 12.3941 30.9611 12.5982 30.1646 13.071C30.0791 13.1209 30.218 13.2609 30.3173 13.2767C30.5886 13.3067 30.8782 13.4243 31.067 13.0603C31.5169 12.1757 31.9989 12.6231 32.5446 13.0252C31.4411 13.6034 31.3622 13.9032 31.9405 15.0067C32.0993 15.307 32.2102 15.5533 32.6754 15.3966C33.0042 15.2866 33.3651 15.5263 33.643 15.8063C33.5972 16.1768 33.1768 16.242 33.047 16.5387L33.0496 16.529Z" fill="#F9E9DE"/>
<path d="M25.9247 11.8933C25.8677 11.7956 25.8351 11.6836 25.7486 11.6195C25.3327 11.3136 25.4538 10.9318 25.721 10.7023C26.0005 10.4656 26.5405 10.5353 26.7451 10.6615C27.0821 10.8743 27.0322 11.3782 26.766 11.7218C26.6428 11.8755 26.3924 11.9233 26.1924 12.0155L25.9028 11.8979L25.9247 11.8933Z" fill="#FAEDE4"/>
<path d="M23.677 10.4539L23.7569 10.6611C23.1782 10.9741 23.0168 10.2906 22.6106 10.1837C22.3292 10.1923 22.0518 10.0676 21.7784 10.2025C21.1453 10.2117 20.8302 9.60144 20.2764 9.46606C20.1441 9.37953 20.0336 9.28842 20.0479 9.11639C20.1807 8.96521 20.1685 8.77587 20.1827 8.60383C20.2183 7.4861 20.3217 7.36852 21.4124 7.42805C21.6379 7.43568 21.8461 7.46978 22.0156 7.29723C22.2171 7.08142 22.3372 6.38919 22.7154 7.19186C22.7556 7.27482 22.9434 7.18982 22.9714 7.08344C23.1282 6.5663 23.6687 6.79127 23.9675 6.55967C24.5106 6.57849 24.8032 5.66282 25.4639 6.1779C26.5277 6.65429 26.5506 6.76372 25.7016 7.55369C25.3311 7.90082 25.2853 8.46784 24.8812 8.78545C24.0078 9.00026 23.9228 9.79479 23.6841 10.4661L23.677 10.4539Z" fill="#F9EBE1"/>
<path d="M25.4543 6.17537C25.0888 6.3067 24.5188 6.11533 24.5127 6.80653C24.5076 7.02234 24.3294 7.10989 24.1243 7.0249C23.8902 6.93226 23.9848 6.72969 23.9579 6.55714C23.9696 6.39477 23.9813 6.23241 23.993 6.07004C23.9492 5.68626 24.2271 5.37679 24.2703 5.01592C24.4363 4.14962 24.5223 4.05851 25.128 4.50743C25.6807 4.92173 26.1918 4.78735 26.7506 4.70692L27.0402 4.82449C27.1538 5.06117 27.1456 5.32788 27.0677 5.54521C26.91 5.94833 26.6814 6.38454 26.1551 5.98754C25.7922 5.71626 25.665 6.00333 25.4736 6.18046L25.4543 6.17537Z" fill="#F9E9DD"/>
<path d="M20.0479 9.11641C20.1171 9.20701 20.2184 9.25434 20.3375 9.23398C20.4291 9.27877 20.4744 9.34239 20.478 9.44673C20.2627 9.79336 20.3355 9.9883 20.762 10.0178C21.102 10.3761 21.5367 10.5319 22.006 10.6347C22.1887 10.7655 22.374 10.8866 22.2422 11.1518C22.033 11.3966 21.7678 11.4613 21.4634 11.3605C20.7885 11.0175 20.1461 10.5899 19.4407 10.3629C18.9622 10.2164 18.7805 10.0031 19.0106 9.63967C19.1938 9.33631 18.6146 8.9047 19.206 8.73978C19.4508 8.94896 19.8529 8.79626 20.0626 9.09961L20.0479 9.11641Z" fill="#F6DFCF"/>
<path d="M24.2632 5.0037C24.4327 5.42055 24.2419 5.75292 23.9858 6.05781C23.6443 5.82318 23.3908 6.11839 23.0941 6.18508C22.9699 5.83184 22.465 5.66796 22.5754 5.16966C22.6518 4.87953 22.5113 4.47031 23.0467 4.51815C23.5603 4.57056 23.3308 4.89275 23.2814 5.15896C23.2534 5.26533 23.2666 5.37222 23.3964 5.46842C23.8026 5.5753 24.0128 5.24801 24.2561 4.99148L24.2632 5.0037Z" fill="#F9EAE0"/>
<path d="M21.4487 11.3773C21.7169 11.2617 21.9826 11.1559 22.2605 11.0429C22.4269 10.9212 22.5313 10.9176 22.5501 11.1604C22.545 11.3762 22.3984 11.4618 22.2254 11.53C21.9353 11.6501 21.635 11.8089 21.4487 11.3773Z" fill="#F7E3D4"/>
<path d="M22.5404 11.1579L22.2508 11.0403L21.8813 10.7156C21.5224 10.5074 21.6782 10.2692 21.8365 10.0213C22.1653 9.71491 22.4162 9.8223 22.6132 10.174C22.5073 10.4977 22.7577 10.8428 22.5429 11.1482L22.5404 11.1579Z" fill="#F6DDCC"/>
<path d="M23.6269 2.90263C23.0716 2.89094 22.6787 2.49801 22.2008 2.3102L22.0287 1.90301C22.7016 2.01803 23.3821 2.10404 23.6269 2.90263Z" fill="#FCF6F2"/>
<path d="M49.4426 18.9917C49.2843 18.8466 49.1188 18.8858 48.9555 18.9566C48.6994 19.2615 48.4882 19.6712 47.9955 19.3037C47.5593 18.8787 47.1623 18.4227 46.7678 17.957C46.6782 17.3543 45.9371 17.0663 46.0012 16.3903C46.6466 16.1776 46.7759 15.7256 46.3168 15.1912C46.1422 14.9901 45.9386 14.7814 46.1453 14.5463C46.3102 14.3518 46.5504 14.5391 46.7484 14.6119C47.1663 14.7529 47.5445 14.9662 47.8534 15.2853C48.2199 15.6609 47.5465 16.1765 48.0484 16.5878C48.1492 16.6763 47.7741 16.8051 47.5582 16.8C47.289 16.8016 47.1246 16.9548 47.1943 17.2006C47.2524 17.4124 47.514 17.6363 47.6875 17.5269C48.2963 17.139 48.9855 17.5065 49.585 17.2713C50.0141 17.0947 50.1617 17.3197 50.3373 17.6347C50.4798 17.879 50.6845 18.0053 50.203 18.1061C49.7871 18.1931 49.7154 18.7016 49.4522 18.9942L49.4426 18.9917Z" fill="#F9ECE2"/>
<path d="M46.0012 16.3903C46.2298 16.9365 47.1154 17.1075 46.8701 17.9219C47.0391 18.1835 47.1058 18.4802 46.8101 18.6609C46.5754 18.806 46.3352 18.6187 46.1555 18.437C45.8298 18.1031 45.5798 17.7168 45.3421 17.3233C45.0561 16.9172 44.6428 16.6016 44.4081 16.1572C43.8523 15.4009 43.1789 14.7377 42.6256 13.9717C42.5289 13.7498 42.505 13.5263 42.6073 13.2947L42.8047 13.2123C43.4445 13.0601 43.6945 13.4464 43.8238 13.9768C44.4432 14.8843 45.3105 15.5571 46.0012 16.3903Z" fill="#FDF9F5"/>
<path d="M40.1972 12.6295C40.3168 12.5679 40.5072 12.4733 40.4094 12.3338C40.0613 11.8493 40.5031 11.8207 40.7571 11.6808C41.0334 11.8879 41.1948 12.1785 41.3439 12.4763C41.1668 13.2673 42.1029 13.4826 42.1991 14.1386C42.2067 14.3061 42.1589 14.4486 42.0194 14.5463C41.3643 14.7566 41.0055 14.1555 40.4812 13.9865C40.2634 13.5569 39.8608 13.1614 40.1901 12.6173L40.1972 12.6295Z" fill="#FAEEE6"/>
<path d="M37.8573 10.9901C38.214 10.7876 38.4797 10.9436 38.6544 11.4584C38.9812 11.3169 39.0952 10.9229 39.4459 10.8084C39.7971 10.6526 39.8236 10.8664 39.8154 11.1331C39.5446 11.6513 39.6266 12.0865 40.1147 12.432C39.7483 13.2352 39.3339 12.6092 38.9354 12.4733C38.5165 12.0218 37.6253 11.9114 37.8573 10.9901Z" fill="#FAEEE6"/>
<path d="M43.8237 13.9768C43.4751 13.7299 43.2374 13.3365 42.8047 13.2123C42.8684 12.9705 42.932 12.7287 43.0246 12.4946C43.0674 12.3714 43.1035 12.1948 43.2877 12.2019C43.5203 12.2218 43.555 12.3653 43.499 12.5781C43.3921 12.9842 43.671 12.9853 43.9235 12.969C44.3363 12.9328 44.7541 12.8773 45.2423 12.83C45.0763 13.6963 44.1525 13.4739 43.8237 13.9768Z" fill="#F9EBE1"/>
<path d="M44.3495 10.6821L44.604 11.2867C43.7153 11.9525 43.4394 11.9006 42.9726 11.0023C42.8637 10.7875 42.8897 10.6495 43.1085 10.6037C43.3834 10.5416 43.4149 10.3431 43.4226 10.1176C44.013 9.83869 43.9346 10.6867 44.3617 10.6749L44.3495 10.6821Z" fill="#F9EBE1"/>
<path d="M42.0377 14.241C41.8387 14.0542 42.0016 13.6317 41.4732 13.5961C41.0248 13.5712 41.1867 13.0347 41.1714 12.6998C41.6417 12.3272 41.8952 12.8178 42.2255 12.9771C42.2963 13.1405 42.3792 13.2968 42.595 13.3019C42.6775 13.4994 42.7574 13.7065 42.8495 13.9065C42.6638 14.2196 42.4169 14.3718 42.0377 14.241Z" fill="#F9EBE1"/>
<path d="M50.3846 13.997C50.5638 14.2199 50.6406 14.478 50.3021 14.5854C49.8614 14.7279 49.6567 14.4052 49.5351 14.0423C49.446 13.7914 49.188 13.4753 49.5733 13.3078C50.2242 13.0345 50.1627 13.7008 50.3846 13.997Z" fill="#F9E9DE"/>
<path d="M39.1309 12.3593C39.45 12.4433 39.7483 12.8423 40.1051 12.4295L40.1875 12.627C40.0944 13.0988 40.7357 13.4124 40.4868 13.9259C40.6675 14.0252 40.7118 14.1712 40.6634 14.355C39.7921 14.012 39.2301 13.3574 38.8743 12.5089C38.91 12.3735 38.9955 12.3237 39.1334 12.3496L39.1309 12.3593Z" fill="#FCF4EE"/>
<path d="M42.2255 12.9771C41.8774 12.8855 41.5195 12.7914 41.1714 12.6998C41.0324 12.3633 40.8935 12.0269 40.7545 11.6905L40.8512 11.5194C41.2864 12.0269 41.9842 12.2829 42.2255 12.9771Z" fill="#FCF4EF"/>
<path d="M39.8058 11.1306C39.735 10.9672 39.652 10.8109 39.4362 10.8058C39.2296 10.6481 39.0774 10.4012 38.7771 10.3635C38.5582 10.2129 38.374 10.0093 38.5857 9.7548C38.7531 9.5507 38.9919 9.66522 39.17 9.77414C39.5721 10.0144 39.9447 10.2882 40.1208 10.7585C40.1442 10.8267 40.1773 10.8974 40.2033 10.956C40.2425 11.1214 40.3443 11.324 40.0913 11.3815C39.9381 11.4136 39.8673 11.2502 39.7986 11.1184L39.8058 11.1306Z" fill="#FCF4EF"/>
<path d="M51.6744 15.2257C51.6062 15.2491 51.5354 15.2822 51.4769 15.3081C51.3491 14.8505 50.9465 14.4551 51.1969 13.8178C51.5843 14.2713 51.9217 14.6393 51.6744 15.2257Z" fill="#F9EAE0"/>
<path d="M43.0181 18.3352C43.1743 17.8593 43.0975 17.4048 42.9259 16.9564C43.4426 16.7614 43.5047 17.2327 43.693 17.4995C44.8047 19.0121 45.9871 20.4917 46.5587 22.3276C46.6941 22.3633 46.9099 22.3684 46.9501 22.4513C47.3527 23.2397 47.8184 23.0417 48.3071 22.5602L48.3895 22.7577C48.6817 23.8479 47.4612 24.2816 47.3528 25.2044C47.2815 25.2787 47.196 25.3286 47.1008 25.376C46.5939 25.5735 46.4162 25.2268 46.2584 24.8441C46.1475 25.5801 46.7517 25.5633 47.1594 25.7429C47.4688 26.2173 47.3721 26.5848 46.8693 26.8454C45.9241 26.9793 45.4324 26.5294 45.1377 25.6452C44.8623 24.7662 44.3996 23.931 45.2053 23.109C45.2745 22.4137 44.7579 22.0192 44.4072 21.5444C44.4464 21.7098 44.593 21.8207 44.5981 21.9979C44.2764 22.7094 42.7657 23.0668 42.2873 22.5273C42.0552 22.2697 42.0516 21.9689 42.3499 21.7785C42.7092 21.5525 42.7932 21.2334 42.7687 20.8547C42.8542 20.6084 43.0894 20.6185 43.2889 20.5676C43.1372 20.476 42.9596 20.5223 42.7977 20.4694C42.3727 20.3162 42.1055 19.9564 41.7446 19.7166C41.7136 19.6774 41.6825 19.6383 41.6489 19.6087C41.4937 19.2163 41.2244 18.8249 41.6393 18.4274C42.1045 18.4671 42.562 18.3393 43.0181 18.3352Z" fill="#FAEFE7"/>
<path d="M45.5615 17.0398C45.6648 17.5116 46.0639 17.8028 46.2797 18.2008C46.3769 18.3815 46.5072 18.6329 46.7368 18.5072C46.9175 18.41 46.8482 18.1229 46.8727 17.9122C47.5048 18.1819 47.8377 18.7245 48.1462 19.2813C48.3014 19.8702 48.6384 19.4936 48.9229 19.434C49.2934 19.6763 49.4324 20.0127 49.3398 20.4433C49.1285 20.6566 48.9697 20.9457 48.6104 20.9752C48.4714 21.0317 48.3422 21.0908 48.2057 21.1376C48.0464 21.075 47.8953 20.9422 47.7186 21.1025C47.4494 21.3005 47.5344 21.6848 47.3644 21.8986C46.9308 21.8568 47.0224 21.3122 46.6294 21.3122C45.6791 20.4831 45.076 19.4351 44.6978 18.2395C44.9212 17.8226 44.5878 17.7142 44.3252 17.5727C44.1613 17.2918 43.9073 17.0388 44.0162 16.6642C44.6183 16.4194 45.0306 17.0139 45.5666 17.0205L45.5615 17.0398Z" fill="#FAF0E8"/>
<path d="M44.0177 16.737C44.121 17.0123 44.4707 17.1767 44.3521 17.5488C44.6535 17.7005 44.9156 17.8832 44.884 18.2782C45.2434 19.4275 46.1036 20.2846 46.6218 21.3412C46.6396 21.6665 46.352 21.9734 46.5516 22.3154C46.1785 22.2793 46.069 21.9093 46.0207 21.7001C45.7672 20.62 45.02 19.8443 44.4265 18.9954C43.945 18.3103 43.5103 17.5651 42.9259 16.9564C42.8562 16.7105 42.6368 16.6011 42.4739 16.4342C41.6972 15.8886 40.923 15.3333 40.666 14.3453L40.5036 13.9407C41.1963 13.6266 41.3745 14.5214 41.9298 14.5331C42.9091 14.7805 42.9972 15.8997 43.7408 16.3746C43.8584 16.4779 43.9638 16.5884 44.0274 16.7395L44.0177 16.737Z" fill="#FEFAF6"/>
<path d="M48.9203 19.4437C48.9203 19.4437 48.8735 19.5037 48.8562 19.5302C48.7198 19.7735 48.8756 20.3212 48.4139 20.1893C48.1141 20.1105 47.9375 19.6814 48.1436 19.291C48.5697 19.5582 48.5717 18.8039 48.9555 18.9566L48.9203 19.4437Z" fill="#FAEFE6"/>
<path d="M48.615 20.9971C48.7524 20.6713 48.8659 20.3186 49.3443 20.4652C49.3998 20.6866 49.6177 20.9197 49.3581 21.1203C49.0863 21.3279 48.8405 21.2012 48.615 20.9971Z" fill="#FCF5EF"/>
<path d="M47.7232 21.1244C47.6968 20.9106 47.3878 20.5915 47.7644 20.5355C48.078 20.4836 48.0724 20.9371 48.2103 21.1595C48.0373 21.2277 47.8815 21.2694 47.7232 21.1244Z" fill="#FCF6F2"/>
<path d="M47.0352 25.1932L47.2327 25.1108C47.45 24.7957 47.65 24.9 47.8607 25.1209C48.2542 25.4726 48.8115 25.7124 48.7159 26.3903L48.5983 26.68C48.5128 26.9263 48.3911 27.1528 48.1351 27.2612C47.7132 27.4501 47.1665 27.5234 47.1686 28.1443C47.1747 28.8284 47.1075 29.5553 47.7662 30.0388C48.0451 30.2363 48.1724 30.5386 48.3877 30.7814C48.5175 31.074 48.4706 31.3306 48.235 31.5581C47.9734 31.5306 47.9301 31.3021 47.8084 31.1356C47.4694 30.6949 47.0287 30.6409 46.8353 31.1794C46.6291 31.7663 46.1354 31.6777 45.7547 31.8671C45.4798 31.9292 45.1851 32.0274 45.3852 31.5424C45.5613 31.0303 45.3088 30.6537 44.9734 30.3172C44.5804 29.9243 44.3509 29.4606 44.2969 28.9191L44.2521 28.8142L44.2073 28.7094C44.2989 28.3612 44.4918 28.0604 44.6221 27.7224C44.7723 27.3483 44.9417 26.9793 45.4797 27.2139C46.0274 27.4511 46.2066 26.6917 46.7033 26.7294C47.2327 26.4861 47.1792 26.0997 46.9807 25.6752C46.7598 25.493 46.9532 25.3475 47.0158 25.1881L47.0352 25.1932Z" fill="#F9EAE0"/>
<path d="M48.3876 30.7814C47.0378 30.2918 46.8021 29.144 46.8 27.9336C46.7955 27.5188 47.2271 27.136 47.6612 27.1365C48.0954 27.137 48.2669 26.7996 48.5886 26.6774C49.0269 27.3304 48.3662 27.9942 48.5932 28.664C48.6329 28.7882 48.4197 28.9699 48.5678 29.1536C49.089 29.7664 48.6681 30.2658 48.3851 30.7911L48.3876 30.7814Z" fill="#FAEDE4"/>
<path d="M47.8022 25.3434C47.6892 25.0655 47.5034 24.9856 47.2326 25.1108C47.5411 24.6853 47.396 24.2542 47.1736 23.8027C47.7087 23.8125 48.1125 23.4569 48.3849 22.7358C48.6674 23.2341 48.7774 23.7594 48.5692 24.3147C48.4893 24.5005 48.4165 24.6985 48.3366 24.8843C48.2414 25.1281 48.1295 25.3571 47.8144 25.3363L47.8022 25.3434Z" fill="#FAEEE5"/>
<path d="M47.8022 25.3434C47.9692 25.1805 48.0786 24.9611 48.3244 24.8914C48.6609 25.3418 48.9561 25.7918 48.7062 26.3878C48.6477 25.8244 48.1549 25.6533 47.8022 25.3434Z" fill="#FAEFE7"/>
<path d="M40.6589 14.3331C41.2468 15.0462 42.0235 15.5918 42.4668 16.422C42.0851 16.6938 41.0324 16.7649 39.3086 16.6353C39.5168 17.0623 39.7036 17.4527 39.9148 17.8289C40.0049 17.9973 40.1434 18.1785 39.9866 18.3027C39.7881 18.4676 39.5519 18.3434 39.4354 18.1577C39.2262 17.8131 38.8928 17.7047 38.5548 17.5744C38.3013 17.4767 37.9522 17.4675 37.8549 17.6798C37.459 18.5165 36.583 18.5446 35.9091 18.9049C35.2439 18.5644 34.8367 17.9506 34.346 17.4182C34.4396 17.2981 34.4508 17.1769 34.3628 17.04C33.7993 16.1162 33.898 15.7803 34.8936 15.2978C35.5869 15.3354 36.3218 15.5288 36.8512 14.6961C35.9436 14.5297 35.6418 14.0263 35.8973 13.1732C36.077 12.5691 35.8978 11.9532 35.6865 11.3806C35.5293 10.9566 35.4488 10.5942 36.0087 10.4313C36.4531 10.3931 36.7895 10.6471 37.0873 10.8909C37.7067 11.4055 38.3114 11.9369 38.9308 12.4514C38.9782 12.5466 38.9884 12.7044 39.0632 12.7344C39.7742 13.0973 40.127 13.8002 40.6563 14.3428L40.6589 14.3331Z" fill="#F9ECE2"/>
<path d="M36.024 10.5697C35.9018 10.641 35.684 10.8008 35.7512 10.8599C36.3874 11.3892 35.8942 12.2418 36.3579 12.7981C36.5228 12.9966 36.474 13.0251 36.2612 13.1656C35.8382 13.4369 36.0754 13.8715 36.1487 14.2217C36.2017 14.4528 36.4205 14.407 36.5753 14.2512C36.757 14.0716 36.9545 13.9891 37.1362 14.2024C37.2965 14.379 37.2304 14.6304 37.1698 14.8213C36.8975 15.6596 35.5212 15.9385 34.9033 15.3003C34.8315 15.2194 34.716 15.1476 34.6976 15.06C34.6177 14.6564 35.5833 14.2487 34.6885 13.8375C34.7867 13.7392 34.9114 13.6583 34.9928 13.5453C35.2244 13.2547 35.1918 12.9462 34.8192 12.8689C34.0232 12.7111 33.5793 11.9222 32.7441 11.7954C32.2382 11.714 31.9261 10.4634 32.2885 10.383C33.2077 10.1906 32.5125 9.72845 32.5623 9.42102C32.6071 9.13294 32.658 8.93952 32.9945 8.99703C33.5986 8.78375 33.8882 9.29426 34.2486 9.57521C34.6884 9.90808 35.1042 10.214 35.6997 10.1122C35.939 10.1855 36.1049 10.3015 36.0189 10.5891L36.024 10.5697Z" fill="#F9EADF"/>
<path d="M36.024 10.5698C35.9532 10.4064 35.8702 10.2501 35.6544 10.245C34.6497 9.89793 33.7732 9.37776 33.2347 8.39848L32.8651 8.07375C32.7969 7.9007 32.7868 7.74291 32.9003 7.58665C34.2236 8.25543 35.3175 9.24641 36.5126 10.0883C36.9574 10.4018 37.3458 10.7728 37.8573 10.9901C37.9057 11.7887 38.8397 11.776 39.1309 12.3593C39.0627 12.3827 38.9919 12.4158 38.9334 12.4418C37.7535 12.1313 37.1717 10.9235 36.0265 10.5601L36.024 10.5698Z" fill="#FDF8F4"/>
<path d="M33.8368 6.97482L34.274 6.72795L33.8719 6.48772C34.1376 6.18537 34.7097 6.60477 34.8812 6.07084C35.9089 6.13444 36.0972 6.59761 35.5526 7.68482C35.01 8.01771 34.4929 7.46801 33.8816 7.66907C33.5309 7.7836 33.6225 7.23899 33.8368 6.97482Z" fill="#FAEDE5"/>
<path d="M40.1305 10.7611C39.5696 10.6135 39.3202 9.98944 38.7572 9.81029C38.4951 10.0205 38.772 10.1864 38.7771 10.3636C38.1322 10.3386 38.0874 9.84084 37.9642 9.40515C38.2981 9.0794 38.9455 9.68406 39.0468 8.94552C39.0544 8.91651 39.1613 8.90327 39.2295 8.87986C39.3883 9.37662 39.8861 9.52829 40.2022 9.85964C40.444 10.1197 40.4033 10.4709 40.1259 10.7392L40.1305 10.7611Z" fill="#FAEEE5"/>
<path d="M33.2347 8.39847C33.9386 9.14209 34.921 9.535 35.6544 10.245C35.2447 10.4267 34.9302 10.5611 34.5235 10.1025C34.1193 9.63427 33.5141 9.3406 32.9995 8.9777L33.2321 8.40814L33.2347 8.39847Z" fill="#F9ECE2"/>
<path d="M32.9099 7.58919C32.9781 7.76224 33.0173 7.92766 32.8748 8.07629C31.836 7.74089 31.7448 7.65487 31.5606 6.66541C32.036 7.05935 32.6401 7.04254 32.9099 7.58919Z" fill="#FDF8F4"/>
<path d="M30.0128 6.88887L30.0952 7.08635C30.0677 7.1515 30.0306 7.21411 30.0031 7.27926C29.8855 7.56887 30.564 7.81979 30.0779 8.09516C29.6896 8.31352 29.7512 7.84373 29.6147 7.69409C29.1836 7.24975 29.5786 7.08483 29.9201 6.92653C29.9542 6.91483 29.9883 6.90312 30.025 6.88174L30.0128 6.88887Z" fill="#F8E7DC"/>
<path d="M31.4618 5.82254C31.6033 5.36343 31.8777 5.53903 32.0716 5.74516C32.2345 5.91211 32.292 6.16507 32.4009 6.37986C31.9988 6.3361 31.6436 6.23227 31.4618 5.82254Z" fill="#FCF4EF"/>
<path d="M35.5383 7.66039C35.801 7.80188 36.2484 7.51633 36.283 8.0528C36.2896 8.10625 36.2301 8.21466 36.1766 8.22128C35.7241 8.3297 35.6804 7.94593 35.5287 7.65784L35.5383 7.66039Z" fill="#FAEDE5"/>
<path d="M46.7201 26.7441C46.5552 26.9385 46.3928 27.1233 46.2279 27.3177C45.9215 27.6438 45.5691 27.6338 45.1708 27.2877C44.6379 27.6232 45.012 28.5592 44.2241 28.7241C43.822 28.6804 43.6774 28.208 43.285 28.1668C42.636 27.6858 43.1562 27.3987 43.5181 27.1631C43.345 26.8383 43.0819 26.7381 42.8645 26.6602C41.5503 26.2317 41.078 25.1974 40.8458 23.9575C40.8184 23.8262 40.6692 23.7249 40.6346 23.5814C41.1711 22.7609 41.2382 21.8376 41.228 20.8939C41.2535 20.7972 41.2861 20.7127 41.3405 20.6237C41.5629 20.4857 41.8113 20.6028 42.0373 20.5692C42.3213 20.5508 42.6155 20.4938 42.8329 20.7682C42.9158 20.9244 42.9718 21.1046 43.0818 21.2369C43.3373 21.5627 43.2426 21.7653 42.8828 21.836C42.6105 21.8885 42.2236 21.7867 42.3127 22.2341C42.3947 22.6692 42.7861 22.4 43.0355 22.4346C43.205 22.4585 43.4416 22.345 43.5546 22.4264C44.1634 22.8245 44.2555 22.2386 44.5136 21.9653C45.2831 21.9093 44.9961 22.7644 45.4175 23.0097C45.8741 23.7503 45.0129 23.7615 44.7706 24.132C44.9916 24.5107 45.3443 24.8207 45.3484 25.2767C45.3591 26.1792 45.8752 26.6148 46.7227 26.7344L46.7201 26.7441Z" fill="#FAEEE5"/>
<path d="M44.3066 28.9216C44.842 29.3624 44.8828 30.19 45.5867 30.5407C45.6951 30.6002 45.9267 31.2919 45.3923 31.5546C45.3215 31.3912 45.2386 31.2349 45.0228 31.2299C44.5509 31.1367 44.0928 31.1092 43.6439 31.322C43.505 31.3785 43.3828 31.4498 43.2393 31.4844C42.996 31.5444 42.6794 31.8437 42.574 31.3403C42.4916 30.9464 42.4666 30.6089 43.0285 30.4776C43.2815 30.4201 43.5762 30.7148 43.7991 30.3391C44.0964 29.8383 43.7375 29.6301 43.4301 29.3838C43.6642 29.0835 44.0185 29.0733 44.2969 28.9191L44.3066 28.9216Z" fill="#FAEDE4"/>
<path d="M43.6439 31.322C44.0312 30.5967 44.1575 30.5886 45.0227 31.2299C44.9398 31.4665 45.1587 31.8137 44.7281 31.9175C44.1636 32.0585 43.9111 31.6819 43.6439 31.322Z" fill="#F9EAE0"/>
<path d="M40.6713 23.56C40.8891 23.7931 41.592 23.8333 41.4353 23.9575C40.6367 24.5953 41.7758 24.6676 41.6704 24.9501C41.2806 26.078 42.3489 25.9868 42.8269 26.3711C43.0743 26.5706 43.4178 26.6404 43.7217 26.7824C43.9436 26.8821 44.048 27.075 44.0159 27.3148C43.966 27.6222 43.7751 27.5616 43.5329 27.5392C42.8254 27.4771 43.2494 27.9093 43.285 28.1668C43.1109 28.121 42.9369 28.0752 42.7577 28.0487C42.2686 27.9821 42.0359 27.7658 42.4604 27.3708C42.9658 26.904 42.7042 26.6801 42.2446 26.7763C41.8751 26.8445 41.4699 26.0658 41.1208 26.8425C41.0236 27.0547 40.6576 26.8343 40.5247 26.5926C40.3323 26.2628 40.2468 25.9197 40.3776 25.5405C40.7085 25.4621 40.6428 26.2617 41.0597 25.8958C41.4399 25.5512 41.0821 25.2605 40.8169 25.1287C40.1323 24.7831 40.1053 24.0212 39.7042 23.502C39.8533 23.2104 40.0508 22.9314 40.4066 22.994C40.6825 23.046 40.7496 23.3015 40.6784 23.5722L40.6713 23.56Z" fill="#F9EBE1"/>
<path d="M40.6713 23.56C40.4081 22.6739 40.0192 23.5229 39.6971 23.4898C39.6059 23.0108 39.5051 22.5293 39.4115 22.0601C39.7469 21.8071 40.3088 22.2652 40.43 21.687C40.4971 21.3531 39.9922 21.5821 39.9398 21.3098C40.205 21.0487 40.5317 21.1037 40.8494 21.1148C40.9517 20.8833 41.0468 20.6394 41.3716 20.6629C41.6052 21.3861 41.3976 22.0967 41.3207 22.821C41.2693 23.2521 41.0245 23.4358 40.6713 23.56Z" fill="#FAEFE7"/>
<path d="M38.3885 22.6077C38.1523 21.5012 37.2457 20.8594 36.6059 20.0292C36.5494 19.8903 36.4904 19.761 36.4436 19.6246C36.3244 19.252 36.4507 19.0474 36.8456 19.079C37.1607 19.0998 37.4727 19.1716 37.7924 19.2143C37.8407 19.4235 37.8646 19.647 37.7532 19.8348C37.5873 20.1117 37.5567 20.2277 37.8443 20.5102C38.393 21.0579 38.3151 21.8646 38.391 22.5981L38.3885 22.6077Z" fill="#F9ECE2"/>
<path d="M43.0181 18.3352C42.5834 18.7689 42.1396 18.9623 41.6393 18.4274C41.9752 17.7402 42.1645 17.728 43.0181 18.3352Z" fill="#F9EAE0"/>
<path d="M40.687 20.7102C40.2569 20.5764 39.9993 20.2191 39.6909 19.8587C40.1602 19.9615 40.4045 19.0331 40.9547 19.6535C40.7735 19.9885 40.8946 20.3926 40.6773 20.7077L40.687 20.7102Z" fill="#FAEFE7"/>
<path d="M40.687 20.7102C40.4885 20.2857 40.4279 19.8872 40.9644 19.6561L41.0468 19.8536C41.3354 20.0536 41.512 20.2862 41.3812 20.6654C41.2143 20.8283 41.1049 21.0476 40.859 21.1174L40.6967 20.7127L40.687 20.7102Z" fill="#FBF4EE"/>
<path d="M41.3716 20.6629C41.256 20.3946 41.1502 20.1289 41.0372 19.851C41.2937 19.8979 41.4912 19.8154 41.6418 19.5965C42.1956 19.9284 42.1681 20.3865 41.9411 20.8955C41.7554 20.8155 41.5599 20.7331 41.3716 20.6629Z" fill="#FAEFE7"/>
<path d="M23.677 10.454C23.5314 10.2605 23.0942 10.1145 23.537 9.80703C23.7278 9.67113 23.8561 9.49807 23.8999 9.29244C24.0022 8.66791 24.3432 8.55084 24.8812 8.78547C24.8242 9.27715 25.2691 9.78715 24.5911 10.2809C24.219 10.5552 23.9849 10.4626 23.6744 10.4636L23.677 10.454Z" fill="#FBF0E9"/>
<path d="M21.8339 10.031C21.836 10.259 21.7627 10.4983 21.8787 10.7253C21.2211 10.9452 20.8216 10.6953 20.65 10.0504C20.3945 9.92111 20.3243 9.7165 20.3955 9.44571L20.3507 9.34087L20.3059 9.23601C20.8841 9.35714 21.2537 9.87834 21.8146 10.0259L21.8339 10.031Z" fill="#F7E3D4"/>
<path d="M23.3817 7.05699C23.7415 7.1827 24.0266 7.27838 24.3187 7.38628C24.6109 7.49418 24.5671 7.69982 24.4434 7.89476C24.3198 8.0897 24.0587 8.21746 23.9131 8.02405C23.7125 7.76447 23.3069 7.61637 23.372 7.05444L23.3817 7.05699Z" fill="#FAEDE3"/>
<path d="M20.4077 9.43857C20.4902 9.63606 20.5701 9.84321 20.6622 10.0432C20.4714 10.1791 20.3278 10.6067 20.0346 10.1883C19.744 9.76026 20.0423 9.5699 20.4077 9.43857Z" fill="#F5DBC8"/>
<path d="M43.7281 16.6194C43.04 16.366 42.8007 15.7033 42.4434 15.1749C42.2887 14.9378 42.1288 14.7199 41.9202 14.5306L42.0377 14.241C42.306 14.1254 42.5716 14.0195 42.8495 13.9065C43.5453 14.5239 44.0376 15.3256 44.6575 15.9954C44.404 16.2906 44.0554 16.4367 43.7281 16.6194Z" fill="#FAEFE7"/>
<path d="M43.7281 16.6194C43.8696 16.1603 44.1348 15.8992 44.6575 15.9954C44.797 16.4871 45.2332 16.7156 45.5615 17.0398C44.9711 17.3187 44.541 16.7919 44.0177 16.737L43.7281 16.6194Z" fill="#F9EADF"/>
<path d="M41.9508 20.898C41.8373 20.4649 41.9085 19.9976 41.6515 19.5991C41.9345 19.4667 42.1584 19.598 42.3208 19.8062C42.6359 20.22 43.0095 20.4114 43.5378 20.2505C43.7399 20.19 43.9959 20.0815 44.0158 20.4383C44.0249 20.6786 43.8799 20.8369 43.6035 20.8262C43.349 20.8109 43.0945 20.7957 42.8522 20.7733C42.5422 20.7331 42.2389 20.7463 41.9605 20.9005L41.9508 20.898Z" fill="#FBF2EC"/>
<path d="M45.4247 23.0219C44.9956 23.0021 44.7482 22.8026 44.7854 22.347C44.8001 22.1338 44.7314 22.0019 44.511 21.975C44.2056 21.7602 43.9028 21.5357 43.5709 21.3036C44.511 20.9926 45.3906 21.8548 45.4125 23.0291L45.4247 23.0219Z" fill="#FBF2EC"/>
<path d="M47.0351 25.1932C47.0234 25.3556 47.0117 25.518 47 25.6803C46.6392 25.8335 46.1317 26.4652 46.1276 25.4198C46.1261 25.347 46.1149 25.2716 46.0793 25.2106C45.8578 24.8731 45.5311 24.4252 46.0767 24.2379C46.5786 24.0597 46.5353 24.6171 46.5674 24.9667C46.5949 25.2945 46.8112 25.2584 47.0351 25.1932Z" fill="#FAEEE5"/>
<path d="M44.8866 18.2685C44.6489 18.0715 44.4356 17.8603 44.3547 17.5391C44.686 17.4195 44.9767 17.4546 45.1472 17.789C45.2678 18.0379 45.0892 18.1667 44.8891 18.2588L44.8866 18.2685Z" fill="#F9EBE0"/>
<path d="M34.4487 11.4478C34.1601 11.6407 33.9295 11.6524 33.7753 11.374C33.7183 11.2763 33.7346 11.1358 33.8394 11.091C34.1759 10.9521 34.212 11.3648 34.4487 11.4478Z" fill="#F9EBE1"/>
</g>
<defs>
<clipPath id="clip0_130_4577">
<rect width="53.85" height="42.1" fill="white" transform="translate(11.243 0.841248) rotate(14.7425)"/>
</clipPath>
</defs>
</svg>
