<svg width="112" height="112" viewBox="0 0 112 112" fill="none" xmlns="http://www.w3.org/2000/svg">
<g filter="url(#filter0_i_163_11)">
<path d="M39.9594 18.1773C44.1921 12.7592 51.8462 11.4391 57.6493 15.1263C60.6009 17.0016 64.1701 17.6448 67.5906 16.9176C74.3158 15.4878 81.0277 19.3965 83.1031 25.9512C84.1587 29.285 86.4795 32.072 89.5672 33.7136C95.638 36.9411 98.2672 44.2497 95.6437 50.6049C94.3094 53.8373 94.2958 57.464 95.6059 60.7063C98.1818 67.081 95.498 74.3697 89.4032 77.5518C86.3034 79.1702 83.9617 81.9397 82.8813 85.2656C80.7569 91.8046 74.0159 95.663 67.3017 94.1829C63.8867 93.4302 60.3127 94.0466 57.3472 95.8998C51.5167 99.5435 43.8727 98.1661 39.6806 92.7165C37.5485 89.9448 34.4144 88.1197 30.9515 87.6331C24.1429 86.6766 19.1726 80.708 19.4642 73.8387C19.6125 70.3449 18.3849 66.9323 16.0448 64.3336C11.4441 59.2244 11.4731 51.4573 16.112 46.3826C18.4714 43.8016 19.7245 40.3982 19.6023 36.9034C19.3621 30.0322 24.3769 24.1009 31.1924 23.1953C34.6589 22.7347 37.8066 20.933 39.9594 18.1773Z" fill="#E45E44"/>
<path d="M39.9594 18.1773C44.1921 12.7592 51.8462 11.4391 57.6493 15.1263C60.6009 17.0016 64.1701 17.6448 67.5906 16.9176C74.3158 15.4878 81.0277 19.3965 83.1031 25.9512C84.1587 29.285 86.4795 32.072 89.5672 33.7136C95.638 36.9411 98.2672 44.2497 95.6437 50.6049C94.3094 53.8373 94.2958 57.464 95.6059 60.7063C98.1818 67.081 95.498 74.3697 89.4032 77.5518C86.3034 79.1702 83.9617 81.9397 82.8813 85.2656C80.7569 91.8046 74.0159 95.663 67.3017 94.1829C63.8867 93.4302 60.3127 94.0466 57.3472 95.8998C51.5167 99.5435 43.8727 98.1661 39.6806 92.7165C37.5485 89.9448 34.4144 88.1197 30.9515 87.6331C24.1429 86.6766 19.1726 80.708 19.4642 73.8387C19.6125 70.3449 18.3849 66.9323 16.0448 64.3336C11.4441 59.2244 11.4731 51.4573 16.112 46.3826C18.4714 43.8016 19.7245 40.3982 19.6023 36.9034C19.3621 30.0322 24.3769 24.1009 31.1924 23.1953C34.6589 22.7347 37.8066 20.933 39.9594 18.1773Z" fill="url(#paint0_radial_163_11)" fill-opacity="0.45"/>
</g>
<path d="M26.8526 57.2283L26.891 56.8729L28.6226 56.3753L34.9016 44.0596L35.1724 44.0889L38.3582 57.8556L39.8876 58.2777L39.8492 58.6331L34.874 58.0953L34.9124 57.74L36.3238 57.67L35.3189 53.5038L30.8175 53.0172L29.0626 56.4228L30.5125 57.2644L30.4741 57.6198L26.8526 57.2283ZM30.9913 52.6765L35.2388 53.1356L33.852 46.9593L30.9913 52.6765ZM47.8142 59.6652C47.3178 59.6116 46.9621 59.4704 46.7472 59.2417C46.5334 59.0018 46.4082 58.6287 46.3716 58.1226L46.2271 56.2922C46.1829 55.751 46.0539 55.3604 45.8401 55.1204C45.6264 54.8804 45.317 54.7329 44.9121 54.6777L43.3383 54.5076L42.9139 58.4336L44.1123 58.7515L44.0757 59.0899L39.9465 58.6436L39.9831 58.3052L41.2217 58.2507L42.0558 50.534L40.8556 50.2331L40.894 49.8777L45.0232 50.324L44.9848 50.6794L43.748 50.7169L43.3804 54.1184L44.9711 54.2903C45.2556 54.2982 45.4916 54.2267 45.6791 54.0758C45.8679 53.9136 46.0418 53.6242 46.201 53.2077L46.6373 52.0222C46.8324 51.484 47.0574 51.0917 47.3123 50.8453C47.5797 50.5889 47.956 50.4869 48.4411 50.5393C48.8472 50.5832 49.1509 50.7302 49.3522 50.9802C49.5547 51.219 49.6388 51.4963 49.6047 51.8122C49.573 52.1055 49.4496 52.349 49.2347 52.5426C49.0322 52.7262 48.773 52.8009 48.4571 52.7667C48.2879 52.7484 48.1274 52.7026 47.9755 52.6291C48.0204 52.5312 48.0476 52.4371 48.0574 52.3469C48.0733 52.2002 48.0415 52.0712 47.9623 51.9599C47.883 51.8487 47.7757 51.7857 47.6403 51.7711C47.3695 51.7418 47.1719 51.8802 47.0475 52.1864L46.5943 53.37C46.3903 53.8844 46.1583 54.236 45.8982 54.4247C46.6355 54.5729 47.1575 54.812 47.4642 55.1419C47.7823 55.473 47.9654 55.9436 48.0136 56.5538L48.1439 58.0402C48.1827 58.421 48.2348 58.6778 48.3004 58.8104C48.3772 58.9443 48.5003 59.0203 48.6695 59.0386C48.8613 59.0594 49.0697 58.9792 49.2947 58.798L49.5211 59.0793C49.2799 59.3044 49.0054 59.4687 48.6974 59.5724C48.3907 59.6648 48.0963 59.6957 47.8142 59.6652ZM59.0379 63.5321L57.8505 60.5789L49.8291 59.7118L49.8657 59.3734L51.0686 59.3322L51.9063 51.5816L50.74 51.2843L50.7766 50.9459L54.6688 51.3666L54.6323 51.705L53.5986 51.7645L52.7517 59.5997L56.7116 60.0277L57.5585 52.1925L56.5614 51.9136L56.598 51.5751L60.4902 51.9958L60.4537 52.3343L59.2508 52.3755L58.4039 60.2107L59.6054 60.3405L59.5117 63.5833L59.0379 63.5321ZM60.3893 60.8533L60.4259 60.5148L61.6287 60.4736L62.4665 52.723L61.3002 52.4258L61.3368 52.0873L65.229 52.508L65.1924 52.8465L64.1588 52.906L63.4472 59.4889L68.4036 53.7072L68.4402 53.3687L67.4431 53.0898L67.4797 52.7513L71.3719 53.172L71.3353 53.5105L70.1325 53.5517L69.2947 61.3022L70.461 61.5995L70.4244 61.938L66.5322 61.5173L66.5688 61.1788L67.6024 61.1193L68.3268 54.4179L63.3686 60.2166L63.321 60.6565L64.3181 60.9355L64.2815 61.274L60.3893 60.8533ZM72.3262 62.3147C72.0442 62.2842 71.7632 62.1911 71.4833 62.0353C71.2046 61.8682 70.9715 61.649 70.7839 61.3776L71.0652 61.1512C71.2463 61.3762 71.4328 61.4991 71.6246 61.5198C71.7938 61.5381 71.9246 61.4895 72.017 61.3739C72.1207 61.2596 72.2321 61.0205 72.3513 60.6568L72.6436 59.6954C72.8049 59.1535 73.0355 58.7619 73.3355 58.5204C73.6356 58.2789 74.0951 58.1459 74.714 58.1215L74.7232 58.0369C74.1362 57.8707 73.6693 57.5977 73.3223 57.2178C72.9865 56.8391 72.854 56.3226 72.9248 55.6682C73.0065 54.9124 73.3219 54.3701 73.871 54.0414C74.4214 53.7014 75.2663 53.593 76.4058 53.7161L81.2457 54.2393L81.2072 54.5946L79.9705 54.6322L79.1364 62.3489L80.3347 62.6668L80.2982 63.0052L76.169 62.5589L76.2056 62.2204L77.4442 62.166L77.8228 58.663L76.2659 58.4947C75.7808 58.4423 75.3913 58.5086 75.0973 58.6937C74.8147 58.88 74.607 59.2171 74.4744 59.7049L74.0651 61.1159C73.9212 61.6026 73.7192 61.9403 73.4591 62.129C73.2002 62.3065 72.8226 62.3684 72.3262 62.3147ZM77.8685 58.2399L78.2892 54.3477L76.8677 54.1941C76.2134 54.1233 75.7124 54.2176 75.3648 54.4767C75.0285 54.7371 74.8256 55.1889 74.7561 55.8319L74.7323 56.0519C74.664 56.6837 74.772 57.1633 75.0561 57.4908C75.3403 57.8183 75.7588 58.0119 76.3116 58.0716L77.8685 58.2399Z" fill="white"/>
<defs>
<filter id="filter0_i_163_11" x="12.6135" y="12.1463" width="84.0432" height="85.7845" filterUnits="userSpaceOnUse" color-interpolation-filters="sRGB">
<feFlood flood-opacity="0" result="BackgroundImageFix"/>
<feBlend mode="normal" in="SourceGraphic" in2="BackgroundImageFix" result="shape"/>
<feColorMatrix in="SourceAlpha" type="matrix" values="0 0 0 0 0 0 0 0 0 0 0 0 0 0 0 0 0 0 127 0" result="hardAlpha"/>
<feOffset dy="-0.895856"/>
<feGaussianBlur stdDeviation="0.447928"/>
<feComposite in2="hardAlpha" operator="arithmetic" k2="-1" k3="1"/>
<feColorMatrix type="matrix" values="0 0 0 0 1 0 0 0 0 1 0 0 0 0 1 0 0 0 0.25 0"/>
<feBlend mode="normal" in2="shape" result="effect1_innerShadow_163_11"/>
</filter>
<radialGradient id="paint0_radial_163_11" cx="0" cy="0" r="1" gradientUnits="userSpaceOnUse" gradientTransform="translate(70.3592 33.4703) rotate(130.838) scale(23.4468 38.367)">
<stop stop-color="white" stop-opacity="0.5"/>
<stop offset="1" stop-color="white" stop-opacity="0"/>
</radialGradient>
</defs>
</svg>
