<svg width="16" height="16" viewBox="0 0 16 16" fill="none" xmlns="http://www.w3.org/2000/svg">
<path d="M15.6128 0.832338L9.26669 14.9306C9.21358 15.0487 9.12354 15.1456 9.01064 15.206C8.89774 15.2664 8.76834 15.2871 8.64269 15.2647C8.51704 15.2423 8.40222 15.1782 8.31619 15.0823C8.23015 14.9864 8.17776 14.8641 8.1672 14.7347L7.63067 8.18095L1.19419 7.63464C1.06707 7.62388 0.947034 7.57054 0.852854 7.48294C0.758674 7.39533 0.695663 7.27842 0.673675 7.15048C0.651687 7.02254 0.671963 6.89079 0.731331 6.77583C0.790699 6.66087 0.885811 6.56919 1.00179 6.51512L14.8478 0.0534086C14.9548 0.00346043 15.0743 -0.0119436 15.1902 0.00926505C15.3061 0.0304737 15.4128 0.0872794 15.4961 0.172054C15.5793 0.256829 15.6351 0.365513 15.6559 0.483511C15.6768 0.60151 15.6616 0.723173 15.6126 0.832162L15.6128 0.832338Z" fill="white"/>
</svg>
