<svg width="80" height="77" viewBox="0 0 80 77" fill="none" xmlns="http://www.w3.org/2000/svg">
<circle cx="32.5" cy="44.5" r="32.5" fill="#F8F2F2"/>
<path d="M60.8322 29.305C60.8322 30.1484 60.1481 30.8331 59.3041 30.8331C58.4601 30.8331 57.776 30.1484 57.776 29.305C57.776 28.4609 58.46 27.7769 59.3041 27.7769C60.1481 27.7769 60.8322 28.4609 60.8322 29.305Z" fill="#744444"/>
<path d="M56.5883 27.3395C57.0227 26.8413 57.5955 26.4831 58.2337 26.3107C58.8259 26.1524 59.4451 26.1232 60.0492 26.2248C60.6171 26.314 61.1666 26.495 61.6768 26.7603C61.7486 26.8008 61.7535 26.8073 61.8124 26.844C61.9507 26.8878 62.0972 26.9013 62.2414 26.8835L62.4192 26.8775V26.877C62.5851 26.8716 62.7456 26.9327 62.8666 27.0461C62.9871 27.1596 63.0579 27.3168 63.0628 27.4822C63.0649 27.5703 63.0493 27.6578 63.0158 27.7394C62.8607 28.0917 62.5635 28.3608 62.1977 28.4797C61.7784 28.6126 61.3245 28.5856 60.9236 28.404C60.5605 28.2587 60.179 28.1625 59.7899 28.1182C59.4371 28.0733 59.0794 28.0912 58.733 28.1717C58.4315 28.2414 58.1511 28.3829 57.9155 28.5845L57.8458 28.6401C57.4805 28.9384 56.9472 28.9071 56.6192 28.5677C56.2912 28.2284 56.2777 27.6951 56.5884 27.3395L56.5883 27.3395Z" fill="#744444"/>
<path d="M55.97 23.0965C57.3467 22.7405 58.7765 22.6378 60.19 22.794C61.6041 22.9647 62.9657 23.4343 64.1842 24.1718C64.5182 24.3658 64.6338 24.7927 64.4425 25.1288C64.2518 25.4649 63.826 25.5843 63.4883 25.3968C62.4206 24.8208 61.2421 24.4804 60.0318 24.3977C58.8214 24.3285 57.6088 24.4798 56.4525 24.844H56.4471C56.2164 24.9137 55.9673 24.8883 55.7555 24.7743C55.5431 24.6603 55.3848 24.4668 55.3157 24.2361C55.1709 23.7558 55.4432 23.2495 55.9235 23.1047L55.97 23.0965Z" fill="#744444"/>
<path d="M45.7808 29.305C45.7808 30.1484 45.0967 30.8331 44.2527 30.8331C43.4087 30.8331 42.7246 30.1484 42.7246 29.305C42.7246 28.4609 43.4087 27.7769 44.2527 27.7769C45.0967 27.7769 45.7808 28.4609 45.7808 29.305Z" fill="#744444"/>
<path d="M45.6452 28.5843C45.4096 28.3828 45.1292 28.2412 44.8277 28.1715C44.4813 28.091 44.1236 28.0732 43.7708 28.118C43.3817 28.1623 43.0003 28.2585 42.6366 28.4038C42.2357 28.5854 41.7823 28.6124 41.363 28.4795C40.9972 28.3606 40.6995 28.091 40.5444 27.7392C40.465 27.5442 40.4888 27.3221 40.6087 27.1486C40.7281 26.9752 40.9275 26.8741 41.1383 26.8801L41.3198 26.886C41.4641 26.9039 41.6105 26.8904 41.7488 26.8466C41.8094 26.8104 41.8126 26.8034 41.8845 26.7628V26.7634C42.3945 26.4975 42.9441 26.3165 43.512 26.2274C44.115 26.1263 44.7332 26.1555 45.3244 26.3133C45.9625 26.4856 46.5353 26.8439 46.9698 27.3421C47.2675 27.6982 47.2486 28.2218 46.926 28.5551C46.6034 28.8891 46.0815 28.9258 45.7157 28.6405L45.6452 28.5843Z" fill="#744444"/>
<path d="M52.8161 33.5903C52.5546 33.5903 52.3066 33.7027 52.1342 33.8994C52.0153 33.9324 51.8938 33.9529 51.7711 33.9599C51.6463 33.9534 51.5231 33.9329 51.4031 33.8994C51.1535 33.6152 50.7542 33.5158 50.4008 33.6487C50.0469 33.7822 49.8129 34.1204 49.8129 34.4981C49.8129 35.7609 51.7495 35.776 51.7705 35.776C51.7916 35.776 53.7216 35.7609 53.7216 34.4981C53.7216 33.9977 53.3163 33.5914 52.816 33.5903H52.8161Z" fill="#744444"/>
<path d="M55.3585 38.8853C55.3088 38.7372 55.2024 38.6146 55.0619 38.5449C54.922 38.4752 54.7599 38.4644 54.6118 38.5146L54.561 38.5314C54.4108 38.5838 54.2487 38.5892 54.0952 38.547C53.9137 38.5114 53.6716 38.4222 53.3366 38.3514V38.352C52.94 38.2639 52.5272 38.2817 52.1397 38.4033C52.0122 38.446 51.8885 38.4989 51.7696 38.5616C51.6507 38.4995 51.527 38.446 51.3995 38.4033C51.0121 38.2828 50.6003 38.2661 50.2048 38.3541C49.8703 38.4249 49.6282 38.5141 49.4451 38.5497C49.2922 38.5913 49.1301 38.5859 48.9798 38.5341L48.929 38.5168V38.5162C48.6492 38.4228 48.3433 38.5503 48.2126 38.8145C48.0823 39.0787 48.1666 39.3991 48.4109 39.5645C48.7437 39.7763 49.1306 39.8871 49.525 39.8838C49.8882 39.8838 50.1772 39.8352 50.3853 39.8395V39.8401C50.5317 39.8298 50.6771 39.8676 50.7997 39.9481C50.8105 39.9552 50.8235 39.9692 50.8343 39.9784C50.9667 40.3836 51.3444 40.6576 51.7707 40.6576C52.197 40.6576 52.5747 40.3836 52.7071 39.9784C52.7184 39.9692 52.732 39.9552 52.7428 39.9476C52.8654 39.8671 53.0113 39.8293 53.1572 39.839C53.3647 39.8347 53.6543 39.8849 54.018 39.8833C54.4124 39.8865 54.7988 39.7752 55.1316 39.5639C55.351 39.4143 55.4439 39.1371 55.3586 38.8853L55.3585 38.8853Z" fill="#744444"/>
<path d="M52.3596 43.3605H51.1979C50.6965 43.3605 50.2901 42.9536 50.2901 42.4527C50.2901 41.9513 50.6965 41.5449 51.1979 41.5449H52.3596C52.8611 41.5449 53.2674 41.9513 53.2674 42.4527C53.2674 42.9536 52.8611 43.3605 52.3596 43.3605Z" fill="#744444"/>
<path d="M79.5381 73.2915C79.095 70.4564 77.9559 67.7757 76.2237 65.4879V65.4825C76.7526 61.8882 76.087 57.9627 75.5461 54.7708C75.3586 53.6663 75.183 52.623 75.0738 51.72C74.6048 46.9055 74.4184 42.0679 74.5151 37.2316C74.5205 29.9694 74.5254 23.1098 72.6217 17.1949C69.5238 7.57845 59.9956 -0.136041 51.7786 0.323204C43.5595 -0.135543 34.034 7.57887 30.9368 17.1977C28.6976 24.1572 28.6868 33.0334 28.6771 41.6166C28.6663 51.2876 28.655 61.2853 25.4826 68.5433V68.5519C24.7548 70.0475 24.2615 71.6464 24.0205 73.2924C23.9357 73.8949 24.1167 74.5044 24.516 74.9631C24.9196 75.4273 25.5037 75.6936 26.1186 75.6942H77.4379C78.0539 75.6942 78.6397 75.4273 79.0432 74.9626C79.4425 74.5038 79.6225 73.8943 79.5371 73.2924L79.5381 73.2915ZM46.5444 73.8783H26.119C26.0288 73.8789 25.9429 73.84 25.884 73.7713C25.8283 73.7103 25.8034 73.6271 25.8159 73.5455C26.2 70.8221 27.6811 66.7069 32.5502 62.5647C33.9491 61.4662 35.4232 60.4671 36.9616 59.5745C36.5866 61.3089 36.3926 63.078 36.3829 64.8525C36.3839 65.3182 36.6039 65.7554 36.9772 66.0336C38.1271 66.9225 40.9655 66.5724 42.5254 66.2903V66.2898C42.2358 67.2273 42.2406 68.2306 42.5394 69.1643C42.8658 70.426 44.5143 72.0449 46.5439 73.876L46.5444 73.8783ZM51.9527 73.8783H49.244C49.0192 73.66 48.6993 73.3709 48.2314 72.9522C47.0329 71.8801 44.5397 69.6491 44.2976 68.7116L44.2982 68.7122C43.9902 67.9055 44.0761 67.0009 44.53 66.2666C44.7574 65.904 44.7996 65.455 44.644 65.0562C44.3976 64.4699 43.7578 64.1538 43.1429 64.3143C41.7055 64.6812 40.2229 64.8341 38.7413 64.7693C38.4279 64.7331 38.1966 64.4602 38.2123 64.1452C38.2988 61.7299 38.8277 57.9361 40.4006 56.167C41.0755 55.5705 41.8612 55.1123 42.7139 54.82C42.7836 54.7908 42.8635 54.8227 42.8954 54.8913C43.2585 55.6278 49.132 67.4634 51.9542 73.8794L51.9527 73.8783ZM47.5878 23.0957C47.0339 22.9585 46.4709 22.8591 45.9035 22.798C47.1857 20.963 48.3291 19.0357 49.3239 17.0305C50.6013 14.5902 51.8052 12.2852 52.955 12.1096C53.4732 12.0302 54.0989 12.4122 54.9013 13.1676C55.0688 13.3335 55.2935 13.428 55.5291 13.4307C55.7177 13.4248 55.902 13.3697 56.0624 13.2703C56.6568 12.8931 57.4138 12.885 58.0163 13.2497C60.9688 14.6168 64.8468 20.8891 65.4196 26.9268C66.2252 35.4155 63.4889 41.624 60.4188 44.0102C57.8629 45.9992 53.624 48.2232 51.7787 48.2232C49.9335 48.2232 45.6946 45.9992 43.1376 44.0107C40.8433 42.2266 38.1017 37.3246 37.591 29.2831C37.5764 28.9929 37.7671 28.7325 38.0475 28.6579C40.6071 27.9155 42.8912 26.4339 44.6127 24.3995C45.4578 24.4492 46.2936 24.5994 47.1031 24.8453H47.1118L47.1528 24.8566V24.8572C47.6397 24.9771 48.1319 24.6799 48.2519 24.1931C48.3724 23.7057 48.0747 23.2135 47.5878 23.0935L47.5878 23.0957ZM47.5948 48.8162C48.8948 49.4965 50.3171 49.9121 51.7786 50.039C53.0965 49.9364 54.383 49.5819 55.567 48.994C55.3535 52.1268 56.0619 55.5246 56.7611 58.8314C55.3195 61.8573 53.6034 65.4549 51.7884 69.0871C49.5428 64.2051 45.0526 55.1617 44.7479 54.5434V54.5429C46.2408 52.9564 47.2301 50.9631 47.5921 48.8148L47.5948 48.8162ZM57.2745 71.015L57.275 71.0144C56.7925 71.8898 56.6844 72.9229 56.9762 73.8788H53.9358C53.5451 72.9829 53.1518 72.095 52.7551 71.216C54.3978 67.9664 55.9729 64.7044 57.3653 61.7897C58.0191 65.2343 58.3471 68.4316 57.2751 71.0144L57.2745 71.015ZM59.7854 73.8798L59.7859 73.8793C59.3834 73.8928 58.9981 73.7156 58.7469 73.4011C58.5356 73.0602 58.5994 72.4825 58.9387 71.7412C60.5354 67.895 59.5271 63.1281 58.5513 58.5185C57.7888 54.9118 57.0151 51.1958 57.5073 48.038C58.9144 47.2794 60.2609 46.4132 61.5339 45.4461C64.7414 42.9513 68.1574 36.5608 67.2269 26.7567C66.6428 20.6023 62.6167 13.3821 58.7787 11.603V11.6035C57.8217 11.0961 56.6919 11.0302 55.682 11.422C54.6418 10.5326 53.6552 10.1668 52.6815 10.3175C50.6239 10.632 49.3412 13.0857 47.7147 16.1916C45.4238 20.5699 42.5706 25.9955 36.7308 27.1086H36.7275L36.7281 27.1081C35.5798 26.6904 34.3159 26.7255 33.1931 27.2064C31.0145 28.3109 30.6205 31.0969 31.3527 33.1593C32.1486 35.3985 34.2873 37.374 36.6955 37.374C36.8495 37.3702 37.0025 37.3583 37.1548 37.3383C38.4046 41.393 40.2694 44.085 42.0217 45.4478C43.2483 46.3788 44.543 47.2168 45.8949 47.9549C45.6652 49.8677 44.8639 51.6671 43.5952 53.1167C43.0878 52.9125 42.5215 52.9087 42.0115 53.1065C40.853 53.402 39.815 54.0494 39.0406 54.9603C38.5289 55.5574 38.1123 56.2301 37.8043 56.9536C35.5582 58.2023 33.4076 59.6159 31.3705 61.1828C30.5238 61.902 29.7219 62.6726 28.9698 63.4901C30.4611 56.8726 30.4828 49.1525 30.4898 41.6192C30.4995 33.1759 30.5092 24.4446 32.6625 17.7551C35.543 8.8211 44.2916 1.64552 51.7792 2.14212C59.2699 1.64717 68.0161 8.81861 70.8919 17.7565C72.7074 23.3992 72.7031 30.1194 72.6977 37.2343C72.5994 42.1432 72.7907 47.0538 73.2694 51.9398C73.3813 52.8881 73.5617 53.9532 73.7536 55.0808C74.6046 60.0968 75.6641 66.3372 72.3119 70.1917C70.0268 72.815 65.8133 74.0507 59.7863 73.8783L59.7854 73.8798ZM34.9792 32.242C35.3818 32.2561 35.7725 32.3798 36.1102 32.5992C36.2625 33.6437 36.45 34.6287 36.6732 35.5537C35.0051 35.5386 33.5586 33.944 33.0642 32.5522C32.659 31.411 32.686 29.5004 34.0152 28.8255V28.825C34.5664 28.6186 35.1656 28.5743 35.7416 28.6974C35.7707 29.3318 35.814 29.9467 35.8685 30.5465C35.5951 30.48 35.3158 30.4395 35.0348 30.4254C34.7933 30.4152 34.5582 30.5027 34.3821 30.668C34.2059 30.8334 34.1043 31.063 34.0995 31.3046C34.0919 31.5456 34.18 31.7801 34.3448 31.9557C34.5101 32.1318 34.7381 32.2345 34.9791 32.242L34.9792 32.242ZM77.6711 73.7747C77.6127 73.8439 77.5268 73.8833 77.4366 73.8822H70.4224C71.6603 73.269 72.7669 72.4212 73.6807 71.3847C74.555 70.3651 75.2202 69.184 75.6383 67.9076C76.7131 69.627 77.428 71.5469 77.7392 73.5504C77.7506 73.6309 77.7257 73.712 77.6712 73.7725L77.6711 73.7747Z" fill="#744444"/>
<path d="M39.924 73.4021H32.4349C31.8735 73.4021 31.3347 73.1789 30.9376 72.7812C30.5399 72.3841 30.3168 71.8454 30.3168 71.284V70.3378C30.3168 69.7759 30.5399 69.2372 30.9376 68.84C31.3348 68.4429 31.8735 68.2197 32.4349 68.2197H39.924C40.486 68.2197 41.0247 68.4429 41.4218 68.84C41.819 69.2372 42.0422 69.7759 42.0422 70.3378V71.284C42.0422 71.8454 41.819 72.3841 41.4218 72.7812C41.0247 73.1789 40.486 73.4021 39.924 73.4021ZM32.4349 70.0352C32.2679 70.0352 32.1323 70.1708 32.1323 70.3378V71.2839C32.1323 71.3639 32.1642 71.4412 32.2209 71.4979C32.2776 71.5546 32.3549 71.5865 32.4349 71.5865H39.924C40.0046 71.5865 40.0813 71.5546 40.138 71.4979C40.1948 71.4412 40.2266 71.3639 40.2266 71.2839V70.3378C40.2266 70.2573 40.1948 70.1806 40.138 70.1238C40.0813 70.0671 40.0046 70.0352 39.924 70.0352L32.4349 70.0352Z" fill="#744444"/>
</svg>
